<mxfile host="Electron" agent="Mozilla/5.0 (Windows NT 10.0; Win64; x64) AppleWebKit/537.36 (KHTML, like Gecko) draw.io/28.1.2 Chrome/138.0.7204.243 Electron/37.4.0 Safari/537.36" version="28.1.2">
  <diagram name="Page-1" id="mfdmmSnv2qaaJvoL6ReI">
    <mxGraphModel dx="3778" dy="2885" grid="1" gridSize="10" guides="1" tooltips="1" connect="1" arrows="1" fold="1" page="1" pageScale="1" pageWidth="827" pageHeight="1169" math="0" shadow="0">
      <root>
        <mxCell id="0" />
        <mxCell id="1" parent="0" />
        <mxCell id="tCzJ1ZzGa24ECWB435qX-4" style="edgeStyle=orthogonalEdgeStyle;rounded=0;orthogonalLoop=1;jettySize=auto;html=1;strokeWidth=20;" edge="1" parent="1" source="tCzJ1ZzGa24ECWB435qX-1" target="tCzJ1ZzGa24ECWB435qX-2">
          <mxGeometry relative="1" as="geometry" />
        </mxCell>
        <mxCell id="tCzJ1ZzGa24ECWB435qX-1" value="" style="shape=image;aspect=fixed;image=data:image/png,iVBORw0KGgoAAAANSUhEUgAAA3gAAAEVCAYAAACym0fjAAAAAXNSR0IArs4c6QAAAARnQU1BAACxjwv8YQUAAAAJcEhZcwAADsMAAA7DAcdvqGQAAD+xSURBVHhe7d0NsBTlne/xZw6ivBkDhrggGoX4AkbYRYPRWhdTeqO4YbMa0L0VAdfslUDYYCA3Ch5S3pUCycqJVBGEvLiAphKEaCn3iu5NKqKbaKK4F1/WCJEYXyAJRkxERIln7vx6nub0PNNnzsyc7p7pnu+naoqn57z0OZyenuf//P/P8xgAAAAAQDbk7L8AAACJe3X48Ityudy3TT7fmTfm2hG7d//YfggAUIc2+y8AAEDicsYsKTxOKgR5I9W2TwMA6kSABwAAGqYQ2PWxzZI2AKA+BHgAAKBhcsZ8LZ/P/9bk87sLh18rPgsAAAAAAAAAAAAAAAAAAAAAAAAAAAAAAAAAAAAAAAAAAAAAAAAAAAAAAAAAAAAAAAAAAAAAAAAAAAAAAAAAAAAAAAAAAAAAAAAAAAAAAAAAAAAAAAAAAAAAAAAAAAAAAAAAAAAAAAAAAAAAAAAAAAAAAAAAAAAAAAAAAAAAAAAAAAAAAAAAAAAAAAAAAAAAAAAAAAAAAAAAAAAAAAAAAAAAAAAAAAAAAAAAAAAAAAAAAAAAAAAAAAAAAAAAAAAAAAAAAAAAAAAAAAAAAAAAAAAAAAAAAAAAAAAAAAAAAAAAAAAAAAAAAAAAAAAAAAAAAAAAAAAAAAAAAAAAAAAAAAAAAAAAAAAAAAAAAAAAAAAAAAAAAAAAAAAAAAAAAAAAAAAAAAAAAAAAAAAAAAAAAAAAAAAAAAAAAAAAAAAAAAAAAAAAAAAAAAAAAAAAAAAAAAAAAAAAAAAAAAAAAAAAAAAAAAAAAAAAAAAAAAAAAAAAAAAAAAAAAAAAAAAAAAAAAAAAAAAAAAAAAAAAAAAAAAAAAAAAAAAAAAAAAAAAAAAAAAAAAAAAAAAAAAAAAAAAAAAAAAAAAAAAAAAAAAAAAAAAAAAAAAAAAAAAAAAAAAAAAAAAAAAAAAAAAAAAAAAAAAAAAAAAAAAAAAAAAAAAAAAAAAAAAAAAAAAAAAAAAAAAAAAAAAAAAAAAAAAAAAAAAAAAAAAAAAAAAAAAAAAAAAAAAAAAAAAAAAAAAAAAAAAAAAAAAAAAAAAAAAAAAAAAAAAAAAAAAAAAAAAAAAAAAAAAAAAAAAAAAAAAAAAAAAAAAAAAAAAAAAAAAAAAAAAAAAAAAAAAAAAAAAAAAAAAAAAAAAAAAAAAQArkBg0alLdtAAAAAECKEeBV4eGHH7at2txyyy3mwQcftEfVS/p8ANDMrrjiCjNmzBgzbNgwc9ppp5kLLrjAfiQeSZ8vza6//nozadIke2T4v6pgzZo1ZsCAAea1114zO3bsMJs3bzZ79+61HwVKcb2gNwjwqkCAhzQYmmsz401f8xHTx4xu6+s9N8Yc4f3r25t/3+zN5c22zvfMz80hszP/Z/uR6JySO8KcU/g5zmo70pxU+FkGmJz9iDH/Zf5s3s53mpcLP8fzhfaj+ffsR4BSo0ePNldeeaWZMGGC18kJiiOIiOJ8F+eOOvz6G5DPmZNyfexHinT9/6Zw7W8rXPdZufYJ8KqnDrsGDIK2b99utmzZkvn37ksuucS7NkaNGmWGDh3qPXfgwAGzc+dO7//gjjvu8J5Dl1a+XuoVvB/p+poxY0ZTBMWN6J8R4FWBAA/1OD93pGlvO9oe1U6dwS+//0d7VNn4XF+ztO0D9qh6W/Pvmm/nDxRuLJ32mfopsJua62cmFjq5tbj4/T/YFlCkN+mJEyeWBVq+qIOI3pxP1/2MXH/z8cLrvRZ6fd/T+U7qA72sBHhJ3K/DOuw+ddxXr15tnn/+eftMdqhv8olPfMIehXvllVfMvHnzMpehWly4ptx7Q7XveVm/XvxBtTPOOONw0K/r4Nlnn/UC/lqvhXPPPdcsXbrUHjVPn7hR/TMCvIi4b3IS58WV9PlQuyQDvN6cS6NGHfm3zVP5Q/aZ2ilz8YW2gSXZumoR4MGnN/yFCxeaE044wT7TRR0aPaIsU4rifL19na8pvIEr0EsrAryiau/XymQp2AnLFCvjsHbtWnP33XfbZ9JvxYoVZty4cfaosqwFeXpfnNc2yB51qeU9L6vXyzXXXGOmTJnS7aCafrebb77ZPPbYY/aZnt15552H7+VKlNx0001eu9Ea1T9rs/8CyIiXCjeEHxY6jIs73zJXde7z3kz0mNP5R68zqRtG0NBcHzMzN9Ae1e7ytv7em1gwuDtg8mZL/l3vZ/DPr4eO9bPpZwSCNPq6fPnysmDr8ccfN7NmzTJz586ta1S3O3GdT9f2nZ0Hyq79js795omQbN3M3ADvNYTWoEFYdTwvvfRSs379eq8j61Nnd/bs2V7nNwvmzJlTFtzp9TV16lRvIGDTpk322SK9FufPn2+P0k0leRr07K0sXi8KWqdPn344uNN1oOtB14XKT0UfW7RokXefrob+j/x7ue7Z3/zmN712s0myf0aAB2TA24WASul83SRmdr5pvlW4Uaj0K5jaVz23MgVfzv+pLMDSXKGrcrV3MlV6MM35Oo1kX1v4GW4rdGjd8jMd62fTz6ifVUEgoDdxvZkHR3P1Jr1gwQJzww03RF6GFPX5NKChN23/9XdXvrz08qHCtd5eeFPXm7hLryGVeqK1aABBc4SUKQ5S5zcLQZ7KnoNeeOEF7/XlD5qsXLmyLMjrqZQzLeYWOuX1VLRUkoXrRaWYn//85+1RMbjTdSC6LpYtW3Z4mpIfwPbEn9/p6+joOHyNNYNG9c8I8ICEKPAJjuj39Ki2PFOUvl9SCKiqmZSrm8qt+f32qMv5Nc6d0wjlPOdNzC9TqqZmXD+rgkC0Nr3hu8GWSrX0xl5LeU61oj7fL+2Aht60q3n96U1cwWCQXkOav4rmEef9OkgdUWWLldkKSnuQp063P6/K9+Mf/9i2umzYsMG2uuhr00ylmbXOya1W2q+XyZMnH74ulI30g7ug4DWhrFyl68ENGJUBjON9ozca0T+T2AI8TQ5VFO4/dAygOehG45aLuSv+9eQy088rH/Api7Gk8y17BFRHo61usBXnPJyoz6c35GoGNILuNQdtq0tcHUKkgzJbbqddc5SqLVFrNsOHD7etLj/5yU9sq0szZVqiEFVpZk/Ser0ES3affvpp2yqlCgple32Vsroq6fUDRt3LlQFMuyj6Z0IGD2hR2qqgXnoTm9RWmnG4M/9OzR1dtDYt0BGcA6cR3SVLlsTW6Uv6fN3R60QZoiBl8VTyjNalTnuwY1ttiVozcrN3krVgLoxbmhk27zYqabxeTjnlFNsyZt++fbZVbs+ePbZlvP1Iw2i/Uj/407181apVXjsLetM/8xHgAaiZsnfBNzFNDE7zSoBInlawdFcC1nyMuJb9Tvp8PXm+s3xVtIGB1xRaU3t7e8lCGhqQSGOpZlgwF1ZqF5Zx2rZtm22li1uaqUEczb2NU9qul2D1RCXvvFO5P6EBhKuvvtoeGfPAAw80XWlmoxHgAfC4qzdV8jdOOdmTTjYC6IkWCwjSSLQWEYhL0ucD6qHAaOvWrfaoSKV3YRmxZrZ7927b6vLRj37Utrp85jOfsa0iLSCSxkyfW5qpKQurOt+2R/HJyvVSKwW2frCoe3nYXL4sqaV/5kt9gKdRWY1WaIlUzfPTPhjBuX96bNy40duLRUv2Zv2iB6o1uq20HMwtGeuOysiCc+9kW4xlKMge3bfdeRVhCzBEJenzAb2hgYdgVkYdWS1OkSZa3j/4O8g555xjW0XK6Lmvyx/84Ae2lS5uaeaWzoNVLaoRhTRdL+410Z3+/btfNVJ9fn8un77fbbfd5rWzpN7+WVCvAzw3mPIf7u77Og77vLBHNQuyKFhT4Hb77bd7qwdpiVSdIzi/wqegTheDRjXWrVuXynIHIEpakn2MKV2W3V3WvTvu10m1X9uKFFzccsstia0Ml/T56vF3f/d3tlWkUeg4N+tN+nzVcN/A5beGOawoXp/uAhRueXEa7Ny507aK1D/T/Ul0f/rSl77ktX3NuAJiNdzSTC1zr1V1k5Km6yV4TQwePNi2ygXn3QXn4+n6UV/e18gy+7j0pn8WlNoM3plnnllXNk4jGwoINTkTaFWznVW+tEdLtTeQ0539utw9W1DkB1oahKq0ClhUkj5fb5x99tm2VfTcc8/ZVjySPl813DdwleAkNeKP5nfffffZVpH6O2lbUfOnP/2pbXW58sorvfuUFggJzsfSipBpXAExbNXMNfn4SzNdablegnv4jR071rZK6b0smCQKrhZ63XXXHb5u9L2yWGbfm/5ZUCbm4GlpVI386KYxa9YsL5vnP/ScuymkBCdnAq1Cb0aL244u6VwqQPt2DaONJ5nS8swDubxtFZ2fO9IsbBtk1rR90DzU51jvcW+fIeYbfY4xl7f1936GLCOwq0ydDndwzl3uO0pJn68aeh24HiELjgBlstxytrPOOsu20kFZcvd3UL/MvU+p/6aAL43c0kztcal9z5KWlutl8+bNXsZRFKipGs+lQQCf5tep3Ff0uX7gp9918eLFXjsrouifBfW6pxUMpoKP4NKtouOwzwt7zJw5035V9w4ePOiVcyqgmzZtmjfyo4vATdXqOW0KqRtIkC4ssnhIkl60fsCjYEdB0FW5/l46Pk66aSjoujY3wHyrEHQFS0m0hHN7/k/esu3Vcuff/cZm8HQe/V7thRvUxNxRJfu26A1Qv/9M+zOopCVrCOyqE9bp8N/A45D0+apxuSm9/rUgQ9jeeGicRt2vgzR4HaTKpbTpbq8zUSddS9unde+yRpdmutJwvSi4++53v2uPigvC+EGeBuK0lY3iANH1sXbtWq+tgbpgaaae9wPFNIu6fxaU2qF0BW1aWKXa2tuwNO6YMWNsC0iWOg8Kgqa1DTAr247xRm2i2gNLNwq/Y6LHXW2DvaDrs239D480qhxsTeGNqL3zrRqDu/JbxoHC1+tn180pOPLUHf0M8wqdpbAsRhr1FGjpTWj9+vWRBRVJny9qI0aMsK0it1MStaTP1xMFCe4giRZkYA/J5hXn/bqSXbt22VZR2BoDzUpz7LSeQneDTxqg18q2jZ4LWy+9FzZDaWZQWq4XvTfpPcrPOCpw0/WgdTX8uYP62M0333x4TmZwfz99blqvmzj7Z65s10oFqNPjZhW72zwRSJpGbZa2fcB78SdBKzK9VMd8n9NDArgPFd7oFhVuUP7NSfXiiws3povf/4P3mNP5R69sRVmKIGXz0hzkVRtoTZ06NZJ5AkmfLy7uxHr/TT4uSZ+vEgUFeiMPavSoP2qX1P1ar+kgVR655cbNRj+f7lMquXQX2wt6+eWXy36/NClbNbPwvteI0sygNF0veo+aP3++F6wFf25/ypWCfz+4U1bPD1b1ud/85je9dlbV2z9ztUyAh8bTCznOR7OtGqhJsX6Q4z8WdP7JdHTu994MwvY1UedPpUBx02i0Oig6V1hWrhb6Xv4bnUadlhR+v+CEYC0coQ7szYWgzw3ypiVc8hSFngItDSSp7CipwC7q88XNHVV2R52jlvT5uqPX2UynU6jXw635/fYIjdSM9+uwveSaeR6eyuh0L3LvU2FZ82pWedR7ejO+z7ulmbo2vtcEgzRpu15UgadKPL13+VO0/ClXftCnv3fwWlF5Z5oHBqoRVf+MAA9IkEb4Hip0Fm4rdBqu6nzTC4jcoEcv7ut60WlQMBXspFzVuc/LqKmTEnYulVZGUW6kLN09hUd39LursxSkzu6MQpCXBtUEWvq45hBHUT6S9PmS4q+AlpSkzxdGb9KLcx8omZeq16IGPVg5s3klcb/OCgV3ixYtKssYaRl7ddrdhY38+VZpE16aeaBXpXQIp2vk85//vD0qLsbTrFMPqpVk/4wAD2ggBURhma1JhRe2Jt5GQW88Gp1WJ+XaQidFgViQgiyVWPYmyNMIZjVlZvo53A07NRLazFk8fy5JNYFWFG8+SZ8P8aoU3DW6pAu1SeJ+nVaaI+UOpqhkfOXKlV57+fLlZeXREydO9AayarFt2zbbaoyFgekIoo55sGIF0fniF794eMBAWeDgYjzaz1rvk35m94EHHjArVqxoigxvLeLsn2UmwNNNQn9wdXyCf/Tgo1I9OOLnp+DjeqS1sxuW2ZI45qfpZqJATCOOQbqJqHysXk86QVslD3aWrxZ4jol/wYJa+YFWd3NJNCKtVXyjDuySOh+SoQ4hwV12JHm/Tgtl4txSaGXugiXjKqvbunWrPSpSQKh9zaqlALGR5XlaICm4kFizlGZmkVa5V7/Op9JfUcCn90ntZx18n9S1NG7cOO/9U2WfaRR1/yz1AZ46RYraNdqtP7hGvAnkkDZhmS29kcSV2dJI9BPOqKM6ofV2UrbVMIKpkieXu3l6I1UbaOnj1a7iW0nS50NyNIci2CEkuMuGpO/Xze7ss8+2rSIFYX7mLkgBnxug6Z4XthdamEaugKu/rbtAEqWZ8VAQF9yrWoMF/oIrHR0dh98nVc2i90YFgkru+BliHac1yJOo+mepDfB0AegPqE6PonYg7bZ1lgdJcWa27smXZ9LGh6ySGdRdKcrbTslST9zO0cBeTCSOSqVAS28cSQZ2cZwPyVJwpzkUPoK7bEn6ft2sNPfOL6PzPfnkk7ZVSsFdcA8036WXXhpaqun27Rq1QJJ80hxZUpqpDjilmfFob28/XO6rIM4fLAhminUt6fP890ZVtWhbBZ+CPL3HplU9/TNXKgM83UwUxQfTt77t27d70b6ieT+y9x+6UIBm9RtTvkpb8A0laupounNJgiuD1aIVOq379u2zrWQkfb6kuPNw4pb0+USlXMHgTlTWR3CXHUnfr5uVW5op6od1Rx1x9+PqzC9cuNAedRk+fLhtFT3yyCO21Xh6rwzuZ9bdQ3ucudzPSWp7pDRQaaYf2Ovefdttt3lt0ZxNnxZccbPByvJpYNRXzUqtzSqK/lkqAzztneHeVPxUrTZAV7Svmwij3ki70W3xjgi/FNJJ6Yn27coi3TM0v02DQ+5gkDogerNQKbg+XuvCAGGSPl+zcMusRo4caVvxSPp8WmxDG2IHqZSL0f7si/p+7QY40uhFRlwnn3yybVVv8eLFZQMv6tO5ZXWnnHKKbRUzNn6ZHsKl4XqpRO9zbmmm349XNs7P6snmzZttq9RTTz1lW+UZ4LSpp38WlLoAT39kd2U5jQapo0RA19zCFr6J8pHmdHya/CZkQZUotlloFpUCL9H9J6lAT6I+X6O5mcngm3Yckjyf5unMc5bM1yp7lbYPAbrjlj4qKHKzFmmk32Ht2rX2qIsqrbRYnujf4Gu1u7JPdEn79aIFd/y/ufr1wUV6gsFapd/LHdBr5X5h6gK8sLLM1atX2xaQLWGb6zbayyE/08Belia93YQT1WsJvKJ4E0n6fI3y6quv2lZRWIlXlJI831dyg0rK9JTt1vLXaA1R36/dbHMjFxnpTlhHu5rMifbu1MCsa8qUKd68vmB5nTr0999/vz1qDHf/smof2uPM5X5ONVsMVSMN10t3tNCOPxddf29lebtT6fciy9sldQHeqFGjbKtIHSEyd8iCoYGl1H2vxxz4DM3XHpj93JTPIxpd4+Rf97y/bOLNnqsJvLQQihZMSSrQi/J8SQsrGYrz90jqfJpHE9wOQdbk37YtZE0S92t3MOKZZ56xreaxe/du2+oSVioYRiWZbmddGZylS5eWZKO0vQL9vJ6l4XoJo4BeC+34lN3NQqa6t+rpnwWlLsBzU9BIj+CCN3E81DFOs7AVkp4MCaaionIyt5Pirm4ZZmchGHPn4Z1Vw+Tfes/baMHAKziR26fRx7gCvSTOlxSNsLpv3gpa45LE+VSi7C6hvjX/LouqZFjc92t1et1y4macT6X7lDIuQcrgVVtOvmTJkrKvD1IAGCzVQ7i0XC9hgpvk671O2d1KKlVh6P8hC6LoJ8UW4GV1BTggDnoxuyskqdwnzg6iln12hS39HeYhU7qXnTIXWlyiGu55FSymqSOsDo0CKy3qVCnw2rhx4+H5JL2R9PmS4M6nOeOMM2wrHnGfz11URTaGLHONbEjifn3xxRfbVpEGKZq1/Ozpp5+2rS4zZsywrcqUmQubjycK/LTBNdmcnqXpeglytz5Yvny513YFV15VMNhdsscN/vT+mUa96Z/5YgvwwuY9RJF9c9P56txU833V8dHnBg0ZMsS2gMaa3TbQtrrc4wRRUQrLOGhJXjdw686j+XfL5ptclSvcdHvYz04do0lt/exR0V0RzT9ImjomlQIv3ZemT58eWeCV9Pni5M6n0c+u5bHjEuf5tPlscDNzeSL/npfpRjbFfb/W9TlhwgR7VKRl4ZvVunXrbKuLsuTV3od+8pOfhAZx6shXytagKG3Xi8+da6k9ErsL5t1M8eTJk22r1Pjx422r8nYdzay3/TNfbAGemxrWC1XbG/TWs88+a1tdKn1fXfiq81bHx6WP6QHEQRmtngIe0YbIbgdRqfhaVt5TJ7PalSz1eYtC9ub5YeF8e6ucQ6LPuzNf+vMpi/c/KgR5et5dhEId4bQvH19t4BVVGWXS54uDfgf3Z7/wwgttK3pxnu9yU7rfnTyVgpJjlEryft0TBUbBcjt1bLtbFr4Z6PUVFlDoPtRTkKf7lLJ03fXFtGx+Vsru4pK260X09543b549Kq6y3lO2TXMxfQoM3WtG10mw/L5Zgtyk+2e+PkceeWTpxiMRUQZP/9kf+tCH7DPGjBgxwvzt3/6tOe6440yfPn3Ksnz6/I997GPms5/9rHnjjTfM66+/bj/SZceOHebTn/606du36z9L3/ev/uqvzB//+MfD31Pf63Of+5y37Kq/l4ou+kOHDpV87YknnuhF+fqYasbDzlmNv/7rvy7Zs0X+4z/+w/zqV7+yR9FK+nyo3Zf7DDIzcwPN6bkjzHDTxxxT6Dy8bPc1UUfikrZ+5rpCwPOXzgtfJYv/K/9W2SaXlVzbNtD891x/b9RnVCHQUu32h0zX+UQdmKsKH/984XP7Oqtear7QN2vMpL1Y+N4nFs5zUuH386l9vkoLcjmvi/uG6Tz8u3658H9xfOHzffo9l+b31/R7NjPdO370ox+Zn//85959T/eloKhfn0mfL2qvvfaady/36Xdoa2sz//mf/2mfiVYc59Nrys1Iy9mF17TKNmt9aPPs4Gs2Ddz3ou7K7ZpdkvfrStQPufbaa0v6Kd///vfNT3/6U3vUnPTznX766WX3Ic3HU39MAcjvf/97r6+ljvk//MM/mC984Qvm7//+783AgeUZUZ/+H8477zxvf7N6+2eN9JHCe97f5EoHge5yBkd7I63Xy1e/+tXDpfKqzNMe1j3R76SBuWOOOca7ZnRtvfjii951oYECfU///0EB43e+8x2v3WiN6J9JbtCgQbH1rvSi1mpI9dDCAt1F8yqt0aTMWmg1uvb2di/b190EewV61VxkYVRHHEw1S6XfobeSPh9q940+x5SN9PZEnYX2/J9qHqmp51w+7dPVm6XcNaI90XkD60m9v2ea6I1X81D8+03cr8+kzxcF9z6mzp/u0coIxCHq8+lNuT1ktLVeWlI9bRlt9/9UC16lUZL360q0aFJwOok6v9OmTbNHzU/3ne76WD1Rp1yZ9i996UslGSnR/4MyPmmbjxd2j9DWCFFJ4/WiYExVKL4FCxZUPV9QgwPaQsGdchWk68jdNL+RGtU/i61EU/QH04s96hekVtip9vvqc9avX++tRqe2JnC68/h8/fqVj8QCSdDor1LwMzvfTCzoUVmROpS93adrSeHr7+w8UPUItm5YWQ/uREFDpVLKqCV9vigsW7as5H6sTt3ChQu7LdfqraTPh2yK636tfk2w46oBCJUvponuQbUujKIBeP3u6pRrUGrTpk32I100F6+jo4PXakAarxf9/RTA+1RGWctiMLqu1J9Xvz64jZB+dyVp/Oso7aLon8WawQtS1k2THwcPHuy9UN3RGf1x/DfePXv2mA0bNvQ4qqoLRRMtzznnnJLvqQtAaVul9MOWW9XXadR27Nix3tfo3Dt37vQeK1eutJ8F9I4WFDkz19ecaPp4ZRra0yS47K0WKXnJvO/N1ykuWlJ/R8E/14cK5xjd1tcMKPzr7sml8+3N5c3znYe85byjXrlSZUzn547ylg8/qfA7B39X3ay0ApT20GPxCQTpfqxFGoLvCXoviGu0PunzZV1WMnhJ3q/DqFPq/t+pE5vmLQL8ft/xxx9fsliKXmeahrNr1y7zyCOPpGK1x2aT1utlxYoVhzfCV4CmYC3rGtU/SyzAAwAgjMr5Fy1aVBJ0qROoEfs4On9Jny/LshLgNYoGHDR9xO/0+tIe3CEeXC+oVmyLrAAAUA0tjqXRfC2m4E+S1yT6iy66yFu4QQukRLnAQtLny7KsLLLSCFr98MYbbyzbCoDOOsJwvaAWZPAAAE1BC8VoTpzbgRHNr9BDy39HVUqZ9PmyiAxebbTAhBYh0b5lwQyyaLqIAuSwqSVoTVwvqBcBHgCgqShomDhxYlmHxhd1EJH0+bKEAK967oqHQRpMWL16dWwryCJ9uF7QG7GuogkAQK202qUWwtJy1xqljlvS5wN86qhr5T9t0URnHT3hekG1yOABAJqaVuMbM2aMGTZsmDeiHXeWKOnzpRkZvOopI6MsseZ47tixg/JfVMT1gt4gwAMAAACAjKBEEwAAAAAyggAPAAAAADKCEk0gYSd+bpn54LhL7FGXPZtvNXsfvdMeAQAAALUjwKuCVlarh1Y6evDBB+1R9ZI+H5JFgJc8Fs3owv0MQK20yfb06dPtUWturs2iJ0gTSjQBZJI2sb7pppvMAw88YGbPnu0Fdd3tKQSg9y7OHWUWtg3yHlHQ97s2N8B8o88xZk3bB81DfY4teej56wrnOj93pP2K+g3NtZWcTw/3fHcVfgY9f1Wuvzkld4T9ytYQXClVQU2rBXe+E044wdt4XMHuxo0bzYoVK7zNyIFmQ4AHIHO0dPvy5cu9oK67zauBJCiDGXxkqTPoB0UK6O7tM8TMK/w7sXA8NNfHfkbtFDgtbjvaC6j0/T7b1t+MMUeYk0K+p56fVDhfe+HzFXjVG+iNz/UtBG+DS86nh0u/l56f1jbArGw7xvu99X+QdcreDR061B4Zs2XLFttqHvrbuwF5LQ9dP/UYN26cueGGG7xAT4OKQLOgRDMi7l5AEmeJUdLnQ3Qo0YyP3mAXLlzojbK6tEGsHpTV9Iz7WXTcEtW0/14KaM4vBFXjC4HOx7sJqP7L/Nl8+f0/2qPaqKOugK1ea/IHzD2d79ij6vTmnHvz75uO/Nvmqfwh+0z2KFPlB3i6d06dOtVrN5PeXjfVXrMaoFEGb8KECWWDhwcOHDBr1641d999t30GaBwyeAAy4dxzz/Wydm5w9/jjj5tZs2aZuXPnemVFBHdI0iuvvGJbRdu2bbOt9FBWTWWJKpNUpmtmbkC3wV3UXioEUHd2HjCLO98yF7//h8OPjs795on8e/azuuhnu7ytvz2qnc73w0KAqPNd1bnv8PnmdP7RCx4V0AUpqzczN9AeZU8asndJ0uCMSv8vvfRSbx6igjqfAj5NB9D/GdBoBHhAwl7+3vXm6a+OK3uQvaufgrtFixaVjKgqkFuwYIFXPvP888/bZ4FkBTuAkrYBBpUhqhxRZYlhZZJxOGDyXpCloGpm55vmrvw75lEnmHso/65pLwRhCrpc02qcI/d24XxbC9/PP9+3Ct9T59ub77SfYczO/J+9zOCX83/ygsAg/b8oAM4i5t51T/8XM2bM8CpDgjQ/jyAPjUaAByDVNLrsBnfKmmgk9bHHHrPPAI2xb98+20pfcCdh8+mUxVJApMzags4/eeVtUfll4Xtda4MsBVU9UdClYDBogMmZqbl+9qhnKq9c0rm/qvMp6Ls1v98edVHZata42butW7faVvPTNRnM+Pb0qLekWK9pVYeoUiSIIA+NFluAp+VkgxPLdQwgm06df48Z+/Xthx86TkpHR0dZcDdv3rxIO9Pcz9AddYA1R8ntDPuCAd4bb7xhW6U0r0fXVLN2CNVZVhClskiVLV5VCMAUECmzFvXcMwVQwcxZNe41B22rS5wlpAoE3fLQpLKbSQpm75SJ3rBhgz2CS5UibpA3ZcoUr7oEaAQyeABSS4tzBOfcqROyZMmSVGZKkE6TJ0/2AjuN2K9bt867JsMCvTAK6O68806vc6gtPE499VT7keahzIYeyqipLLLW4CsJ+pncLKKyeFodMy4vO2WaWROWveO+Wplexy+88II96pqTBzQCAR6AVNKKme7Ki5s2bWK+HRKlZdJ96tDpmlRGT6tl6hp95JFHvIUp9Pjxj3/sdZrnzJnjfY6CwuAAxdixY20LtXq+szyTOLAQ5KE+bvaOuXfVaW9vL5l3q9c3pZpoBAI8AKmkye1BGjmlE4KknXLKKbZVSkup/8u//Is3D3TZsmXeQ8unf/GLX/RKt8KyfAoQr7jiCnuENHFX10wzsnf10/+TO1exu9c7EKfUB3gaIdXNSMvWag6Dyl2Cc2X00EipNqHUqCkvMsQtOBet2of2xqtXNfPfhp4/zYyc+R0zesGWss/VuY/68Mn2M9NBr3t1oIOUHUk77mfpov9/dea0il5YB/jJJ5+0rS5h85g04q8BCmX53G0V0JxGt5WWf0a50Eyjkb3rHf1/BbN4GrhRKTeQpF5vdK4OR9T0Rjdz5kx7FE6dm4kTJ9bcwdGLTmVcUd+wkt6oN+nzoXoKnGr15vYHve0T6qEgrd9xo+yRMQd/96LZsfxyr63A7SPTlpd8PEz+0EHz+uObzJ7N/2qfCVfP79aT4M9bLff6V+c6is13uZ8VcT+rj/5+Z511lle2OXLkSG/T47CVXBW879mzx7z88steSXHaV3v9Rp9jzBjTtS2Bgp16VyWsl/sziLY9qGZlzFppCwZtHRGkffPcrRzSSBnk4LwxDToo+9zs3I3OG3ENBun+FRyEjOo9CqhWajN4Z555Zl2j1xpJ0bwHymCQdYPPmmxOnfuDHoM7yfXtZ4aef5X3NWlw9tln21bRc889Z1vpxP0sG9SJU1CqDrGC+jfffNN+pItW1dPHlKVVYM5WHtFwgzuVTMYR3MnsttKNzbVlRBaCO7nwwgtti+xdb9x33322VaT7OytqIkmZmIOnkhaNMmnEZNasWeaCCy44/NBz7iaUcvXVV9sWEK2wTczdR9yOPu08M+Lydi9wk0P7dpvf/WjN4fO/sqHd7H/xCe9jQUMv+Efbal56k3SDIXd56jTjfpYNKrW9/fbbveysT9eutvDQ3xHRubytfJPxR2IIuIbm2szitqNLgkltev7tkM3W00jbdWg1Vx9z7+qngZtgmaYouw8kpdclmt1RCUrwRlFNmVItNAdF+wtpPkM1q+aFlQCtWrXKm/QeBUqaUAu31DHqEs0+R/Y3fQcP944rfe9T/vl7pv8JH7NHRQr+9m3bbI+qU6lMNGrqMGvSepCCnzhxP+N+VgsFcsHN91X6q0EILaPuc4/TrNElmne1fbBkQ/YDJu9tlh7Flg4K6k4v/G6jC49Jbf287Rd8TxSCyBX5t5ty64h6BO9zCk60kFVaAjy3RDNI16Myutra4ufmUGyZXVfc7xtAJanN4M2dO9crcal2SfSwMoMxY8bYFpAdCrT84G7vo3dVDBxf/9kPbKvLwJHNPco4YsQI2yrKwqIU3M+yww3uRIG7glV18HyanxPM7qE+V+X6lwR3sqXzYN1B17W5AeahPsceftzVNtgLHD7b1v9wcKdgYU3+gGnvfCszwV2Ws3cafJiYO8pMaxvgzZ1UFjbOPRJ9u3btsq2i4JYoQNxaZpsE3aiCb64ybNgw2wKyRyWYPS2aEpap6zvoWNtqToMHD7atIrcMphVwP2tOKh12gzuV2/qBuxZdCVImmj2y6qdOugKvIJVMalP2OCkj9FJCWaCkXHbZZbaV/bl3H88daZa2fcAL5uPkBsi6L9Qz1xqoR8sEeGg8f5n3uB4agUSR5tztWvNP9qgyfW5Q3yHH21ZzckdB3VFSoBHUcevo6CgJ7tyOsubluPNFWSSnPiqdnJkbWFIyqdLMW/P77VF8lA1SgLCwbZD3c6Sdm737xS9+kbrsnRa5ufj9P5Q8FnT+yXR07jdb8u96WVeXBgf0N4zL7t2l763CPDwkhQAPyKDf/vsq2+rZ+++9Y1vpEOxAA83ik5/8pDn22NLs9wMPPFDWUV63bl1Z1nn8+PG2hWp4i53kPmBOcubd3dz5Vq/nVyn7FwwSrurc522BoCBB5whSoPettg8mUu4Xp2D2TsL2akyjp/KHzEOFv9tthSDvqs43vbLasL/hdTEGeUCjEOABGaMFTmpdJAVA72iBm5tvvvnwnFAFditXrvTaQSrX1Pwmn/YxzMpiK0moFNypQx81zbFTdkhBghZu+WFn6YCYMoiLEprTFQc3e6cMc7VzgdPmnsLfTteJG+RNKgR5WqQFyJLMBHijR4/25jJo5TWtXBRWwhe8iSF5weXe43iwgiiygvtZOqkEU9sgqJO8ceNG+2w5lW1qu4sFCxaEBoHo3sJCMJVUcOdSsKcMnzJBQQryVC6aRm72ThnmLNN1orJNV9hWG0CapT7A0+iTlhjXfkOay6CVyej4AEgj7mfpp8ydMnKVtqzQ52jlVDY5r43mSwW3Y0gyuAtSJkhbJAQp6ExbkNBK2bsgZWS1UE6QrqtTcqWb5QNpltoATxPatay43kjHjYt/42gAiAv3M6AyBXeaL+VrVHDnuyd/0La6jA8En2nQatm7oG2d5Rvhn2PSPZcSCEplgOevVqayPJfKXjSnQaVNs2bNKinhc5cVB5A+WdsWgfsZUJn2ugsGd6Iyu0YFd6Jzu3O5tPx+Wmi/xlbM3vl+Y8pX1QyuyAqkXSoDvPnz55ctla7OjjpAKnvRnAbNx2qlmxXQKtyNzUeOHGlb6cT9DOieFr/QBtVBmgOnMrtGeykkSEiLz3zmM7ZV1ErZu+6Mbos2gzd8+HDb6rJt2zbbAuKVugBPNeOalxKkUe6ZM2fSAWpyYQtFRPnQtYHs27dvn20VpXnbBO5nQPc0J2qes4S9tivQHDjUT4s4Be87rZa9S4qqM4JUfZK2/QWRXqkL8MLKmFavXm1bALLu1Vdfta0iN/uVJtzPgO59JTeopGzupfz73nYF6J0ZM2bYVhHZu6KwzdB7w60ucatPgDilLsAbNWqUbRWplImRJ6B1hJW4pDV7y/0MCHdtbkDJdgiyJv+2bTWHofn0zdkie1c01Lm25PV8p21Fwx18fOaZZ2wLiF/qAjw35Y30CC4QEceDffBag5aWd8tc3DLHtOB+BpTTpuGfdbYc2Jp/t6GLqrhUPuoGCe7S+82I7F1R2IqnT5rori8tYuNOH2D+HZIUW4DnzpMBkF1/3v+GbSXjySeftK2iM844w7biwf0MSI67qIpsDNmWoJE+acpXzAxber+ZkL0rUnDurniq8swoBxAuvvhi2yrSoCT7XiJJsQV4YfNkohitdmuYtcxvNd/3mmuuKdsweMiQIbYFoDfee6P09X7UkOPNUR8+2R5F7/7777etIt0DrrjiCnsUPe5nQDK0WXhwM3PRpuI7882THQvLMGrLhIfMu/aoObnZOy1O1opmtw20rS73RPi30z18woQJ9qhoy5YttgUkI7YAz01FK1Wt5cB769lnn7WtLpW+r15o2kB4+vTp9pku+lgUnTSg1b29q/T1nuvbzxx/2Y32KHoaddboc9CFF15oW9HjfgYk43JTut+dPBVz6aOCSgVt1dDnLWo72h51+WHnO2ZvxHO4ouRm7zTfN0vTGrSdxtBcz11abZjvDiCotDbKlVk1ABcsz9TqmZs3b7ZHQDJiC/CUitYNJEg3l40bN5o5c+Z49ckuPafFEq6//nrvZhTmjjvuKNvoWN93xYoVJd9TbX0f1Zdrfpbo69yvVWfK7xR1d04Ale3bttkc/N2L9qho0KiPmzFf+4kZMfUmM/isyfbZLnpu6PnTzImfW2aOPu08+2z13LkjymjpjTUO3M/Qqr7R5xjzUJ9jKz7cDrOOwz7PfbiKnfTyxS9m5gaEfn1PD32/aujzlrZ9wNzbZ4gXACjgc79Wx/qYPs/dEFvzA+/KN/fWDW727t5777WtbNDf7K62wWZxIfjWxvjBv58CP318TdsHyzbM18qsSzrfske9p/vuxIkT7VHRpk2b2B4BicsNGjQob9uRU6dk6dKl9qg2t9xyS7ejSyrFmj17tj2qjjpn7e3tXgcoOIoVpP2ntLFwPdT5mjRpkj0qqvQ79FbS50O0xn59u20Vvbn9QfPy9663R7U5df49pt9xXasxKtDasfxye9Sz3n69TwHbCVcutke12bP5VrP30TvtUfXc14ECHr3G45hXwv2M+1krUoDnBnBRufj9P9hWkTrl7SHZsXotLnTcq9kQvTe/o/bla/atGxR03H777faoeP/QXptZUs/fUMFde/5PkWZe16xZU1I+rzL8adOm2SMgObFl8ESj3nqTjnrk4u677676++pz1q9f793M1F6+fHm3e5H069fPtgDUSlk8BWpJLriybNmyktezymIWLlwYS6ki9zMAPpX1KYBMw758Wc/e1UrzJVVSO7PzzUiDO93Hg8GdBhxXrVplj4BkxZrBC9Io9fjx483gwYO9BQrc5WP1QvA7Knv27DEbNmzocRRenbjJkyebc845p+R7quPz4osvmqeeesrrPLn0dRr5Hjt2rPc1OvfOnTu9x8qVK+1nAajXcZ+abQaePN4cMWiIt+CK5uQF5Q8dNO++8ZrXPlT49/Wffd+89cLPvONa6fWs0sXgPUX3knnz5kUejPm4nwHZoVUVz8z1NR/K58zotr5mQOFfdw8+rbK4N5c3z3ce8pbTb6YtGyppheyd+H/DE00f85HC3057FAbLffX3e8m8783nfDT/buTzJTU32i+f92kwTmX4QCMkFuABQFxUPrlo0aKSQEuBUUdHB0tTA2hZbvmzskyUPkdHA2wqlx83bpx9pojgDo1GgAcgE8KCPNFqm8rwteJ+TwBal1vdkNXsXaNoUa8pU6aUvecQ3KEZEOAByAyVI2kOnkocXVp0RA8tVx1X6SYANAuyd9HTysha2Er73LmBncrj165dG1pKDySNAA9A5qhjo6Wq3TdgnztXAgCyhOxd9NwVMoM0eLh69WoqRdA0Yl1FEwAaQatrauGRhx9+2BtVBYBW4m623eorZ8ZFgZ0yo9qShuAOzYQMHoDM06qXY8aMMcOGDfNGYMngAcgqsnfxUAZP/6evvfaa2bFjB+X+aGoEeAAAAACQEZRoAgAAAEBGEOABAAAAQEZQohmBEz+3zHxw3CX2qMuezbeavY/eaY8AAAAAIF4EeBEgwEsei2Z00UqR9ah3T6Qkz8ekdgAAgNpQoonU0CbWN910k3nggQfM7NmzvaCuuz1pkB3atFwby06fPt1s3LjRrFixwttsFgAAAOUI8JAK2rh6+fLlXlAX3NsHrWfcuHHmhhtu8AI9Bf0AAADoQolmBCjRjI868AsXLvSyOC5tMKoHZXs9U4A8adIke1RUb4lmNaI8n7J1yuBNmDChLLjXJuZr1641d999t30GAACgtZHBQ9M699xzvaydG9w9/vjjZtasWWbu3LnmjjvuILjLOAWFKs299NJLzfr1672gzqeAT+W611xzjX0GAACgtRHgReDl711vnv7quLIH2bv6KbhbtGhRScZGgdyCBQu88rznn3/ePotWooB+xowZXuY2SPPzCPIAAAAI8NCEhg4dWhbcvfLKK16m5rHHHrPPoFUp0Ff2VpncIII8AAAAAjx049T595ixX99++KHjpHR0dJQFd/PmzYu0FFPL72u5f/+hY6SLMrlukDdlyhQv+wsAANCqCPDQVLQ4R3DOneZbLVmyhHl2CKUg74UXXrBHXXPyAAAAWhUBHpqGVsx0V17ctGkT8+1QUXt7e8nCKxogoFQTAAC0KgI8NA0tnhGkzIwW1QAqUXZ369at9qhIpZqaywkAANBqItkHT3O0gg7+7kWzY/nl9siYoz58shlyzhQz6KS/NP3+4qMm17ef9/yf97/hfe5b/7W17hUn3XO/uf1Bb1XLoKNPO88MPvszhXOfYvodN8o+a0z+0EHz7huveT9HpZ/BPUc1wn6Oamm+W/DndP8/Zej508zRYyaao4Ycb/oOHm6fLX7uwd/uNL/7v6vNu7//tX22dtX8DFFS9u7222+3R0WrVq2KbX8zzbk77bTT7FExmJw5c6Y9io5+L80JO/HEE82wYcO8EkJ32wcFKLt37zY7d+40GzZsiKUcNc374FVDwdy6detK5m5qSwUGCAAAQKuJPcA77lOzzbGfmGqOGDTEO+7OO688a17e0F5zUFIpwFNgefxlN5pBoz7uHVdSKSBrpgBPv9NHpi0v+XgYBa+vP77J7Nn8r/aZcPX8bj2pJxh0AwIFOVOnTrVH9dMCKlGrJhicM2eOmThxYs1ZJJUaqiw16sAk6wGe6PtrQ3RfVNcQAABAmsRaojli6k3muItm9hjcSf8TPmZGfn6VF8BEYfBZk82oL9xRVXCXFvqdTp37gx6DO1GWdOj5V3lfkwZnn322bRU999xztpVOZ555Zl0lgspAabn/K664wj6Dat133322VaT/f1bUBAAArSa2AG/Y5P9phnz8Mq+tbJIyWq9saD+8CfjvfrTGHNq32/u4T6WGJ1652B7VT0HNiMvbDweWKsF844l7S87/6+/O8j5WDf9rKj3ipjJT/U5+eav+7/R/6J9fv9v+F5/wPhY09IJ/tK3mpU64Gwy5y9+nmbZ52LJli5dhmjVrlrngggsOP/Scu2m3XH311baFammPxOBiK3LWWWfZFgAAQGuIpURTAZ0fiKhc7zd3zu+29HL0gi0lc8hkz+Zbq56T5577recf8bKBfnCn493/pyP0/MGv7U1Jpbg/R9Qlmn2O7H/4/6nS9z7ln7/n/f5BCv72bdtsj6qT5Bw8lTNqUYwgBT9xinsO3ooVK8y+ffu8OXXVrAIaVtIY5RzEVijRlKTmVgIAADSrWDJ4fnCnjJKCgkrz6l6952bb6jJ4QjHzV49BH51wOLjb++hd5tf/9s+9WmykGSjQ8oM7/U6VAsfXf/YD2+oycGRzZzFGjBhhW0XKeKXd3LlzzU033VT1Fg9hc+7GjBljW6jWrl27bKvIXdAGAAAg62Ir0VQJ4a41/2SPuvfWCz/zFlgJUkCjksR6+MGlMnc9LTCSNgqYe/qdwjJ1fQcda1vNafDgwbZV5JbZtQItCKJsU5BW3URt3BVINaexnrmQAAAAaRVLgKcSzV3fnW2Perb/pf9nW12OGfsp26qdygmVucuSagNmKZvbOOR422pObpbFzcIA1dJ2Ey7m4QEAgFYSS4CnveVqKYs8uPuXttXlyCGlZXvVUnC553/fao8qCy6S0pv5d0n47b+vsq2evf/eO7aVDsG9ywAAAADUL7YSzVqElRVWs7VCmP2/+oVX9pklykjWukgKAAAAgNbTFAFemCMGls7Lqtb777Xe/C00v9GjR5trrrnGW0lSKz1qA3b3EVz9EQAAAKhH8wZ4dWbwgGZyySWXeFsm3H777d4G5p/4xCcI5AAAABCbpg3wgDTTyo3aJuGGG24w48bFvxE+AAAAIAR4aLisbYug4K6joyN0s/bt27ebTZs2eaWas2bN8j7Hf7jbJAAAAAC1atoATwuLoDW4G5uPHDnSttJp/vz5ZVs/KHhTQKcN0FeuXGkefPDBqjdBR/WGDx9uW122bdtmWwAAANlHBg8Nt2/fPtsqSvO2CZpzp3l2QcrazZw5k4AuAe6m5soOu5ufAwAAZFlTBHhDz59mW10O/nanbSHrXn31VdsqcrNfaRJWlrl69WrbQtzc7K+bHQYAAMi6pgjwjvqLUbbV5d29v7EtZF1YCZ0yYWk0alTptazSTDJ3yXEHB5555hnbAgAAaA1NEeANOHGsbRXlDx00v/v3VfYIWffYY4+VldG5ZY5p4ZYIIjnnnntuWXkv8+8AAECriSXA63Nkf9vq2dGnnWf6HVea9Xj7ZUbdG+3P+9+wrWQ8+eSTtlV0xhln2FY83Hl/SL+LL77Ytoo0aKDBAwAAgFYSS4DXd/BwM3Lmd+xRZcM+/RXb6rL34TtsC43y3hul8+KOGnK8OerDJ9uj6N1///22VaRM2BVXXGGPohc27y+K7Js750ubmlfzfa+55pqyDdCHDGGz/2rp/3jChAn2qGjLli22BQAA0DpiK9EcNOrjZvSCLV6GrjsKAt3s3ZvbHzRvvfAze4RGeXtXaWlbrm8/c/xlN9qj6Gme2uOPP26Pii688ELbip5buqfSPm1v0FvPPvusbXWp9H0VmGhD9OnTp9tnuuhjUQSdrUABcrA8U6tnbt682R4BAAC0jljn4CmTd9L0b5gTP7fMDD5rsn3WmOM+NducOv8eLwgMOrRvt3n5e9fbIzTSvm2by/Yi1N9rzNd+YkZMvank7+nTc1oRVX/vSoF9d9atW2dbRcpoqeMeB5XuuRuLa97fxo0bzZw5c7z5XC49p8Vfrr/+ejN69Gj7bKk77rijbON2fd8VK1aUfE+19X30O/srb+rr3K9VcOgHed2ds9Xp/2XixIn2qEibybM9AgAAaEWxBHgKDPa/+ITXVubng+MuMSdcudiM/fp273HcRTPLMncK7nZ9d7Y9QjPY+/C/2VaXIwYNMUM+flnJ39N/6Llhk7/i/b37fbh8ZdSeKIvnltVNmTIltsBm7dq1ttVFwZTOuXTpUvPwww+XPPTcDTfcYCZNmmQ+8pGP2K8opaAi7PuOGzeu5Huqre/jZ50UbM6YMcM8/fTT3rHPDzr1NV/4whfsswi67rrrSrJ3KpNVoA0AANCKYsvg7VrzT2bvo3d5K2L25K3nH/GCu3d//2v7DJqBsnh7Nt+a6IIry5YtK5nHpo77woULYylVVBbvlltuiTzTc/fdd1f9ffU569ev9zZCV3v58uXd7t3Wr18/24JP/8/BuYvKgK5axQq8AACgdeUGDRqUt+26KXsTpAzejuWXe20tzDF04gxvK4Rg1k6fc+iN18zrP/s+c+5SQGW1A08e72XwtOCKMrNBCuTfLfw9pbd/VwVzKl10szLz5s2LPBjzaUGX8ePHm8GDB3sLrgTPLQoc/MBrz549ZsOGDT3ub6ffY/Lkyeacc84p+Z76HV588UXz1FNPecGgS1+n0syxY8d6X6Nz79y503usXLnSfhY0d9HdWF7BMtk7AADQymIP8IB6aI7aokWLSgItBUYdHR0sfd/iFAC3t7d7Za9BBHcAAADasu7II2+y7bod999m2VbRn9/eZ/7w2AZ7BNRO2xjs2rXLnHfeeaZv377ecwMHDjQXXXSROf30081rr71mXn/9de95tA4tunPjjTd6GdEggjsAAIAiMnhoalpgRXPw3A69bN++3XtoOfy4SjfReFq5VIvNaJ+7sNJZLWoTVuoKAADQigjwkAraUkBL4bsdfJ87FwvZsGbNmrIN4H0K7levXt3jXEgAAIBWEus+eEBUtLqmFh7RdgHuXnFoLQrstHrm3LlzCe4AAAAcZPCQSlr1csyYMWbYsGFehocMXjYpg6esreZc7tixg3JcAACAHhDgAQAAAEBGUKIJAAAAABkRSQYPAAAAANB4ZPAAAAAAICMI8AAAAAAgIwjwAAAAACAjCPAAAAAAICMI8AAAAAAgIwjwAAAAACATjPn/MQ6OsLcvVyIAAAAASUVORK5CYII=;clipPath=inset(44.68% 0.33% 0% 0%);" vertex="1" parent="1">
          <mxGeometry x="-820" y="-1162.17" width="790.79" height="137.53" as="geometry" />
        </mxCell>
        <mxCell id="tCzJ1ZzGa24ECWB435qX-5" style="edgeStyle=orthogonalEdgeStyle;rounded=0;orthogonalLoop=1;jettySize=auto;html=1;entryX=0.5;entryY=0;entryDx=0;entryDy=0;strokeWidth=20;" edge="1" parent="1" source="tCzJ1ZzGa24ECWB435qX-2" target="tCzJ1ZzGa24ECWB435qX-3">
          <mxGeometry relative="1" as="geometry" />
        </mxCell>
        <mxCell id="tCzJ1ZzGa24ECWB435qX-2" value="" style="shape=image;aspect=fixed;image=data:image/svg+xml,PD94bWwgdmVyc2lvbj0iMS4wIiBlbmNvZGluZz0iVVRGLTgiIHN0YW5kYWxvbmU9Im5vIj8+CjwhLS0gQ3JlYXRlZCB3aXRoIElua3NjYXBlIChodHRwOi8vd3d3Lmlua3NjYXBlLm9yZy8pIC0tPgo8c3ZnCiAgIHhtbG5zOmRjPSJodHRwOi8vcHVybC5vcmcvZGMvZWxlbWVudHMvMS4xLyIKICAgeG1sbnM6Y2M9Imh0dHA6Ly93ZWIucmVzb3VyY2Uub3JnL2NjLyIKICAgeG1sbnM6cmRmPSJodHRwOi8vd3d3LnczLm9yZy8xOTk5LzAyLzIyLXJkZi1zeW50YXgtbnMjIgogICB4bWxuczpzdmc9Imh0dHA6Ly93d3cudzMub3JnLzIwMDAvc3ZnIgogICB4bWxucz0iaHR0cDovL3d3dy53My5vcmcvMjAwMC9zdmciCiAgIHhtbG5zOnhsaW5rPSJodHRwOi8vd3d3LnczLm9yZy8xOTk5L3hsaW5rIgogICB4bWxuczpzb2RpcG9kaT0iaHR0cDovL2lua3NjYXBlLnNvdXJjZWZvcmdlLm5ldC9EVEQvc29kaXBvZGktMC5kdGQiCiAgIHhtbG5zOmlua3NjYXBlPSJodHRwOi8vd3d3Lmlua3NjYXBlLm9yZy9uYW1lc3BhY2VzL2lua3NjYXBlIgogICB2ZXJzaW9uPSIxLjAiCiAgIHdpZHRoPSIzODguODRwdCIKICAgaGVpZ2h0PSIxMTUuMDJwdCIKICAgaWQ9InN2ZzIiCiAgIHNvZGlwb2RpOnZlcnNpb249IjAuMzIiCiAgIGlua3NjYXBlOnZlcnNpb249IjAuNDMiCiAgIHNvZGlwb2RpOmRvY25hbWU9ImxvZ28tcHl0aG9uLWdlbmVyaWMuc3ZnIgogICBzb2RpcG9kaTpkb2NiYXNlPSIvaG9tZS9zZGVpYmVsIj4KICA8bWV0YWRhdGEKICAgICBpZD0ibWV0YWRhdGEyMTkzIj4KICAgIDxyZGY6UkRGPgogICAgICA8Y2M6V29yawogICAgICAgICByZGY6YWJvdXQ9IiI+CiAgICAgICAgPGRjOmZvcm1hdD5pbWFnZS9zdmcreG1sPC9kYzpmb3JtYXQ+CiAgICAgICAgPGRjOnR5cGUKICAgICAgICAgICByZGY6cmVzb3VyY2U9Imh0dHA6Ly9wdXJsLm9yZy9kYy9kY21pdHlwZS9TdGlsbEltYWdlIiAvPgogICAgICA8L2NjOldvcms+CiAgICA8L3JkZjpSREY+CiAgPC9tZXRhZGF0YT4KICA8c29kaXBvZGk6bmFtZWR2aWV3CiAgICAgaW5rc2NhcGU6d2luZG93LWhlaWdodD0iNTQzIgogICAgIGlua3NjYXBlOndpbmRvdy13aWR0aD0iNzkxIgogICAgIGlua3NjYXBlOnBhZ2VzaGFkb3c9IjIiCiAgICAgaW5rc2NhcGU6cGFnZW9wYWNpdHk9IjAuMCIKICAgICBib3JkZXJvcGFjaXR5PSIxLjAiCiAgICAgYm9yZGVyY29sb3I9IiM2NjY2NjYiCiAgICAgcGFnZWNvbG9yPSIjZmZmZmZmIgogICAgIGlkPSJiYXNlIgogICAgIGlua3NjYXBlOnpvb209IjEuNDM0MDA4OSIKICAgICBpbmtzY2FwZTpjeD0iMjQzLjAyNDk5IgogICAgIGlua3NjYXBlOmN5PSI3MS44ODc0OTciCiAgICAgaW5rc2NhcGU6d2luZG93LXg9IjAiCiAgICAgaW5rc2NhcGU6d2luZG93LXk9IjAiCiAgICAgaW5rc2NhcGU6Y3VycmVudC1sYXllcj0ic3ZnMiIgLz4KICA8ZGVmcwogICAgIGlkPSJkZWZzNCI+CiAgICA8bGluZWFyR3JhZGllbnQKICAgICAgIGlkPSJsaW5lYXJHcmFkaWVudDI3OTUiPgogICAgICA8c3RvcAogICAgICAgICBzdHlsZT0ic3RvcC1jb2xvcjojYjhiOGI4O3N0b3Atb3BhY2l0eTowLjQ5ODAzOTIyIgogICAgICAgICBvZmZzZXQ9IjAiCiAgICAgICAgIGlkPSJzdG9wMjc5NyIgLz4KICAgICAgPHN0b3AKICAgICAgICAgc3R5bGU9InN0b3AtY29sb3I6IzdmN2Y3ZjtzdG9wLW9wYWNpdHk6MCIKICAgICAgICAgb2Zmc2V0PSIxIgogICAgICAgICBpZD0ic3RvcDI3OTkiIC8+CiAgICA8L2xpbmVhckdyYWRpZW50PgogICAgPGxpbmVhckdyYWRpZW50CiAgICAgICBpZD0ibGluZWFyR3JhZGllbnQyNzg3Ij4KICAgICAgPHN0b3AKICAgICAgICAgc3R5bGU9InN0b3AtY29sb3I6IzdmN2Y3ZjtzdG9wLW9wYWNpdHk6MC41IgogICAgICAgICBvZmZzZXQ9IjAiCiAgICAgICAgIGlkPSJzdG9wMjc4OSIgLz4KICAgICAgPHN0b3AKICAgICAgICAgc3R5bGU9InN0b3AtY29sb3I6IzdmN2Y3ZjtzdG9wLW9wYWNpdHk6MCIKICAgICAgICAgb2Zmc2V0PSIxIgogICAgICAgICBpZD0ic3RvcDI3OTEiIC8+CiAgICA8L2xpbmVhckdyYWRpZW50PgogICAgPGxpbmVhckdyYWRpZW50CiAgICAgICBpZD0ibGluZWFyR3JhZGllbnQzNjc2Ij4KICAgICAgPHN0b3AKICAgICAgICAgc3R5bGU9InN0b3AtY29sb3I6I2IyYjJiMjtzdG9wLW9wYWNpdHk6MC41IgogICAgICAgICBvZmZzZXQ9IjAiCiAgICAgICAgIGlkPSJzdG9wMzY3OCIgLz4KICAgICAgPHN0b3AKICAgICAgICAgc3R5bGU9InN0b3AtY29sb3I6I2IzYjNiMztzdG9wLW9wYWNpdHk6MCIKICAgICAgICAgb2Zmc2V0PSIxIgogICAgICAgICBpZD0ic3RvcDM2ODAiIC8+CiAgICA8L2xpbmVhckdyYWRpZW50PgogICAgPGxpbmVhckdyYWRpZW50CiAgICAgICBpZD0ibGluZWFyR3JhZGllbnQzMjM2Ij4KICAgICAgPHN0b3AKICAgICAgICAgc3R5bGU9InN0b3AtY29sb3I6I2Y0ZjRmNDtzdG9wLW9wYWNpdHk6MSIKICAgICAgICAgb2Zmc2V0PSIwIgogICAgICAgICBpZD0ic3RvcDMyNDQiIC8+CiAgICAgIDxzdG9wCiAgICAgICAgIHN0eWxlPSJzdG9wLWNvbG9yOiNmZmZmZmY7c3RvcC1vcGFjaXR5OjEiCiAgICAgICAgIG9mZnNldD0iMSIKICAgICAgICAgaWQ9InN0b3AzMjQwIiAvPgogICAgPC9saW5lYXJHcmFkaWVudD4KICAgIDxsaW5lYXJHcmFkaWVudAogICAgICAgaWQ9ImxpbmVhckdyYWRpZW50NDY3MSI+CiAgICAgIDxzdG9wCiAgICAgICAgIHN0eWxlPSJzdG9wLWNvbG9yOiNmZmQ0M2I7c3RvcC1vcGFjaXR5OjEiCiAgICAgICAgIG9mZnNldD0iMCIKICAgICAgICAgaWQ9InN0b3A0NjczIiAvPgogICAgICA8c3RvcAogICAgICAgICBzdHlsZT0ic3RvcC1jb2xvcjojZmZlODczO3N0b3Atb3BhY2l0eToxIgogICAgICAgICBvZmZzZXQ9IjEiCiAgICAgICAgIGlkPSJzdG9wNDY3NSIgLz4KICAgIDwvbGluZWFyR3JhZGllbnQ+CiAgICA8bGluZWFyR3JhZGllbnQKICAgICAgIGlkPSJsaW5lYXJHcmFkaWVudDQ2ODkiPgogICAgICA8c3RvcAogICAgICAgICBzdHlsZT0ic3RvcC1jb2xvcjojNWE5ZmQ0O3N0b3Atb3BhY2l0eToxIgogICAgICAgICBvZmZzZXQ9IjAiCiAgICAgICAgIGlkPSJzdG9wNDY5MSIgLz4KICAgICAgPHN0b3AKICAgICAgICAgc3R5bGU9InN0b3AtY29sb3I6IzMwNjk5ODtzdG9wLW9wYWNpdHk6MSIKICAgICAgICAgb2Zmc2V0PSIxIgogICAgICAgICBpZD0ic3RvcDQ2OTMiIC8+CiAgICA8L2xpbmVhckdyYWRpZW50PgogICAgPGxpbmVhckdyYWRpZW50CiAgICAgICB4MT0iMjI0LjIzOTk2IgogICAgICAgeTE9IjE0NC43NTcxNyIKICAgICAgIHgyPSItNjUuMzA4NTAyIgogICAgICAgeTI9IjE0NC43NTcxNyIKICAgICAgIGlkPSJsaW5lYXJHcmFkaWVudDI5ODciCiAgICAgICB4bGluazpocmVmPSIjbGluZWFyR3JhZGllbnQ0NjcxIgogICAgICAgZ3JhZGllbnRVbml0cz0idXNlclNwYWNlT25Vc2UiCiAgICAgICBncmFkaWVudFRyYW5zZm9ybT0idHJhbnNsYXRlKDEwMC4yNzAyLDk5LjYxMTE2KSIgLz4KICAgIDxsaW5lYXJHcmFkaWVudAogICAgICAgeDE9IjE3Mi45NDIwOCIKICAgICAgIHkxPSI3Ny40NzU5ODMiCiAgICAgICB4Mj0iMjYuNjcwMjk4IgogICAgICAgeTI9Ijc2LjMxMzEzMyIKICAgICAgIGlkPSJsaW5lYXJHcmFkaWVudDI5OTAiCiAgICAgICB4bGluazpocmVmPSIjbGluZWFyR3JhZGllbnQ0Njg5IgogICAgICAgZ3JhZGllbnRVbml0cz0idXNlclNwYWNlT25Vc2UiCiAgICAgICBncmFkaWVudFRyYW5zZm9ybT0idHJhbnNsYXRlKDEwMC4yNzAyLDk5LjYxMTE2KSIgLz4KICAgIDxsaW5lYXJHcmFkaWVudAogICAgICAgeDE9IjE3Mi45NDIwOCIKICAgICAgIHkxPSI3Ny40NzU5ODMiCiAgICAgICB4Mj0iMjYuNjcwMjk4IgogICAgICAgeTI9Ijc2LjMxMzEzMyIKICAgICAgIGlkPSJsaW5lYXJHcmFkaWVudDI1ODciCiAgICAgICB4bGluazpocmVmPSIjbGluZWFyR3JhZGllbnQ0Njg5IgogICAgICAgZ3JhZGllbnRVbml0cz0idXNlclNwYWNlT25Vc2UiCiAgICAgICBncmFkaWVudFRyYW5zZm9ybT0idHJhbnNsYXRlKDEwMC4yNzAyLDk5LjYxMTE2KSIgLz4KICAgIDxsaW5lYXJHcmFkaWVudAogICAgICAgeDE9IjIyNC4yMzk5NiIKICAgICAgIHkxPSIxNDQuNzU3MTciCiAgICAgICB4Mj0iLTY1LjMwODUwMiIKICAgICAgIHkyPSIxNDQuNzU3MTciCiAgICAgICBpZD0ibGluZWFyR3JhZGllbnQyNTg5IgogICAgICAgeGxpbms6aHJlZj0iI2xpbmVhckdyYWRpZW50NDY3MSIKICAgICAgIGdyYWRpZW50VW5pdHM9InVzZXJTcGFjZU9uVXNlIgogICAgICAgZ3JhZGllbnRUcmFuc2Zvcm09InRyYW5zbGF0ZSgxMDAuMjcwMiw5OS42MTExNikiIC8+CiAgICA8bGluZWFyR3JhZGllbnQKICAgICAgIHgxPSIxNzIuOTQyMDgiCiAgICAgICB5MT0iNzcuNDc1OTgzIgogICAgICAgeDI9IjI2LjY3MDI5OCIKICAgICAgIHkyPSI3Ni4zMTMxMzMiCiAgICAgICBpZD0ibGluZWFyR3JhZGllbnQyMjQ4IgogICAgICAgeGxpbms6aHJlZj0iI2xpbmVhckdyYWRpZW50NDY4OSIKICAgICAgIGdyYWRpZW50VW5pdHM9InVzZXJTcGFjZU9uVXNlIgogICAgICAgZ3JhZGllbnRUcmFuc2Zvcm09InRyYW5zbGF0ZSgxMDAuMjcwMiw5OS42MTExNikiIC8+CiAgICA8bGluZWFyR3JhZGllbnQKICAgICAgIHgxPSIyMjQuMjM5OTYiCiAgICAgICB5MT0iMTQ0Ljc1NzE3IgogICAgICAgeDI9Ii02NS4zMDg1MDIiCiAgICAgICB5Mj0iMTQ0Ljc1NzE3IgogICAgICAgaWQ9ImxpbmVhckdyYWRpZW50MjI1MCIKICAgICAgIHhsaW5rOmhyZWY9IiNsaW5lYXJHcmFkaWVudDQ2NzEiCiAgICAgICBncmFkaWVudFVuaXRzPSJ1c2VyU3BhY2VPblVzZSIKICAgICAgIGdyYWRpZW50VHJhbnNmb3JtPSJ0cmFuc2xhdGUoMTAwLjI3MDIsOTkuNjExMTYpIiAvPgogICAgPGxpbmVhckdyYWRpZW50CiAgICAgICB4MT0iMjI0LjIzOTk2IgogICAgICAgeTE9IjE0NC43NTcxNyIKICAgICAgIHgyPSItNjUuMzA4NTAyIgogICAgICAgeTI9IjE0NC43NTcxNyIKICAgICAgIGlkPSJsaW5lYXJHcmFkaWVudDIyNTUiCiAgICAgICB4bGluazpocmVmPSIjbGluZWFyR3JhZGllbnQ0NjcxIgogICAgICAgZ3JhZGllbnRVbml0cz0idXNlclNwYWNlT25Vc2UiCiAgICAgICBncmFkaWVudFRyYW5zZm9ybT0ibWF0cml4KDAuNTYyNTQxLDAsMCwwLjU2Nzk3MiwtMTEuNTk3NCwtNy42MDk1NCkiIC8+CiAgICA8bGluZWFyR3JhZGllbnQKICAgICAgIHgxPSIxNzIuOTQyMDgiCiAgICAgICB5MT0iNzYuMTc2MjI0IgogICAgICAgeDI9IjI2LjY3MDI5OCIKICAgICAgIHkyPSI3Ni4zMTMxMzMiCiAgICAgICBpZD0ibGluZWFyR3JhZGllbnQyMjU4IgogICAgICAgeGxpbms6aHJlZj0iI2xpbmVhckdyYWRpZW50NDY4OSIKICAgICAgIGdyYWRpZW50VW5pdHM9InVzZXJTcGFjZU9uVXNlIgogICAgICAgZ3JhZGllbnRUcmFuc2Zvcm09Im1hdHJpeCgwLjU2MjU0MSwwLDAsMC41Njc5NzIsLTExLjU5NzQsLTcuNjA5NTQpIiAvPgogICAgPHJhZGlhbEdyYWRpZW50CiAgICAgICBjeD0iNjEuNTE4ODgzIgogICAgICAgY3k9IjEzMi4yODU3NSIKICAgICAgIHI9IjI5LjAzNjkxMyIKICAgICAgIGZ4PSI2MS41MTg4ODMiCiAgICAgICBmeT0iMTMyLjI4NTc1IgogICAgICAgaWQ9InJhZGlhbEdyYWRpZW50MjgwMSIKICAgICAgIHhsaW5rOmhyZWY9IiNsaW5lYXJHcmFkaWVudDI3OTUiCiAgICAgICBncmFkaWVudFVuaXRzPSJ1c2VyU3BhY2VPblVzZSIKICAgICAgIGdyYWRpZW50VHJhbnNmb3JtPSJtYXRyaXgoMSwwLDAsMC4xNzc5NjYsMCwxMDguNzQzNCkiIC8+CiAgICA8bGluZWFyR3JhZGllbnQKICAgICAgIHgxPSIxNTAuOTYxMTEiCiAgICAgICB5MT0iMTkyLjM1MTc2IgogICAgICAgeDI9IjExMi4wMzE0NCIKICAgICAgIHkyPSIxMzcuMjcyOTkiCiAgICAgICBpZD0ibGluZWFyR3JhZGllbnQxNDc1IgogICAgICAgeGxpbms6aHJlZj0iI2xpbmVhckdyYWRpZW50NDY3MSIKICAgICAgIGdyYWRpZW50VW5pdHM9InVzZXJTcGFjZU9uVXNlIgogICAgICAgZ3JhZGllbnRUcmFuc2Zvcm09Im1hdHJpeCgwLjU2MjU0MSwwLDAsMC41Njc5NzIsLTkuMzk5NzQ5LC01LjMwNTMxNykiIC8+CiAgICA8bGluZWFyR3JhZGllbnQKICAgICAgIHgxPSIyNi42NDg5MzciCiAgICAgICB5MT0iMjAuNjAzNzgxIgogICAgICAgeDI9IjEzNS42NjUyNSIKICAgICAgIHkyPSIxMTQuMzk3NjciCiAgICAgICBpZD0ibGluZWFyR3JhZGllbnQxNDc4IgogICAgICAgeGxpbms6aHJlZj0iI2xpbmVhckdyYWRpZW50NDY4OSIKICAgICAgIGdyYWRpZW50VW5pdHM9InVzZXJTcGFjZU9uVXNlIgogICAgICAgZ3JhZGllbnRUcmFuc2Zvcm09Im1hdHJpeCgwLjU2MjU0MSwwLDAsMC41Njc5NzIsLTkuMzk5NzQ5LC01LjMwNTMxNykiIC8+CiAgICA8cmFkaWFsR3JhZGllbnQKICAgICAgIGN4PSI2MS41MTg4ODMiCiAgICAgICBjeT0iMTMyLjI4NTc1IgogICAgICAgcj0iMjkuMDM2OTEzIgogICAgICAgZng9IjYxLjUxODg4MyIKICAgICAgIGZ5PSIxMzIuMjg1NzUiCiAgICAgICBpZD0icmFkaWFsR3JhZGllbnQxNDgwIgogICAgICAgeGxpbms6aHJlZj0iI2xpbmVhckdyYWRpZW50Mjc5NSIKICAgICAgIGdyYWRpZW50VW5pdHM9InVzZXJTcGFjZU9uVXNlIgogICAgICAgZ3JhZGllbnRUcmFuc2Zvcm09Im1hdHJpeCgyLjM4MjcxNmUtOCwtMC4yOTY0MDUsMS40MzY3Niw0LjY4MzY3M2UtNywtMTI4LjU0NCwxNTAuNTIwMikiIC8+CiAgPC9kZWZzPgogIDxnCiAgICAgaWQ9ImcyMzAzIj4KICAgIDxwYXRoCiAgICAgICBpZD0icGF0aDQ2IgogICAgICAgc3R5bGU9ImZpbGw6IzY0NjQ2NDtmaWxsLW9wYWNpdHk6MSIKICAgICAgIGQ9Ik0gMTg0LjYxMzQ0LDYxLjkyOTM2MyBDIDE4NC42MTM0NCw0Ny4zNjcyMTMgMTgwLjQ2MTE4LDM5Ljg5MTE5MyAxNzIuMTU2NjYsMzkuNDgxODEzIEMgMTY4Ljg1MjM5LDM5LjMyNTg2MyAxNjUuNjI2MTEsMzkuODUyMjAzIDE2Mi40ODc1NCw0MS4wNzA1OTMgQyAxNTkuOTgyNTQsNDEuOTY3MzIzIDE1OC4yOTYzLDQyLjg1NDMxMyAxNTcuNDA5MzEsNDMuNzUxMDQzIEwgMTU3LjQwOTMxLDc4LjUwOTE2MyBDIDE2Mi43MjE0Nyw4MS44NDI2NzMgMTY3LjQzOTA3LDgzLjM5MjQ1MyAxNzEuNTUyMzQsODMuMTQ4NzgzIEMgMTgwLjI1NjQ5LDgyLjU3MzcwMyAxODQuNjEzNDQsNzUuNTA3MDYzIDE4NC42MTM0NCw2MS45MjkzNjMgeiBNIDE5NC44NTc2Myw2Mi41MzM2ODMgQyAxOTQuODU3NjMsNjkuOTMxNzIzIDE5My4xMjI2NSw3Ni4wNzIzOTMgMTg5LjYzMzE5LDgwLjk1NTY4MyBDIDE4NS43NDQxLDg2LjQ4MjI4MyAxODAuMzUzOTYsODkuMzI4NDMzIDE3My40NjI3Nyw4OS40ODQzOTMgQyAxNjguMjY3NTcsODkuNjUwMDkzIDE2Mi45MTY0Miw4OC4wMjIzMjMgMTU3LjQwOTMxLDg0LjYxMDg0MyBMIDE1Ny40MDkzMSwxMTYuMjAxMTYgTCAxNDguNTAwNDcsMTEzLjAyMzYxIEwgMTQ4LjUwMDQ3LDQyLjkwMzA0MyBDIDE0OS45NjI1Myw0MS4xMDk1ODMgMTUxLjg0MzcyLDM5LjU2OTU0MyAxNTQuMTI0NTQsMzguMjYzNDMzIEMgMTU5LjQyNjk2LDM1LjE3MzYwMyAxNjUuODY5NzgsMzMuNTg0ODIzIDE3My40NTMwMiwzMy41MDY4NTMgTCAxNzMuNTc5NzMsMzMuNjMzNTYzIEMgMTgwLjUwOTkxLDMzLjU0NTgzMyAxODUuODUxMzIsMzYuMzkxOTkzIDE4OS42MDM5NSw0Mi4xNjIyNjMgQyAxOTMuMTAzMTUsNDcuNDU0OTMzIDE5NC44NTc2Myw1NC4yMzg5MTMgMTk0Ljg1NzYzLDYyLjUzMzY4MyB6ICIgLz4KICAgIDxwYXRoCiAgICAgICBpZD0icGF0aDQ4IgogICAgICAgc3R5bGU9ImZpbGw6IzY0NjQ2NDtmaWxsLW9wYWNpdHk6MSIKICAgICAgIGQ9Ik0gMjQ5LjMwNDg3LDgzLjI2NTc0MyBDIDI0OS4zMDQ4Nyw5My4xODgyODMgMjQ4LjMxMDY3LDEwMC4wNTk5OCAyNDYuMzIyMjcsMTAzLjg4MDg0IEMgMjQ0LjMyNDExLDEwNy43MDE3IDI0MC41MjI3NSwxMTAuNzUyNTQgMjM0LjkwODQyLDExMy4wMjM2MSBDIDIzMC4zNTY1MywxMTQuODE3MDcgMjI1LjQzNDI1LDExNS43OTE3OCAyMjAuMTUxMzMsMTE1Ljk1NzQ4IEwgMjE4LjY3OTUyLDExMC4zNDMxNiBDIDIyNC4wNTAxNiwxMDkuNjEyMTMgMjI3LjgzMjA0LDEwOC44ODEwOSAyMzAuMDI1MTMsMTA4LjE1MDA2IEMgMjM0LjM0MzA5LDEwNi42ODggMjM3LjMwNjIxLDEwNC40NDYxNyAyMzguOTMzOTcsMTAxLjQ0NDA2IEMgMjQwLjI0MDA4LDk4Ljk5NzU0MyAyNDAuODgzMzksOTQuMzI4NjkzIDI0MC44ODMzOSw4Ny40MTgwMDMgTCAyNDAuODgzMzksODUuMDk4MjAzIEMgMjM0Ljc5MTQ2LDg3Ljg2NjM3MyAyMjguNDA3MTEsODkuMjQwNzEzIDIyMS43MzAzNiw4OS4yNDA3MTMgQyAyMTcuMzQ0MTcsODkuMjQwNzEzIDIxMy40NzQ1Nyw4Ny44NjYzNzMgMjEwLjE0MTA3LDg1LjA5ODIwMyBDIDIwNi4zOTgxOCw4Mi4wODYzNDMgMjA0LjUyNjc0LDc4LjI2NTQ4MyAyMDQuNTI2NzQsNzMuNjM1NjIzIEwgMjA0LjUyNjc0LDM2LjU1NzY5MyBMIDIxMy40MzU1OCwzMy41MDY4NTMgTCAyMTMuNDM1NTgsNzAuODI4NDUzIEMgMjEzLjQzNTU4LDc0LjgxNTAxMyAyMTQuNzIyMiw3Ny44ODUzNTMgMjE3LjI5NTQzLDgwLjAzOTQ2MyBDIDIxOS44Njg2Niw4Mi4xOTM1NjMgMjIzLjIwMjE3LDgzLjIyNjc1MyAyMjcuMjg2Miw4My4xNDg3ODMgQyAyMzEuMzcwMjMsODMuMDYxMDUzIDIzNS43NDY2Nyw4MS40ODIwMjMgMjQwLjM5NjAzLDc4LjM5MjIwMyBMIDI0MC4zOTYwMywzNC44NTE5NTMgTCAyNDkuMzA0ODcsMzQuODUxOTUzIEwgMjQ5LjMwNDg3LDgzLjI2NTc0MyB6ICIgLz4KICAgIDxwYXRoCiAgICAgICBpZD0icGF0aDUwIgogICAgICAgc3R5bGU9ImZpbGw6IzY0NjQ2NDtmaWxsLW9wYWNpdHk6MSIKICAgICAgIGQ9Ik0gMjg0LjA4MjQ5LDg4Ljk5NzAzMyBDIDI4My4wMjAwNiw4OS4wODQ3NTMgMjgyLjA0NTM1LDg5LjEyMzc0MyAyODEuMTQ4NjIsODkuMTIzNzQzIEMgMjc2LjEwOTM3LDg5LjEyMzc0MyAyNzIuMTgxMjksODcuOTI0ODUzIDI2OS4zNzQxMyw4NS41MTczMjMgQyAyNjYuNTc2NzEsODMuMTA5NzkzIDI2NS4xNzMxNCw3OS43ODYwMzMgMjY1LjE3MzE0LDc1LjU0NjA1MyBMIDI2NS4xNzMxNCw0MC40NTY1MjMgTCAyNTkuMDcxNDYsNDAuNDU2NTIzIEwgMjU5LjA3MTQ2LDM0Ljg1MTk1MyBMIDI2NS4xNzMxNCwzNC44NTE5NTMgTCAyNjUuMTczMTQsMTkuOTY4MTQzIEwgMjc0LjA3MjIzLDE2LjgwMDMzMyBMIDI3NC4wNzIyMywzNC44NTE5NTMgTCAyODQuMDgyNDksMzQuODUxOTUzIEwgMjg0LjA4MjQ5LDQwLjQ1NjUyMyBMIDI3NC4wNzIyMyw0MC40NTY1MjMgTCAyNzQuMDcyMjMsNzUuMzAyMzczIEMgMjc0LjA3MjIzLDc4LjY0NTYyMyAyNzQuOTY4OTYsODEuMDE0MTYzIDI3Ni43NjI0Myw4Mi4zOTgyNTMgQyAyNzguMzAyNDcsODMuNTM4NjYzIDI4MC43NDg5OSw4NC4xOTE3MjMgMjg0LjA4MjQ5LDg0LjM1NzQyMyBMIDI4NC4wODI0OSw4OC45OTcwMzMgeiAiIC8+CiAgICA8cGF0aAogICAgICAgaWQ9InBhdGg1MiIKICAgICAgIHN0eWxlPSJmaWxsOiM2NDY0NjQ7ZmlsbC1vcGFjaXR5OjEiCiAgICAgICBkPSJNIDMzOC4wMjI4OCw4OC4yNjYwMDMgTCAzMjkuMTE0MDQsODguMjY2MDAzIEwgMzI5LjExNDA0LDUzLjg3ODI3MyBDIDMyOS4xMTQwNCw1MC4zNzkwNjMgMzI4LjI5NTI4LDQ3LjM2NzIxMyAzMjYuNjY3NTMsNDQuODUyNDYzIEMgMzI0Ljc4NjM0LDQyLjAwNjMxMyAzMjIuMTc0MTEsNDAuNTgzMjMzIDMxOC44MjExMiw0MC41ODMyMzMgQyAzMTQuNzM3MDgsNDAuNTgzMjMzIDMwOS42Mjk2LDQyLjczNzM0MyAzMDMuNDk4Nyw0Ny4wNDU1NjMgTCAzMDMuNDk4Nyw4OC4yNjYwMDMgTCAyOTQuNTg5ODUsODguMjY2MDAzIEwgMjk0LjU4OTg1LDYuMDY4NzkyOSBMIDMwMy40OTg3LDMuMjYxNjMyOSBMIDMwMy40OTg3LDQwLjcwMDIwMyBDIDMwOS4xOTEsMzYuNTU3NjkzIDMxNS40MDk2MywzNC40ODE1NjMgMzIyLjE2NDM2LDM0LjQ4MTU2MyBDIDMyNi44ODE5NiwzNC40ODE1NjMgMzMwLjcwMjgyLDM2LjA3MDMzMyAzMzMuNjI2OTQsMzkuMjM4MTQzIEMgMzM2LjU2MDgyLDQyLjQwNTk0MyAzMzguMDIyODgsNDYuMzUzNTEzIDMzOC4wMjI4OCw1MS4wNzExMDMgTCAzMzguMDIyODgsODguMjY2MDAzIEwgMzM4LjAyMjg4LDg4LjI2NjAwMyB6ICIgLz4KICAgIDxwYXRoCiAgICAgICBpZD0icGF0aDU0IgogICAgICAgc3R5bGU9ImZpbGw6IzY0NjQ2NDtmaWxsLW9wYWNpdHk6MSIKICAgICAgIGQ9Ik0gMzg1LjM3NDI0LDYwLjUyNTc4MyBDIDM4NS4zNzQyNCw1NC45MzA5NTMgMzg0LjMxMTgyLDUwLjMxMDgzMyAzODIuMTk2NjksNDYuNjU1NjczIEMgMzc5LjY4MTk1LDQyLjIwMTI1MyAzNzUuNzczMzcsMzkuODUyMjAzIDM3MC40OTA0NCwzOS42MDg1MjMgQyAzNjAuNzIzODYsNDAuMTczODYzIDM1NS44NTAzMiw0Ny4xNzIyNzMgMzU1Ljg1MDMyLDYwLjU4NDI2MyBDIDM1NS44NTAzMiw2Ni43MzQ2ODMgMzU2Ljg2NDAxLDcxLjg3MTM5MyAzNTguOTEwODksNzUuOTk0NDEzIEMgMzYxLjUyMzEyLDgxLjI0ODA5MyAzNjUuNDQxNDUsODMuODQwODIzIDM3MC42NjU4OSw4My43NTMxMDMgQyAzODAuNDcxNDYsODMuNjc1MTIzIDM4NS4zNzQyNCw3NS45MzU5MzMgMzg1LjM3NDI0LDYwLjUyNTc4MyB6IE0gMzk1LjEzMTA5LDYwLjU4NDI2MyBDIDM5NS4xMzEwOSw2OC41NDc2NDMgMzkzLjA5Mzk1LDc1LjE3NTY2MyAzODkuMDI5NDEsODAuNDY4MzMzIEMgMzg0LjU1NTUsODYuMzk0NTYzIDM3OC4zNzU4NCw4OS4zNjc0MjMgMzcwLjQ5MDQ0LDg5LjM2NzQyMyBDIDM2Mi42NzMyOCw4OS4zNjc0MjMgMzU2LjU4MTM1LDg2LjM5NDU2MyAzNTIuMTg1NDEsODAuNDY4MzMzIEMgMzQ4LjE5ODg1LDc1LjE3NTY2MyAzNDYuMjEwNDQsNjguNTQ3NjQzIDM0Ni4yMTA0NCw2MC41ODQyNjMgQyAzNDYuMjEwNDQsNTMuMDk4NTAzIDM0OC4zNjQ1NSw0Ni44MDE4ODMgMzUyLjY3Mjc2LDQxLjY3NDkxMyBDIDM1Ny4yMjQ2NiwzNi4yMzYwMzMgMzYzLjIwOTM3LDMzLjUwNjg1MyAzNzAuNjA3NCwzMy41MDY4NTMgQyAzNzguMDA1NDUsMzMuNTA2ODUzIDM4NC4wMjkxNCwzNi4yMzYwMzMgMzg4LjY2ODc3LDQxLjY3NDkxMyBDIDM5Mi45NzY5Nyw0Ni44MDE4ODMgMzk1LjEzMTA5LDUzLjA5ODUwMyAzOTUuMTMxMDksNjAuNTg0MjYzIHogIiAvPgogICAgPHBhdGgKICAgICAgIGlkPSJwYXRoNTYiCiAgICAgICBzdHlsZT0iZmlsbDojNjQ2NDY0O2ZpbGwtb3BhY2l0eToxIgogICAgICAgZD0iTSA0NDYuMjA1ODMsODguMjY2MDAzIEwgNDM3LjI5Njk5LDg4LjI2NjAwMyBMIDQzNy4yOTY5OSw1MS45Mjg4NTMgQyA0MzcuMjk2OTksNDcuOTQyMjkzIDQzNi4wOTgxLDQ0LjgzMjk3MyA0MzMuNzAwMzIsNDIuNTkxMTMzIEMgNDMxLjMwMjUzLDQwLjM1OTA1MyA0MjguMTA1NDksMzkuMjc3MTIzIDQyNC4xMTg5MywzOS4zNjQ4NTMgQyA0MTkuODg4NywzOS40NDI4MzMgNDE1Ljg2MzE0LDQwLjgyNjkxMyA0MTIuMDQyMjksNDMuNTA3MzYzIEwgNDEyLjA0MjI5LDg4LjI2NjAwMyBMIDQwMy4xMzM0NSw4OC4yNjYwMDMgTCA0MDMuMTMzNDUsNDIuNDA1OTQzIEMgNDA4LjI2MDQyLDM4LjY3MjgxMyA0MTIuOTc4MDEsMzYuMjM2MDMzIDQxNy4yODYyMSwzNS4wOTU2MjMgQyA0MjEuMzUwNzYsMzQuMDMzMTkzIDQyNC45Mzc2OSwzMy41MDY4NTMgNDI4LjAyNzUyLDMzLjUwNjg1MyBDIDQzMC4xNDI2NCwzMy41MDY4NTMgNDMyLjEzMTA0LDMzLjcxMTU0MyA0MzQuMDAyNDgsMzQuMTIwOTEzIEMgNDM3LjUwMTY5LDM0LjkyOTkyMyA0NDAuMzQ3ODMsMzYuNDMwOTczIDQ0Mi41NDA5MywzOC42MzM4MjMgQyA0NDQuOTg3NDQsNDEuMDcwNTkzIDQ0Ni4yMDU4Myw0My45OTQ3MjMgNDQ2LjIwNTgzLDQ3LjQxNTk0MyBMIDQ0Ni4yMDU4Myw4OC4yNjYwMDMgeiAiIC8+CiAgICA8cGF0aAogICAgICAgaWQ9InBhdGgxOTQ4IgogICAgICAgc3R5bGU9ImZpbGw6dXJsKCNsaW5lYXJHcmFkaWVudDE0NzgpO2ZpbGwtb3BhY2l0eToxIgogICAgICAgZD0iTSA2MC41MTAxNTYsNi4zOTc5NzI5IEMgNTUuOTI2NTAzLDYuNDE5MjcxMiA1MS41NDkyMTcsNi44MTAxOTA2IDQ3LjY5NzY1Niw3LjQ5MTcyMjkgQyAzNi4zNTE0NCw5LjQ5NjIyNjcgMzQuMjkxNDA3LDEzLjY5MTgyNSAzNC4yOTE0MDYsMjEuNDI5MjIzIEwgMzQuMjkxNDA2LDMxLjY0Nzk3MyBMIDYxLjEwMzkwNiwzMS42NDc5NzMgTCA2MS4xMDM5MDYsMzUuMDU0MjIzIEwgMzQuMjkxNDA2LDM1LjA1NDIyMyBMIDI0LjIyODkwNiwzNS4wNTQyMjMgQyAxNi40MzY0NDcsMzUuMDU0MjIzIDkuNjEzMTQ2OCwzOS43Mzc5NCA3LjQ3ODkwNTgsNDguNjQ3OTczIEMgNS4wMTcwODU4LDU4Ljg2MDkzOSA0LjkwNzg5MDcsNjUuMjMzOTk2IDcuNDc4OTA1OCw3NS44OTc5NzMgQyA5LjM4NDgzNDEsODMuODM1ODI1IDEzLjkzNjQ0OSw4OS40OTE3MjEgMjEuNzI4OTA2LDg5LjQ5MTcyMyBMIDMwLjk0NzY1Niw4OS40OTE3MjMgTCAzMC45NDc2NTYsNzcuMjQxNzIzIEMgMzAuOTQ3NjU2LDY4LjM5MTgyMSAzOC42MDQ4LDYwLjU4NTQ3NSA0Ny42OTc2NTYsNjAuNTg1NDczIEwgNzQuNDc4OTA2LDYwLjU4NTQ3MyBDIDgxLjkzMzg1Nyw2MC41ODU0NzMgODcuODg1MTU5LDU0LjQ0NzMwOSA4Ny44ODUxNTYsNDYuOTYwNDczIEwgODcuODg1MTU2LDIxLjQyOTIyMyBDIDg3Ljg4NTE1NiwxNC4xNjI4ODQgODEuNzU1MTc2LDguNzA0NDQ1NSA3NC40Nzg5MDYsNy40OTE3MjI5IEMgNjkuODcyOTE5LDYuNzI0OTk3NiA2NS4wOTM4MDksNi4zNzY2NzQ2IDYwLjUxMDE1Niw2LjM5Nzk3MjkgeiBNIDQ2LjAxMDE1NiwxNC42MTY3MjMgQyA0OC43Nzk3MDMsMTQuNjE2NzIzIDUxLjA0MTQwNiwxNi45MTUzNjkgNTEuMDQxNDA2LDE5Ljc0MTcyMyBDIDUxLjA0MTQwNCwyMi41NTgwNTkgNDguNzc5NzAzLDI0LjgzNTQ3MyA0Ni4wMTAxNTYsMjQuODM1NDczIEMgNDMuMjMwNjgsMjQuODM1NDcyIDQwLjk3ODkwNiwyMi41NTgwNTggNDAuOTc4OTA2LDE5Ljc0MTcyMyBDIDQwLjk3ODkwNSwxNi45MTUzNyA0My4yMzA2OCwxNC42MTY3MjMgNDYuMDEwMTU2LDE0LjYxNjcyMyB6ICIgLz4KICAgIDxwYXRoCiAgICAgICBpZD0icGF0aDE5NTAiCiAgICAgICBzdHlsZT0iZmlsbDp1cmwoI2xpbmVhckdyYWRpZW50MTQ3NSk7ZmlsbC1vcGFjaXR5OjEiCiAgICAgICBkPSJNIDkxLjIyODkwNiwzNS4wNTQyMjMgTCA5MS4yMjg5MDYsNDYuOTYwNDczIEMgOTEuMjI4OTA2LDU2LjE5MTIyOCA4My40MDMwMTEsNjMuOTYwNDcyIDc0LjQ3ODkwNiw2My45NjA0NzMgTCA0Ny42OTc2NTYsNjMuOTYwNDczIEMgNDAuMzYxODIzLDYzLjk2MDQ3MyAzNC4yOTE0MDcsNzAuMjM4OTU2IDM0LjI5MTQwNiw3Ny41ODU0NzMgTCAzNC4yOTE0MDYsMTAzLjExNjcyIEMgMzQuMjkxNDA2LDExMC4zODMwNiA0MC42MDk5OTQsMTE0LjY1NzA0IDQ3LjY5NzY1NiwxMTYuNzQxNzIgQyA1Ni4xODQ5ODcsMTE5LjIzNzMzIDY0LjMyMzg5MywxMTkuNjg4MzUgNzQuNDc4OTA2LDExNi43NDE3MiBDIDgxLjIyOTA2MSwxMTQuNzg3MzMgODcuODg1MTU5LDExMC44NTQxMSA4Ny44ODUxNTYsMTAzLjExNjcyIEwgODcuODg1MTU2LDkyLjg5Nzk3MyBMIDYxLjEwMzkwNiw5Mi44OTc5NzMgTCA2MS4xMDM5MDYsODkuNDkxNzIzIEwgODcuODg1MTU2LDg5LjQ5MTcyMyBMIDEwMS4yOTE0MSw4OS40OTE3MjMgQyAxMDkuMDgzODcsODkuNDkxNzIzIDExMS45ODc2Niw4NC4wNTYzMTUgMTE0LjY5NzY1LDc1Ljg5Nzk3MyBDIDExNy40OTY5OCw2Ny40OTkwODcgMTE3LjM3Nzg3LDU5LjQyMjE5NyAxMTQuNjk3NjUsNDguNjQ3OTczIEMgMTEyLjc3MTg3LDQwLjg5MDUzMiAxMDkuMDkzNzgsMzUuMDU0MjIzIDEwMS4yOTE0MSwzNS4wNTQyMjMgTCA5MS4yMjg5MDYsMzUuMDU0MjIzIHogTSA3Ni4xNjY0MDYsOTkuNzEwNDczIEMgNzguOTQ1ODg0LDk5LjcxMDQ3NiA4MS4xOTc2NTYsMTAxLjk4Nzg5IDgxLjE5NzY1NiwxMDQuODA0MjIgQyA4MS4xOTc2NTQsMTA3LjYzMDU3IDc4Ljk0NTg4MSwxMDkuOTI5MjIgNzYuMTY2NDA2LDEwOS45MjkyMiBDIDczLjM5Njg1NiwxMDkuOTI5MjIgNzEuMTM1MTU2LDEwNy42MzA1NyA3MS4xMzUxNTYsMTA0LjgwNDIyIEMgNzEuMTM1MTU4LDEwMS45ODc4OSA3My4zOTY4NTMsOTkuNzEwNDczIDc2LjE2NjQwNiw5OS43MTA0NzMgeiAiIC8+CiAgICA8cGF0aAogICAgICAgaWQ9InRleHQzMDA0IgogICAgICAgc3R5bGU9ImZvbnQtc2l6ZToxNS4xNjQ0NTgyN3B4O2ZvbnQtc3R5bGU6bm9ybWFsO2ZvbnQtd2VpZ2h0Om5vcm1hbDtsaW5lLWhlaWdodDoxMjUlO2ZpbGw6IzY0NjQ2NDtmaWxsLW9wYWNpdHk6MTtzdHJva2U6bm9uZTtzdHJva2Utd2lkdGg6MXB4O3N0cm9rZS1saW5lY2FwOmJ1dHQ7c3Ryb2tlLWxpbmVqb2luOm1pdGVyO3N0cm9rZS1vcGFjaXR5OjE7Zm9udC1mYW1pbHk6Qml0c3RyZWFtIFZlcmEgU2FucyIKICAgICAgIGQ9Ik0gNDYzLjU1NDQsMjYuOTA5MzgzIEwgNDY1LjExNjM1LDI2LjkwOTM4MyBMIDQ2NS4xMTYzNSwxNy4xMTMxNDMgTCA0NjguODE2NDgsMTcuMTEzMTQzIEwgNDY4LjgxNjQ4LDE1Ljk0NTQ4MyBMIDQ1OS44NTQyNywxNS45NDU0ODMgTCA0NTkuODU0MjcsMTcuMTEzMTQzIEwgNDYzLjU1NDQsMTcuMTEzMTQzIEwgNDYzLjU1NDQsMjYuOTA5MzgzIE0gNDcwLjIwMTQyLDI2LjkwOTM4MyBMIDQ3MS41MzU4OSwyNi45MDkzODMgTCA0NzEuNTM1ODksMTcuOTYyMzUzIEwgNDc0LjQzMjMsMjYuOTA4MjU5IEwgNDc1LjkxNzk5LDI2LjkwODI1OSBMIDQ3OC45MzYxNSwxNy45OTI2ODMgTCA0NzguOTM2MTUsMjYuOTA5MzgzIEwgNDgwLjM5MTk0LDI2LjkwOTM4MyBMIDQ4MC4zOTE5NCwxNS45NDU0ODMgTCA0NzguNDY2MDUsMTUuOTQ1NDgzIEwgNDc1LjE2Nzc0LDI1LjMzODM0IEwgNDcyLjM1NDc3LDE1Ljk0NTQ4MyBMIDQ3MC4yMDE0MiwxNS45NDU0ODMgTCA0NzAuMjAxNDIsMjYuOTA5MzgzIiAvPgogICAgPHBhdGgKICAgICAgIGlkPSJwYXRoMTg5NCIKICAgICAgIHN0eWxlPSJvcGFjaXR5OjAuNDQzODIwMTk7ZmlsbDp1cmwoI3JhZGlhbEdyYWRpZW50MTQ4MCk7ZmlsbC1vcGFjaXR5OjE7ZmlsbC1ydWxlOm5vbnplcm87c3Ryb2tlOm5vbmU7c3Ryb2tlLXdpZHRoOjIwO3N0cm9rZS1taXRlcmxpbWl0OjQ7c3Ryb2tlLWRhc2hhcnJheTpub25lO3N0cm9rZS1vcGFjaXR5OjEiCiAgICAgICB0cmFuc2Zvcm09Im1hdHJpeCgwLjczNDA2LDAsMCwwLjgwOTUyNCwxNi4yNDk1OCwyNy4wMDkzNSkiCiAgICAgICBkPSJNIDExMC40NjcxNyAxMzIuMjg1NzUgQSA0OC45NDgyODQgOC42MDY2NzcxIDAgMSAxICAxMi41NzA1OTksMTMyLjI4NTc1IEEgNDguOTQ4Mjg0IDguNjA2Njc3MSAwIDEgMSAgMTEwLjQ2NzE3IDEzMi4yODU3NSB6IiAvPgogIDwvZz4KPC9zdmc+Cg==;" vertex="1" parent="1">
          <mxGeometry x="-808.88" y="-780" width="768.54" height="227" as="geometry" />
        </mxCell>
        <mxCell id="tCzJ1ZzGa24ECWB435qX-3" value="" style="shape=image;aspect=fixed;image=data:image/jpg,/9j/4AAQSkZJRgABAQAAAQABAAD/2wCEAAMCAgMCAgMDAgMDAwMDBAcFBAQEBAkGBwUHCgkLCwoJCgoMDREODAwQDAoKDhQPEBESExMTCw4UFhQSFhESExIBAwMDBAQECAUFCBIMCgwSEhISEhISEhISEhISEhISEhISEhISEhISEhISEhISEhISEhISEhISEhISEhISEhISEv/CABEIARcCigMBIgACEQEDEQH/xAAdAAABBAMBAQAAAAAAAAAAAAAAAgQFBgEDBwgJ/9oACAEBAAAAAPpAAAYyABjODKAASAAgWAYygBSQTgSKEgAKEgAAAgJAAAAAAAAQAAkAQZVjIgEZUCABIoBIAAAlSBYhaESYBjILEGMgAAgEqEmMhpWLAQgWgDOASKEqASKBIIWCRSAJAAAVkQAAIVlAkBAAmIjZnXh/k2AKSJAABOwSJUnYJAAABBIALQAKSABhKkiAyIQa2UHDM5mLXYtWqUfs3+3Ts3iFpUlSBYAaVrABKkZUCCQAAVlBjIAhICcIFYxrZREDCMpyvSTIJKXat7UQM1YGUhszlZqM7AFoWCVIFpwtIpBIAAAAhYISCMGsBkzb12sxNssUNvm4iBeorTvTqXtm1sretlNOtMjhShRlSwEIWCwE61yAGMgAAgEghCQbw2hhQY+z9AhYqe1V+Au8NVdttiIKbKlLN92zbbordamBZ451K6XCTYjGRYI2GE4kwAwZQCzGdQIEDaFhk02JstkloRrI6I986muQtem8a0XfXVJO1w0TPMICX1OtVgnK9ZrBXZaxwM2te7WpeDGQJMQsMZQnahYISGrGiNrsVX4uwvLw2pZaoyEX07TVK1c4eiWWe4ZYLRy2dsEXD3fbAlgiWm1MpqnHLaeQm31yRnNphYKkBZjIhKgARnCInRoplcrXVdzSxIo2y1tKF0mN+da7l6xTe98lzNh0/n1d6ZUeSdlrdHvk5BST3KWzuBS02qkrBWrlddjjbjKiQULBAkUk26MJZVdenkrK9dBq+m0w9OeXuuRsr4T8mMrrUYKxOOyXPqnoll0OAsPHbHf+SK7VySt36vqszdrJY1wjRdXsvLbze7xOLyok1AAkDCVatUDX2tFirrbpWvwdkiKa4u6a74y8kXlmdP6Tz61c75bqh4Cxu/Rst3no7rolQsPPXFb1X6OfhCzUeuOv2tXlvy76R9h2lQqVUAkMZEEIiNp1bq/VWNof07Ra6fWHfUqV4e8uNfQvtiscvr+2W9GVS9cUqPG91U4fOwjOxdH7p0HtHNOqzjCT21OTlY2Lu2vNO8ZyfcJD0DZtqicEihBqVmNrSW/G09BuNQs0lUafbWHP+rZ+dvne5OqfdfbvJ510VJq6vHM+oy1hiOJ1Dzsjodf9GdIbdD6XokmLF/OMtuu1QHhGl+m5af7NYHG9ap8EKxhOnXXq9GUCG6XcEQcztiKXut9Cu3hLyPt7363PJEtXHs9Mz1V6BFs9+hqTeiL5Pc6p1/p091KNcSEWolUR1pf+CeIekejRV4u8tLyLpxttAhSU4TT5TmtBpXaF3cqE5IwlcXZ4Pyj5g5+WKteha4UhzULrzbudD7PF3GZuXMl809cxXF9nSOp2ez16amIJpi51SN6X5G8s+gOn19rcrNY5uVkXzrfbMZQhKImr8OrV76XUbHK1p3JaIGzQ/niheb+6s+HdVgabCWdihOzSiAnIS09xn3XmiZ6+1sPS790mOrz2aqzq3o5X3/zj4Q6L6GY0qRt1vsczLyb964c2hOE69Vc4DzHrMrYoGwratJ3FUtj/AMSekPLsT3fl/PuwcpqHVeXwdjoMvAK2KXeec917951usN0PtirXppd6iYNx1bk9n1fOVv6YkaCwtF3tU/LSkk/futu+xJ1oq/l/x5X/AGT2ScqzK6sYK0S0Bh+hlMp5l0fllRmeO2aW8/dUZ8U60y4P1KiUie6DT+19Rg+o9DjbZU02uswt+3cp6v4T496auVBq9gudysc7KSUk/cvdu1czjVxTzNy3jHpD0z0SvxkdOVSzvoBw5fVe+v6dqu9MXb6nFNuZ9P4RRe58TOk+erdO1O0doz1iKTP1vE01iLZETPmnyB6K6zSaLI3O7WabmZWSePne/bt3Erq1cj4dqjKpy+LuD/01WutxCOVdo11d/JVuWl9JL7ueXh7T7jr5Nf8AjdlrXJ+4Ulv0i+z8PD3CvQr+fjq7YuKeU7/3WN5m2uF1t89Ly0jIvXbnfs2Z2Zf6W0Bzmg0+Cc7mlN1Vio9He9sv8M/VFx9z3c26a2qslfqbaHVLe3jn7mc5j0DmXQ9stCR9ngWc/q5J3znXgd36Rf8AOK7ar1bLDOSz+RevXLjete0UbdDVlXq/X69SKvF6ns2/TEU2kNm/eI/1FzW71iVovUEVeWtHPZ+5VVzZqozudWbTddlZKNjbnXaF2z57829JdA55RZ+33S0TUxKv3zp0437tqlZUoXobtY6Ihq9CV+AgoqBbOZCUmXzauVegZhfV0F2B5roV7rdwiJKFuEM3uNRxbIun9E5/NT9Kv3mLyj6K6zV+aOLrdLLYZmSkX7h44crXvUbQybNWhDVrHMotjGxcJAQcJDxUXl/Izco7a1ar0YdegdttvEfzO+bHyXdK6NH0fpOqLYSXI/FnUvRSOZRlzuVmsczLSL90937tu1S9m1KheUuUatWrUy1aGTVvHsmbCIgYGvwcXENXEpIzki4jarUKVttHW7vs6Kx5p0rQ132nz76Mofh9Ho6e53WrNdrvMzUjKPXzp1t3K2r2ZUpCFbV5cJNWNGpGjVq0aW2nQwaso6IhoSIr8JGwyHEpI2F46i6lQa5ZJnovaKx0THK+8fOnm3qboNPpU5dLhYJqYfvZF3v37V7TatSc4UrOc5dKwlOkTqRoEakt9Whm3ZtWjOKjoSEgYWHjYhbqUlpxcVAsKNCSl/6d4c9B9yhKk/tVpsE5LSL906f7V7V7VLUJNopKdhiRwITlGNeoRhOvUIb69OhDFo2aRzNlFxERAQ0bFxyt7ubl3O6Gj7wioPrhZZWTl5KTdPVud2zO3YtKlpwpWUqxkzIBrMawwnGtJqxrxr1Y1a0aWzVq3bNGbJkxiIaFio6NZbJDd0GDRbbDMykk8eyDly4XvWoUsXnIjOc5ykziRWhKk6kqQGcITrQJQnXhCNerTq0amerS2at2DKM0xke1NE9YZmRkZB9udOt+1S96sigUvGU5E5yGMyGcAkQlIpSU4141ikoTjVrVqTq0pG+pLdtpb6NenXlLh06fuHW3e427NpkXjakyLMAYE7BJJY1qDKDGvaGEo14DGEq1Jwa0alCdSE6MaEJQtS1jla9uxa1LVlSsJNiFGTOMGcJXhWJHBrUYwYMmE4yhOEisoDTlKUAnXg1pEpVtVlQnG1alqxsELyhScmFLwhYkEqMK/8QAGwEAAQUBAQAAAAAAAAAAAAAAAAECAwQFBgf/2gAIAQIQAAAAeAAAIiAAAAAI0AAAmAABEQAM+Z8rgAREAAACYAAagAlLksLO0I+osX9J0ygAAAEwADUAbmYXFWs67nRUp6t7RsdPbt6k0jgACYAaICZnK0sPUqdHdv5MWVlUcqOpK6x0EvQ7OguoBMCNAbjZ/HaGdqL1dq4jo469OLCya3OUELLtLp/SpEWcEaQ1OMl5/bxuos708DY2umlkRtTk+By4pNDS7rpa1PoSwCR4mTgWcXdh623fgKsKoNVLed5xy0Uj9/reudgz7sz7QQc3zs2bFdw+m1WdFKWljir1bGLynLUqF+52fW6GBBrW55X20KvITc5oUKGny21mN6VLPTX3mXx3P4kte90ndamTm61yaSR5ZzcbVnK+W7Ix9DDcmPLBW2rFJ+BDoVOl67p6OLo6E00jwJ20s6qjbNq3FXhyM2TCp2MyrboPtSd/tz4E2tPLK4AbaREjZDUqVmPt25kr5uNNkY62NLtrmFBs2ZpXiANS0oigiMjr0qlZs1q3NHBmS7eTl696aWRQaCIlkABUHNRrI69KpXdNZMe/qTzPcCIA1CwAAAAADIoK1OpsTzSK4EQAahYAAAABBqoDWiuUBoIrRBLIAAI1zQABBAFEAAGAw//EABoBAQADAQEBAAAAAAAAAAAAAAACAwQBBQb/2gAIAQMQAAAAgAkj106AAd70BSDsgOO6IRjwAS6AUhJ0Bf6mvTnn51dOblfCYAU966A7p2etDRTfZZGyrPHzqqs0I8AlUAGr0rddFnn1Uap6dWjRKzivDzFio5lEAHdl3q0acry6qOLJTvlt12ehe7X3N5vzFnVQJ2+tV6GXX5lWOjRy2UKq4dlf6nt6p8pz+H5VG6rlQ7uv2Q24peZTmuhrt67Ljz7vovSt5zF5fkef6WrLDmcns3x1yp2+bkj5S3Fy3Rp1Z9Xo+jdfTX5PleVu9GEKq452SH0XfQovvzejj0PM5V5WfmnZ6uzYsp8/xvN766NMIxUSpzTu2aea9WfbxrrnPHVdzfOm3B5fk0epfXCuMYlSzRbTnprhp2S1X82XV6LKbu1x8TH5fo7a4Vx5EKnOylOyyVGeqrmvRo1c06uwz+R5Or1aq4VcdBUOIpSlZbOeSquuWq7RHynrRhXXAJBUBwj12yUrrO5qKo+lfRCuAO9EqAAAdsnZZbRCFQCQdpB3gDoSO9iB3oJKAHedJQmAAkAS6//EADMQAAICAQQBAwIEBgICAwAAAAIDAQQABRESExQhIjEjMgYQFTAkM0BBUGAgUjRCFlFw/9oACAEBAAEIA/8A9H3/ANR5+/bDnY8mfbgFvGc/dtkztkT/AKVBbzkFszGzxZGNPltgsiQxB+6caXFkYfqvEnyjOWzPVhbDgzvGCe5TGTPHN83/ANAn0jOW8YsvnOfBmMLc/b7z9cUkWRJTC5I+IsTKdsjkcb5DZGNsE+ucMoKd47IYvK5/2ki4N9G+q8SzkOCezZ3aXGPSJ3jBPcpjJnbN/wDMkXHDn2ekTuvFNj1jJPiczHKSjlI1Nlc8QySjrEYhDvqumInmqQhieRIZM/SEo6XR2O2OOQLWEo3wA3bAi4JUWepjywWzxkZFvVMYwtz3gmw1U7Vj2j3Ezrb6N9V4lnKM5cWzuwuIbwE7jkHufHJnaMj/ACO/rjC4zGO+zIZBKzu6hmc9SiOJ1JQMb8vIR7KsD7oaRdDfpW1e3eQZ5CZEKYx3nDLBFXbyTaTPVBFXsd65UISKbH1rJdZc0kHZVg5qulkdAzsmyPa/ifuBKoOvymB2bAQ1ZLLN5Z7sBs7TBC3pxpczjbtg1TtWP3erT4M3g55JxLYn24U7OjN/b6KPmOSfEoj8onf/ABO+Qf1JHGzxZE4+fZE4djiECXWT5gEyqFMHusRBCJJUPZX+pWaQn1g+Oh4GyyXkJ5qojDq8y2kyRaxQEsU2oJ17+IT9GunnXGW1JJV5gK1ZEgMHJlFmpHVps8rRg2y2aVgjVaTLKsMKraiwnoBX0rkC6yXA+xEDLqsOOtYiA6McPBwc28Jn6VZXaoimfZthqIPu59mQ6Y5CQH1e7GnziMUyIDjizmGbY+dpGcUzsHFlCyLk+dhjaJ9MFn1ZHCLgO8xO8b5v/gZn0wD5jip2MolpcG+jXiw+OCDXs+klS5ZM2S+i76NpW6+RJdLwlYJ4JfPfbOVF2JsK7K0EdF/dW6wpgKrDoc5hKs8qpVe4Y74b8pUmt0F/E2WTFoWVLCJfTLyKNvmoFh0DX1SJfqcDYrzKaSe6ivtoxNfUzFep1yH3kghdpwQFGZ8sFMsF4tsTX7rtaHlTsiNaEYXJTFiVwQiY6kkdwTIktGubOTwKAnDAOsdkr7WyAnHEpz12ks5Tx2kXSMRETPIsNvaO2KLic7mfFhSMlzrYl32hjZ2eGQUFHtQclE8mM69v6wz4fLf5c7DO68S2BmYmWRJyQrJrdyOvRX1ywqjSEusXqhThJji71wSagwSZ7lvNT4WrUlcIg5ayLlX6GnB2VIl1Z517DEpbp3Y7tJ+s1a8TE29ec1swmjrrtPkol34iOztuH4gpdUcKNpWpGwibYRSH+HZRK1xOx3jG9dVOmaCjybjRTdUytKWWq/8AE6ZcFddacbX6tTSTroqYv6WjqJtGObQ8XUEbahXMhg504gOkUSJGqxxi+kU/EHN7nEV2Chx9gwfIpWQRCROVslsCkeMCwOZRzZMgCYJZFPVPHlhqle0SBTtG8N452wsxwz7OMylkAG2cvnazPtD+q5RM7YZTDhyx9sZLIlOFZmumZweTQ2wqA1ExsDfKUQhWgVtnuecg2STYTPVyZWs9sSkFwCr0d9+Z5gVewgiqlLqNztWK1poeMzlYtalVQEzjdfsP3gSbJN9TjicTlhsmqIxMbjMZ9rMZyCeQi0yHlg/iC3x4Fp+vlRM+6z+IvJTIwjVNOFEddSyOpWD6JWnTxli2VnaiCzYtqKIimayHdsxmpgCJrsUs3Xlzy05y6E2AdqYl6Px6VTXnNPiSc8Rv1uk/U298cF1dvI2by4P+kI8gF59sCrhkq2At2nC5IVyBMPY+6OweIpgjGWHAkgcFO8RnqNgww0MVPIo1En8wyNYX8GGoIPBcBfH9Jv6YlnOJzlwsTlr047PuRuKpKuy2wRT1BXdHkWp7Ig1IXyr7uQ8hOFrtqhbQljWjbrwVfTvqA3vW403CCvqSutyGMsnF2sS61RJTv5ly5X0tcki5+InWlEK1HJzO6NNeXvx9RiigilUsj0VQkliWNgEwPfc0wiNZVv0jmGxO0/wozwnHPIbCZEYmVRyiYz7T9Ck1FyDyTaO5p/E9oFwB09flFwm3LP4nWSShWnuo+MEzN3vtAjTI00QOWY1p6ohikoSuluVlrD8ojpdRuF4WlWepxljUkJQUzIysBBe8msJbsB8RLdsmedqxYyB9/KSkohQgQr3sQC4UQ7rjJAwfudtSkh2ABu1GuWJBOlL+rrlurYiOhSTOfRFXbblX9FR/RNZ1xjP5c4ifpxGA3rZO8vBzNwrrsPYbJqpTyljuTFM2r3E+2JMH+SslprCsHGT7TJVJMrvUU1ebdNtSyuKBrguLzIs3CiLanVhpzbRHm2dSVo8CqdX107YxC5KWr3JHrExlM6tXbnWHyvVGoUhkY70KFIlwEFXFM6q7gKgSrZNaqvEjQ4WkQw7TaknAilcM/l6hUZYnaVaUlY5eoqgf4aNKYaveWmNpjya0Z5YwY4b4n13jJ3XOdhqKDWOoWrf0sp65Z01fQ7UNXntr+Tp95AImRr2vK5mq4sQKCX73GK5XMKdBZIyZQeBA9R5DTg2Y5UJKcbM2S9lWQIo50+XdEQ9XhkDMdYnUK8+NTQmuna3qeqhRAYrXtRsakEQVWj7I7ACFx6RPrsKIkV+/9+DiSmIMph4Rln+XkOHp3JliaqJMEyxiveOlhURMihxHHUvrWh+73n28WIUmZq8nV3GtgqTfEK5rl91oW6h+PpKuyoLHU7J1exSW6cbGk2WazVq+zNR11jHz41gpKYIk0m2U+waTlLmTWOxTkac6zPYKL0UK3Vj7DEEslxWlV8XjBqQ8sizI2eh6FFXlsDX4GzprraTQci3VtWalfrCW+UsyRp1tbVSV63clYSS6JebP8LqSaYjwL3KT7WkNmtJQMbNxy/75VTDpEGAM1Lhhmp127m0QjvoDy0sd6qcq0wWk4UqF9h89zgtxkY6gZKmdq4XEh1mXO1O8kSyDlLIOqRmc8RGKTxmxdsQxYnURRJ1aPMu6h+kCAZqOts1D0WigbvcxKBUPpJ7YuuTPvWAqj2b/AL0z7crt7V74MwFksuzMSHG1fiDhONqMvGAqJA1zgXMbFpcEqolYjybDGgUDWtp227IsDbWQIrLHuJj7TiTYCausoMtOknLtwf8ACrr0ZT1jet26VYJPD/Elh0cIM5l3udHrvlNlVS4K0lo2Nhq36Zwie8HTSRzwLgWB4gDYZUZDZ1RqFgpsn3VDcqZRZQnLNmVhza+uRLS9U9I2obTe6FmPkggq1wWzyUDSlQuZNmEmlPjMeNiuuF7rrK52/IQ/TtPKr/MtaeFSvMEipLwMg0s5izAxATXsxy1OorZjwlfegomugq6FRi1waCM1s6oPGphRbFDO5auusOxgLZmRIRhvqBumJg4cMVVD2cXW2xRbE1mU33Vh3svI0wRWzVNc72R+nqqttTMnXpAmMmYGM3ln2KWIZBZH71r+VOy53XGKcKZPnNoHWOQITasEbDqKQEi6zMtFsjXsK4LGXKszZ3UsFpW7nZsM3nsrwhnjc7Fe1ISKUtrDLRF18xsdE1KyDtA3ynuXoiilNzXm3w6UNSdZxKaAF246NijDHkOOEth20jUGUhYMDqj+7hOpBM7RFSemChg7jHo9RHO+KZ/Dyo3TtPtr2ttNavPPbW2EfK8rTWy8NQTNVabJFE1yZRlPmU1Myy5sDDbTbzBAXVbVxS76GqfqbVMIg0tj78CIuNJA8V6Vt3lEimad5HG+pthS5WWxdgmVeASBYLIJXUEx1ffb9vPqHlZE5Ou2EHhxw6+TSjxY410+QDMO4OlsZyu1n3Cg4DwFrGMvfiCVNkaJzY1FnJ9elC18T9BjCd/YYjl945GR+8wuATONcPR7rNs6iPYoztJNbG6WujWA1Ic5s9a1ipLj77LYaIuRXrcUFJrsNXIrq2EjDo7ptLthMVqSJMiZYJx1jnpsrLiJP/ValMBTmqnYWkSr6UcW67QsbQq0yB1WpsybEUOZU7YrYuRLZmoACiVCqlfyW8cn5naajFcWYbTcW7P+G2+bRHwaYOcVyWsgx9J33RVtuoKnjRt/qBSvKtCetkXH6WEVx5FvM+69p8CpTF6fDv09gooF1m6GSmFatAjNUXlWKSWSvaVuIL+TX5sMFskug1zjhBq5YQSPS0cEyGSmLIdZL26mWVBle0hK+L2E5lzrqlpoc4Zlv8TeMRBlmw/UX8zraXtEdoAK49pugMkiPAjbBHBHIjIjI/ca8Ex9QtWFzhUEVHahdkATss4h7rPe5blV0pgD5pN0QIU7KuDo5lYi8o1qqqUTYbYYTFNb0WQb4onZXbHeKy4RDn8H2ZCCEkLW96jKzqtHuEDS1DBVA5ooGhjlnqy4hkGLVBaqAM6QohczNSQYPIycIt02DzSf/MiMuV4qu4C6u21TrSqiMFbXB2P/ACGZ4o+H3ZEbztDknXLi784nbB1Zwl66j/EJTyQ06AEadP1FtousHeNSKZs6qEA8dq6gt0lrnTJnY4waZjbeeVgljxgzGEtjGb2BJ2JkQlglIHBCQGEdSzhDOxfUE+xxBlr6zZaEVlEnllW+4jXXrxp0rf2usa5Thcwdi+b5YK6+mycwUqQCY9hMgYwnyX2QOCGCvbIHIjIjIj8o/ZdYWiPqWtZnb6LrZtn1SzraB4ibDLivCs1PrQo/J8oDWqutUM7rrzhckVdldy66ysovTziqrqWZcLT3KYQHXqoc1bCeq0VZc8LC9m7kXjxW8enWBtgx4yfjXsaTbCpadY66E8mOr+T9I7NSK6gCKtNk2j69Qqk5X0qnLwF4kQHVSidUQDBlmabEMpRGKSyrdTDNXHZQZRUNmkSjaMItSI6pXMmS0NJiCYzecs1QTWSwFKJ58FupylkiXIpiOdOku6RC6gqEXw31OqUMN2Rydp089LmQrDMo09cLcS6ZgppFnQQFyXxGawkCHF71Y1XSyd7ExZkZGrswghoQYOnazXNUdri1ALKzrhRrcrPZdtMrUFEabP4itPXwSmibinkmoCsktsZZ/wCnqU+4QwV4IZA5A5EZEZEZt+zdc4Z2VEmLeTdQmbDuYTEx86I6qlxFds6tT2gaytL3ACtrZNcopUyptGExcZerusLlFNRWUssGu34qxKrbWwjiCllaFeOisgrNqMPem9s4TXvqC+0i1WqfzojcjUNqvCFBxA3WfpDW61M972w8wfXVVHxyYdew0RIa1pXUcc22AaPUmvWCw+CfbWEywCp0Tq1JnLAMBgFWbHxGaPvEPzU0hH1VtELFTivTVku8S81gOLV4hQ26KhdS2C6vfVKxCyXZp8c6NiM0o5Czl1C67FNB6YsVSFNWqaFqjICPH5Yp3VvGWlikphhT5S07Vh4kIvdMgeM3cljDrP2H0BIKMYfeJQCB1qY29RrnL9v0RRGWq6/3qlSQS21tyr6eKvv9BjGWIHJkmfIhgKwV4I5A5A5EZEZtm37Vwoj5ko/KVBPydJc5+nxBTsarC/RdO5a0yJ6bGvWLccSR+IKClQIVTVq1ySyyuppy4YtSb12UusJNelD1255vrrXNlaUQiASyxdMwSoloNlljWjYOXprUVhQZAi+0MgFGwBKsSLGXVWwNSKwLsMA2GfVb+m1bbFYmWq9wK6vdIEthRNxK11YGqkm2BFYDMJvRlmZf9RdQEyJMZYSFiOL21epIQYUz88zy2ovGaM6UU+FG9lC69lBrsKXZV1xQWC3tBBiY6sHB6RsjwfZT0ns1k+SsAxXtYEPtb+7p9z0MM6zoURcGBKeOGAspQIVVMeRcWO/S2MnLDH6gKnVaSqFZHU3U9WTXOB0xtl95kd9bToGIlgAKh9jHQvCcR/AhgqwVYI5A5EZEZtm2bfuMWLPvOgqfg6Mx/LJTQzt2+/nE56ZIRhJj/wBTpA35Zpvp7PEfE+6dc1BI8cpaxNexLrtn8ULYuYq6dVowjmXdPkwnQv0d3GO116bo9VeuoHagbdTbZFLH9JqteJDL4XV0hUnG1oIIS2wlG1fw6kXHmUYp3hSZNfa8lYWRrinY5apkqMtrSZVIEzuk0QkErgCFbrsjHqhYHZA5mnYhLmcGxO8sxcq8TGKCyYc7auB8DTS2tWDxMcWB2OnYplI7vQwzS+EsiQOvIsEoIgmrHBJlzkcsDNezxJnO7tlRlMQjyLDWxZlVItJJwh32teLT2yl+pak/U2xMo00jLc1oFUe2TgYw7Ml9nHecBW+ArIDIHIHIHIjNsiM2zb9ufynJycLCUE5Kdvt2OM7Cj5h452Rm++TET8kgCz9PX67M0wvlYKs1Pcg9RvN3Bun68uiiFtdqoao4F2TnS1KnK67WpCyVmgtJJlwpdYtNmxVprqVqpxkNcZKXp9pJKNcOm9N2WVcBVYrEMvPhXcba6KttlcitK1Dwli2TmYaJSMo8biCDmZ4BcX0N2wzK0HDKvFZAJ2C2cJLAJehjCrP6mNJLQlMSQw1bqgcE84cQnbUKT2Ijm5xysYb/AF59HkQNosVUInDqxw4Ky508u6Juvuaf1zJO1NjGENVdInHuKaK1ZM7Y2z/09Tn3ivBVghkBkDkRm2bZt+W378xkxkhkryV5KslWSGSOdUZxmPjsOM8jb7oeM5zjInJGJ+SrLZ8zQDb0LS9j3AZuU9/G8iwZgx//AMt4jsVO0i7dluqXbenJTHVV0228UsvS6dAFaYZXstB3Oy6kmhtUR5D7nCofKpbgQG8WqrhmVopqaTLZ/TNk12U3roSdld7xpiFTEqfA5LFEgYTV3MhELS4rmeHJWwiDp8FcRZY9rYJfUR1CMqlti4+nKASezrNqqad6mmqsW2myPFnSFsemz+K2GqYQpbXnPKvQhcRz2gYxtiAwjJnyK8BWCvIDIHIHNsiM2zbI/oNs2zbNs45xyRzryVZKclGSjJTOSuclf/317fG5xnccZFqP/YXDPxvH5SMT8lUUWM08Dic/TSHfO69VjiirdfSs9+H+LCIdk6W7T2ixmoXrlb0HS40VjombZ6g2kwaOTVY0EjeuPqitfg0VWLT2EEtmg5vCLJ6itb8qzRTMlYISCCivZptTQ5NC2aeAoZMps9eWiS+v1qrIbZMCBjS0+w3j32NUSDk0Ap0AkbWtanWWMeE177wx2VdM9N2AsVDsBthcYbyP7BDBTkLwQyByIyIzbNs2/ppzbNs2zjnHJHOGcMleEnJRk18lGSqc4ZK984zH28jjIsFHz5Q/3hsF8bx+UrEvmaSt98Zpol8fppiOFavrjhlDUnaWbCx34rY1cijSy0yK/wBS5YU6wK9H/RDOGdrdUaLip54pMNH6nesI+h4mnosXCYwitlpzW8SaeoAFiap0kRPc4mQ6UUmaH5AB33NbLTD6LGpam/U2xiKBHxmVVxVHpJRGMsb/AMvjMz6irBVghkBkRm2RGbZEZtm39Ttm2bZtm2cc45xzhnDOvJVkpyUZNfJRkqyQzqjNpj45mORZmPmLI5DIzePyJQF900V/2Zp0F6r8Fi+PHytQmOJafqh6V2C21+J5akhrafGlrrhxt2AbYBWi/oZTJk1uqMh01MhEWHgzUWO0sQkpfrLjeQVVUzsnMkmkK/nfbGWP7RPI/vFWCrBXkDkRkRm2bZEf1+2bZt+W2bZtm2cc45I5wyQzrzqyU5KMmvkpyVZK86oz3R8Qw4zyf+0WBnIOJz5yVxhrn1zwQxumb/ZFRyCE1zqeob8T03WS0wTh9r8U80lFVKDbM5W02A2lkRAx6MdA5PJnyKchOCvIDIHIHNs2zbNv8Jt/w2zbNs2zbOOcckc4ZwzryVZKcmvkoyU51Tkrzq2+PdHx2HGd/wD2h4znOM3zaJ+SrLP5jTgn4BApjYCOBySJn2inbIVkBnHIjIjNs2zb8tv6yf3dvy2zbNs2zbNs45xzjnHOOcc4ZK8lWSnJRkozp2zqnJVv89W3xxKPjkcZ3bfKnDhNk59gp9dyheQGQOccgc2yIzb8o/yG3/DbNs2zbOOcc2zjnDJDJDJXnVnTkoyU5051Z0xOQvIDIHIHNs45tm2bfnt/kdvz2/LbNs2zbNs2zbNs45xzbOOcc4ZwzrzrzrzhkDnHNs2zb/Qts2zbNs2zjm2bZtnHOObZtm2bZtm2bf6Jtm2bZt/h/wD/xAA8EAABAwMCAwYDBQYGAwAAAAABAAIRAxIhMUETIlEQMkJhcZEEQIEjM1BSoRQgQ2BiwTA0coCS0bHh8P/aAAgBAQAJPwP/AHeAwnZ7Chj/ABNv5ABCdlALTsdJQWgQwjzLdbdu/aVv2bI/jerkZTNEfQLdFN7q6YWE6Sm5YsDsdJITdFoEMI5XiW3bv2bI/uadu/4fqV7rICGE+SgIK0lAx1Rkg+ybOZlHBQujdOux7ITcEU06I4DcBdEckJvOwZRhkLZOyU3mKwJyshGLSp5isLZabLbs1Wnb17dvwg6LuNW2krdHKZ3d0Y6LCMmE0yzBKdBGyEhwjyTubyTZLRrsjyjRCcQSjmNlTMhuTsoDXNQugahOmW+yEy1Qhm1E2RovDKgSu+ThEhpflbKPs8LxLCOoysY1WoQx1W3YVsiui3C6dvVb/P4AR0TSBsVl53TQsiZQwnTnQnRAG8rKBIVS/wAuiYHAvwnSdwjptCc5rNk3iB/VNHDnmU+kJ8NGlMlFl5wG9U6HRoEw3gaJ1rG6CVE2kGEQJGgTHF+mFysfKtJHROhsnCzzlADOizUDiiWh9TK8kIsURAXLyrJcgFtqhhHLUJDdUdQtVocR2HRdV+ddfm9OzCzKEF/VOJ6pkRhGOkrHQp0uTO6NUQMLEHB2TpeBsqeYz0CcOHM42T23DS1PtCM9gHaYRMhVCm8W/fdANadU5sDaFVc2izw9UWiNidVFK3ICBDztGqL6NMvJXfbU6pjWM281qKqaQ28KJjVEDqjqAgbmDK7tq6I76IHmOEYcDou64ZR7rJTfBBWGlRMqIe630Xh0TeU6odxAhPCcPl91qpkrlDdSshimBunFx89k0cyyJkoG0bwn3Q/QnRND+JsuaXwUHEj9E4iP4c4TmSfB1UMG6ymw3zTCAtk5novhwxnUKnDXpxL/AC2Tw4nZUzCaR2kj0TiSEQY3hDi3DB/KqckjdVGOccm7VVR1f0Cdc6buZU4E94lHmO50TmxUAyn3OZ0Q2AWA9mF94ESGbhDQoAW6rxtwiRDPdauZlQIGChzMeZTXNYXrWeqa2m06E7rDjq+NUJq9YUon5Tp2YaEdF923SVaXnSVHO7dOknVMItxKcB0kqMDBRvdCpmWtydljg58lLgGHuJxJOcIT0gpoY0brJ7AeIdyhePzHQKv9AjTd66qnbUZusPO52VVlRjNk4U2dBumDB1IX2keyc20fos/1FB7jOqIZ0CtgoYWvYU4tPUKpUcT56qkIZ12TZ+HdzOaN002OJtCBY01U0ZaEBEcpXg1XccdVBeHLuvhZMaqeVuURFv6oxk5Ti7mVN2DgpzTUOocqjf8ASNl3RpA7AhJWvyGy0WxRAUJpaanVEl+6ZgDVRFNTEapxe6JzsmA3SSeiy28EqXAA7Kq50jDZ7qDXvNUwxP7/AH2DdSCzwwrqVPpKJJKaYG6YY69hEeqY6mw+Iq99Kpi94RvbuAnvoGprI1QaGuE3EZQFVj/6kKrH7NBTwy3GUKb2DcFGo17MxKMu0AKYzh9ZyuQDvPeqp4v5iU+g5g26ptKnZ7u7Zg9Fsg0ssE5TGmaO4TYyVdAdc4lEQQpnYrxIePBX5kZanTayQmtksyFaAQdFdg7NVRzi7ODorC3bqmBjWrfc9vKEPkdXI6puSuQA8y52t/VNcA3c4T5c7Yu0QbLzujN2qY6GJ3oCcKJc60I3PbBMKnmzw6BQ2nSHLG/qnNDxpYnW+YRJz2NLn7dE3jO9g1VmyPCNAqbXXmMqkGvO/RB73zDfJMBa3YqykafTVyqBtZuSTuuDVCaA1+rGbJ7KboiCqdOtfu1UrqOtgT3/AA5qZgtTGuu0cWbJryw4bAXxDqf9Lghlg2bunXVSItbsqgumQ1Fgs2J1UQ/XCBAD8eaDuIDnKIl9AZRLrWESNF32lRz6rWNlJhuiOCThACH4WxyE10VOmywA3fCju4jMotYeiYaYAx5prmRqeqJJPVZPZ7rJ+SIa0InAU8NvVFvEjEoht+hTi925VEhkd5EfZ6SiIjBT+JU18lSLp36KLWukrnFOpmAqjnMJgN6JlzTqg1gfhOa4gbFNJ7ZwgJqDU7I3FVb3Ec4iITZxhHVFN+vYGS87hPMDZOyO5ATHcmcJ3xBLdegVQGvOZdsqIhgw8Oyr205tJdlB3KOed1Ub9qZKHBpxN4HeVO6xsyTqtCwpwfeRnRNc8tf7JjXAkLF7MN6KbrkYAdCDfJHuNQMWrAecFRxLk8gSgX5ATLGOaLuoRp8n5tVUdUZ1PVOc8n9EAsLPyZAkIDJQsceoRLntdznqmtNOO8dlkUiptO8KqajjoCdFTDpOZ2UHqg/7I9IhVCdrJTQ550UXu6LBjZF+uQ1S6UIDX4Txz+BTJGyaQRsUyyWTrqnhkCc9gc0HQwtf8A8pVN8ei36hMpBx8RGijPKzc/RVDRa3SdSjMKpcH/0q69pxCbJtyCmwC3RvonG5kYjVDNxRaMaIxhMI59FytLv1RzOFjAUm5mSmNhmhlRdPSU8svf3tMJxNRmlyZTe5vQ4Ry/YBYQA7MD5JwC0cjZTaMuQD+EY9YTXta5tskJ4NR4mCdFFx1lQ64SfNMc0UjrsnQ4YAJUXO7hRBqbxsqJcXN1bonENp51VpaOify+BoCm8eCNcoFsjRC0gZBTAy6Z80SzA2UhvXqmusdoeqY0uFPvdFu0pxd9IQLrW5zogCDsUAIdoE/MxELdNLT0/c1CfPqE88QiSI0VjTp6oMD3eLoqnGqEYnKDRc3ZOcC0mIToDXt/uoDHtMRmUB0u3Q7pUNAW7MK7kB1QuLtfJRk7jRatIV8WbhHmidUwO5cn8qHGa0m2m3ZBzv6YV7Wk4E7LA80Pr8o4BC0dU4rwlVbeKyT9E+81cz0VKW0D3xonYp9ydAuaZtgwqnEqTBVIPJbkjw+qDraZyB5JzXN8lULmO7jFT4jie7uhaauoRAe3wxlVTTpsHM0boaD3TBTDcDOqhr6u53QbzeLopcIiSi59GNDsVzuBlAP5dCEI6NaETe0aI5EiE2Dcg0c3REjnnCmGOTRww0ZlNa7l3E9hcb9ZWpWoTphF+B4VpdCtsUO+yTZbe5TAgulEnBCuH+pQXk8wlYDnp0uAV02x6IixWy53LCe2cTA3TH3REDZO4I8LDi4qsygfLmuTy0ncLPmsnsys/JQAqYq+qp2CNEFr4cYQmp4YEAKu+o8NImeqDawtMunuoB1Bk3sbuULqdpmG6+Sqm12W0ge4oqVK7oFPquR9X8pTTTfRPdhVOFTYMgHL0cNdIP0VEU40hAipVxMa+SfBmLukol3VxKa00gMkppeKenkp4Z6hONRzsgTomgvLtCoud0VwdT8sKAaf0yu7phFobcSOqItmHddUJzqQmggHPkrgXnMrvvbuouAQAxsEHQBiCtLoKtsdG6A/8AghMtVwl8mSjE6XYUghmZ3RaKodv0Rgu70LL7dQmuuY3qu6SVaW34IR7numOfxREBA06ZmbvVObh3NanRTdhkjXzTW1GvdzP0KoDmxc7MKTnRe3bp0+XaO2o+3pKAtdqDuuSn4gN1TdTsHdhH9np0x3LsvT7KlMcsOklBlMtnH901xrV/4gzevshUqG+o7+GnXXH80ynMqfCRio9uqpcTg6n8qDhxAO8FWFSsR10PSEJc+L5GBhRzsux1THh1A5xon2gCWiYlR/TB1TmhurY6JhNx8O6JtfGqtdA/NKdDIzIW0proRaHu84QP0KzLYBG2EwOY8eHUI+E4R5Q72QdzvyJ80bNDlPcLDm7dYLmappwdRhOyWpkmn0KIszKDYkQQi42ajdDBGhVzWuMCU5rap707hPsaCbvNDiWMEyYVBwORncIg1PHxNVVffPMG91Oe7oJ0WEIHZgfLNBVzfQqp7ps+iBHr2hALBRCLjGkp4d9Mqk6u8jDjqz0VKXf17KrTqum4mYj6J07vHganNeBWvLdnKhUmk+11uQERSqAxTp6CPVOeLIazh6lxmAnMvg4Gy+H/AMwJbw/F6omizxG3IEp7OToZkIgfCgYu3TZ4Lneyp1GAkDmTmiqdJRh0bI3uO8aKm52NWnRRZerXU/L9U91o8K0DREpppl2YO6LeM7Od003B+D0QmRN6579A3ZPDqQ1VrqW0IvPDmWlZ5PFhSyCcFOaypujaS5SeXvdVRMU3Wh3905nEI33Ce7iVH/ZkGBB6qsXOGuNVTpFwHgcg1rWaQtOpQz1PZ7rX5xoTnBEFNPYewAoey3R9invpu6hVqhHkV8Nbbo4eJEfD/C7kalOpwY0Mp7/2M4YKhy5ClUwJnBHoVRc0GlyXdU+fiCLnXiDKc9tZ8k55bJRFS8jUanzXw8ml3jTMhOtFPujb6p7Sws28lV/0s8kwvvAEJjqfGOhXD452Ke9pL4MFDmI1VOQzxNcnB1MBQad2C1PeQ2cHKAdoIJhfZ6mE9oralFzb3bI8wjMJn3e4KINMaynhzXnH9lVfWe1plUmvLhIg7eaY/wDZabyQG5VhEeFuU/4gUz3QXTCk5yuY9mT+BhCPROP1UFAojtAQX6o/RVKjB0U1SwyA/IK+Gtf6qoxrx92wt5UZezucHX3Vc3sdIGsJlOox55be/Kp1KbKlTnhubPJFn2eIjKqVGUqf3xnBPkFY54Bi7A2Xw7miicOGQiBUfgXaQnAsc65kKqalVokhUzUNaAAmGnM4RZxgOZqe9nNmDv6Kb4/5Knhoi5p0RDqYGMJ97A/2Cc58eE5VLiPcbbUwspumR1T6ctgmBsqrm/DtdDQXTP8A6T2Oxz8TCpsafPKnP6r/AIhY8uzA6fhIUhO90PYqR6hHtAQhQiq1a3omNrOIg3ZVENd5qqHfE1e/eI9ld+0u5WGnhViXvpWPVNlYlsDh4j1CbUZQvLqlrd9vonU5uDcKpUZ8Kxxa0F0yf+lYTSZJvxhfDuYBofJECtU1v/snAkv5D6qq6pUaMqjxONiOiaadzZCqMbUEXqqWU2DmHUqwuZTkl+LlQsLTylffv+84g19E5/H/ADMwAE57hO6xKEBGFgfiARcEQU0rHr+40IEKESq9Ut8yqDagfqTr7qm1h6nKqsdUebn8QZlOd+0v8TTa1VbnVA2ZG4VFr6lv8NCoyg2XRHi806nLngS1VajPhpPDBdJVrxSZm7G6+HcwRh3kiwVamXXBPdxH1Ps3B0CDlVnOc0awmUXmPB/0g1rWaQF7la9ez3WT+LBOcoKaVH/jsjsAQ1UNKc5rhv0Veofqvhw9rzk7qm1mNTmFVpvJyS/WU93Heea0w2FWvc+JkbhUA+pb/D0TKlL4dgwI3806j9FVrcKeWXZhSSVny7Mle346E4/VQUHIj9zmG6wT1UfROcx7NCFWqFUL+I6b91RgkauROdl7BYHZgfyGFI9E73Q9kCPoiO0BNRQjswP5KCkJ3um+xQIRC91k/wAoNH+xr//EACwQAQACAgIBAwMEAwEBAQEAAAEAESExQVFhEHGBIJGhMLHR4UDB8FDxYHD/2gAIAQEAAT8y/wD6Pt/+Quc2Uas3z1v08ywxLz/+IvqXwS1Fl8IWBjEUlALLYR62Y3qZ4pniUs8MQxbCxibYYP6N/wDrKxhbSWIWZZK1Wo2Xq8xyB1g9sxe0FiSOYhcrK0w3wRZqVWsXzpxJiupT1FNitZXEGbYWJf8A7AnMrTG+gOGpaqX0JbZVmNsUb9NAkU8wjisvw4NwUmRuMm0T6CTIGpNW136aEIagC4J0FlgQZfQ4VkBkryFMy0pqBcxWCf8Ao1KLHq8zKUEutCkhSjnKOpAPvxHdwsGY+PVnjjrPh4Mcp0+JkACNi0pYBvh/McTStPpju5JZ34hVw3Sou6sqF8ZUduAfDNDkdzN/Oo1KLgEKUWNK0RMfLh8Q0Gyb5DmYzrD9BDan/wAnKW9CdPy0Hp3bXU7fCGxMpjxfOVD/AKiH2rH2mCCbMMKJCGXDLH49MQXlbni5RWhx6gLXuwDGQyjnM+0gwFbaNXBTItH24ZTCIkXPa4JexZid+oSKb6iht+KiUl7+IhdciuhpRiGB5IpZpescsyyAQDxNQI2QAXOVLxLFSpaDcO9cwEZitfEGmoleOZg79b/zqEzNS3G3EYGBoy2mDnmt5lXF4Xcy9zo0m8cUiKV0i4+1bU4itMXC7fE5ijiQ4jBG0TEyCa2juu+wS1XoeiMCJ2sXN23AYYocuaBH9rmEsOjTq5nrLDiWJdGAjP8A3y63h1H2u7EQFWvS5VEhYdGvDO90H2IKyxBSHEQUWird4h7xCpZkgN9C1WpaL8vlhjFfUale0+dGAyeRBp4xgqxVOVUZN3Ci4bi+3iKVS92o4napeP8ALEHaJgqLc1KXogvxlONQKzRt6Qa4NvtFg3pBea81UsQdughYqvMt3vbGyYOql1HHLHjLzwvbKp2HrYgS8axxneuAiVbfNyqnqobSGskDqqPZbVLjuMclLG0rRPwyF1FOmiFXtALLUfIRF7aiHqBsK8G/eYC9ji5+bTwmoCoeZgLEg7hZGu0MKidsdVCGUq1yoKFXTLn4Y94ExzIxnE2ZqNLuNbZb8YT863FNaipQrprBrmiTFjCc1NFvQgs4iYmDwrUvXlwqWVWUzXjLwQ/yBm2SG1tpS5uhiJvSAn2+ZQ5t+U99xS0TlcRDPiViMSXxwTOQ/tGy7n4w0zmr1cPVsMO0Dk28CL23h+5LxiwGi8zxxCzcM9vt1Ml8srzH8rDR8UuSaAuZERsC8Mr1+L5h/lbWwaCB51BWleWDnaun+sb2iJmQzsuZ50KC4d/V7ZKYkfaMFm2yxardBC9w1V0q9agTbWKbZnth+EZW0R+ZxkuLLutp1cuqQR1LUr3gbHVo2JrNYKTCMAfsYKy7UeOYymUjPfJdyzXCDK3IIXIxWvmOr348S6N4ZgPebH/MHGH/AA7nREu8NSliUq2tIcISdjakYE8KAVocalPTXKGrRLbxED69xEQ/AQF5THETH5mWKDmdR8mJUvLihEBS2AvvQVniZizm8DMCmwyh/Aud6TzGjCYyd8zhJEWZ+RA+OjWK0eMOJcO957mPIcZxiYY92qltoTmaQUNkUXihh9keHzXUr3/KwfaByPwYPEsaz3BZQo6alnUqrPiXiUtDjhcxlFp+4glBcf4jolgPmXn0t0dxKwIQLcS+5ssiSrxRrKuCbeIBe1fdLaRpzEgVNk0BUvEWuVNucryEhqETIusu1oVD2CL9pTEdf4QgvLU47F6HJKCixcc4374GD90l0eYdEKv0cMVKnWLHfCDUrPFGtKwHD4gr2LozMItbYy6fkX3DKLGk4L2Y1APn3nzOD4DbHqMMihTd5kImKDwwuF3kcEIjO4WLGXKI2vqnMGmTUzUuM/NmBKnq/wB4pr3aMBfg6FeG+8J8SzfCSCrx8rHCdC8y1bRSyz3TEwD1TrZXaRoygY5qpmDiVTYxoBM81cuM3KvNVNkifcZeVFfBHXdDhNIFkZE4WvUBUPE5hvmn4QtQT2yO/iDZrxU1B7kcVLKdCmLZ8Ag3xHqvGNJgc6BEtse+5hkS+6geAf4B0s7wgM8zwRXRM2yOIBc1YVZGZrKdQ4Hm3BAVvKOZVRwq0QEv/wAVDibVYYnSJ5nOS4oaiHR1kRoB7xd3Dw2ADQTi5ZPTV0li9SXPgBgB7AwQ3c/CPdNwx4PtLkwzdnuKWhTBXxCY12jIzmM4sjDz5VpOl/8ATEGeDwtxItfizEtwLrNSus+j8EAL1O37QV7o/ESypS5zfiIEZZZ735VMSUagTgMtssfIn74LbzrzMoJOc+IBboptfiZqhXbNhNjqXu0QvuFl4NGKgEVU31idpQ805MoyjrbRxFeK32YeUMJqXiFcggYWYvmdQCq6mCAUNIjQPJFjlQbfmMqMA4N1ywtYyKfyyugQi5cuX+itblSSJd7hsp0ywgVWIo1j3FFwS6IkoAdRY+/BHwlBewivOY6zIL4kNPWlSgqHwmg+fQa14IjDuIAMGZuHvVgSMtbWWF5QyHbe1xMm/BTUSqrksx64nYgkwjTyl1+VGGay8RLbaiBLUheiOY6VtDbdr0wyqQ0mCB5+3uhUdXG6iLu3LHbELGa+LlacqtxcEl7Bv2lxjqw/iYKRxarkJk0/J4m4Fu/b8Sopd0D0uKKDQG8vM8gQtlGEXseycUZtaM/BxW0peFtr9om0JNT3niZ4g1cHNYjEDg9l4lpy98MTL26BFUHfMTLg6nmWfH31m3/itolyaTV7M2l6jYvUSue0yDxNLQGqgSBYW7+0Qt2XSCLD8U4RB1DH2RC/nZZqKD1Bgy5f6IXMvEoF6KYKfuHEx14d3DfycqrrqHSYeGZ2AXIulFXUr4G9ojQ02rAzINoDUJdkU4EzSSt6PdMVZZ+JicLxgjkz9ekKMwReRjdUj7zCpq5ghFXsDUFYcyuCJsYZhVqTsef13mOZ1Nh6liwt7WWAgZMoJM7IN9o2cY/aXLROz4YM0L5ENvs0C/MZCMHRlPh27A6JL/jKmM6mreIqIrlswTFC2au47gLi/eERS7O+UAT2thWWAaiaT2RUlCt1hSyeONQRroB9kK5KxXNyoUjU8XDw44R8kCqy4jRNHXMVINaju5QmCG+ajE5KVzAMDwHJGkNFdieO5ZOLv8jNbOh/hP2DOS2jm8GfvAGADomRC0vCr8cRdQ49JCEP0sI6mQdxEPtTdtzPYMuc8wDiKHR3LJy7w+yVJMb771MMHM6HxMnyuJ8Z/fOXQRfOdCTJhQ6oxMOmAPMyDmG8S3WrWowBHojDMYFyJUBwWLmvz8Q0QW6zBpTQwb+8sPWobu50iOUkGmAWTF5kmwuVoV+YqO3dLhBxoE49d7idghdoR22koUW5JcLHFJ6vnqmAPOxSFToWxwdjiF3mL+GPIdQsowXwiGqsu4d1L/cbxk/mIpX8dqVqBTm33HsAUZ7zGTWsTNyzAXSZTJIwCOMSm/UtUWbizURRJL/bELpb5qfMfJYvaGptTR0XP3mM2ZOyzllPYHeYw4Y6EB1LDavHLBYTC9zar1cylQenSamD0BAgQh9dy1fuMKqkq+Y6kPwQWCvLAluGsGx2dxarsr/AlNl+88ws6ZExA+RXwJKKox4fM8JWahqsQBxAk0GqvK5ZfpjQ9o6Xb9ML45uarzFZrCDO0aFibZyRcRvKq/7lnuBnPGWWIxLyYnnDvjBll4lulUUQcC37JSwmJHGC3bC4c/VDZ+eQ1NVt5pCoZNXr1/eKYq4EwkO7deuqmwKZBlLH5kIxVtVLaqagw7ywJtd5CACZnye0Qa3caLisn0L+PzLCFhPDSY9pvJpxCFuQKpXcyYPN04lwCNXzcfUNzzGWp0qwDll2YQSu6alMnbc8ZxMD3aUFH/yCXa4Xz6mOhFzHe2Z2Wck81pnZPKxuIo0ruFtXBB8s/lS3ESpH+B2zNba9y+YmPp1QglelfVaPAcy0PIdx+wbEaWUYHQ4BckyKsJlf8xCkomXj1CpKqfO3cudvWkvWZTr9HAMyNLxYUKDd3aavXrW4BVPaK5jFxB/2jhX2PMbSJ0fL0ZsZi707qLi6bSO5qnODPSpRLx4Z9xEtB2RVREvlXoZxUciBVmsZJuiX6m9x2W/MWfiFAfaqvn7wUqzwM/3FQOKL41L63VaEXHLCfJk24YriPl3On4y/EOd54WZs1FB1dVavEMEPnqKfT5Nko6V0eCE0BJhNbSm+NS3CVVnOfECBusNF6graLzxxKC7Dze8Sgp8DqIDD108Sr2dWUvMFVksuoZwBKNbmA3068mLcIvNZLJba0eC6x+0Mot1O0CDvdD7pZaR93rZt/wAvMuqijYgS5cxH2RwaPxkDeWKfwyhLVL2eKUceh4vpQBmB9arzzmewuqHE1TrcXykDHHnaD5FUsw7YzIV0VwnHOoPG2WiGJ5Lt7PEbUDmqwOkrAbLSnD5jEMcN4tX4lJvifGr+IXIB5z5/3MkaOnyvHWIk1LGLwxbk52U+IA3M72GvyitVbgeBnVp3jfcEww474l54DGVxWFg0+LmYmUY+BHLHOH/qlCo+Hlhesho0aq4RANlZWh5lxLvWP4mWwD0aq54LQ32PvKjj2/4iNoPyWZVhivTV4iBzR1zhjKSm82cRFbk0G51FSnZMwYL8hAMrGrK66mWTfGYc07JX2i48smNwnmJ9wMof4Z5cfeKSxf39kQBZANIzGzVRBxgMmmNsspsuCoveQ6XEtE4OMnjM4BHnlmf9wChcHAG/bMHnrWracD+ZUH7TX1oQGIabnezkj7GV+AIlHDFq+P8AM0igOCI0ZeiOZ+xOkmiyUcTw+odPoEEVK/QdBFy40zY6lzBY4SN3sNueeuJiUs+IXXeJ06uYwgFP7wEmupS/vxBlJGwOK5gjFpq5MU7mRQBzX55jHRz0jgP58zGWwv3H5Yd0UyD6/uMUsrlsDYQI5Xw3Tv8AMZpPqcQ4QmLtiHJZcx2DjLMxlsDCnFyo0+KN/wDkJtBl9CWAJgUlsSgp18m2sTlJYM9RGUpxZrD/AN3ARljv+ISVZmtq0/8AsV0Ey6xG0RR4NTIOKarzqX3+LSKVWnk9fzMzBwecMDvgVzl/cBjMpbJnFFX4GIiSHTlkxEfVra0/xA6NfGtKgXVdVaqZjHM5pRmr2ZmLmm/UoBNrTKVqIxWq/wCqNlsLLOTcICB3cEDVpuru6lsZBsTOSYnDU2J/dQDQAg1b26l7o4I/HftEOsHNRdkMR9+VlACQ2UP9xnf806Sd88UpNTrnh9EkrDpA/Q59FgVe9yypETwPtm2Hv3G2vY1Qv0kyWqj7wmR+JDcDsJcMj3qWb7wIiXmppAUaEYPwloC7Y+EHdtBeuk7h12r+faLgtLrT0xCNYR8FJeJlfYPaZJRuEP8AgxWDNTmxCRbza3TcDHM5QMPbe4ZKj8gKlLcSi7VmvEt8z5q+EouO9s4Zk1wbpo018zVsh4/9mOis/Ez94e56Tym5kYerupX1pN7RvCa66Gf97SiA1xVubNZuGGaiihjS3/NQ1LjTWVZ8znE6j8TSoo2L82V+5PHnMUxaPGQ9jkLXvGAC0pbXCFvHNnn8zW4VplJmtkUceMQQOHetrx/uAr7cNnMfgSeygxDZof6DKz140WzfFw6LqcHjHEt5ME0F7zH1V6/qIP8A3lHapiMUX3wdir2fQUVK/Ro4nRKYfQAPp9vqOpf03mmSf62xP7gR0/woftdmdoH7SzUB0SWvzhcGrH3VKnJ7pYRnwRHBFRD5I4ZYNHg/LzL13vNQ1bLIr9q1axDduhZ52EtENV0DFf6o/mrXh1z9osx+AbnVzofQsItO4736Xqw+SJCyMKpkinX03NByhDHjO82WWblt2eHzLiCl7tYr7R62szIBC1KV5/ED3UGK/aDlG3Uw7gCsxVhOI28bLqql5M/iUV/UQOYczB3MfN0puFm0LebN2S4Z1jylxVgHaitajxCCHQ3M46DKDlYTH1NwVZDTT2vBTCEwh2wqH/8AmCGKzO5asM1uW8V5oJarjOh5Y7AnY4+WMWh+Eg8yDdD9oiXlfjgnjmLErNes+GEk6QJ4Svqr6WJKng9Dd63ujGiKcTtEeNfYn9/IcP2GocT+Lmv+5DsmiklFc9yGH4WPrT4RAftsaICuUGwlOzKag8QpE+1mHN1VVgYGssB/ZA7LB0V3HYprhZ2c+8AgeZHh8pmYDgV1nnmF1WdtOZZAfa0yz1HJkVWPPxL4hVdC68wFiLfOiJaPUsvojVzx7NzAo0eP/Mq208ycz4ECFbuDYaN9GDDApsnR3cfmg5FaltjFhiYmI32vMRWir3FrEHOlqCtQJjFUYsXD6zVzDXbauQap4iCHyIZsl3Blcywr3wX5gEUA4TAjno3N68CaqJhMSrZ6WHXoE+7CSmoOpValevH6LK9D0jLL4R6+i2dTwTqJ4pVogOIDiXaGdv22WcW9kN2QGkCto+GDVaQyYhGRDG+7EED8dS1RJxm5o693E+B5W8MUN3vqOAjGoRfYnEq35efaKlxg7zhnYbdh+CUAquTP5YQ+V7RyUv2lovg0MOLjbDS6Ue+FuKH2V9pxv0GqMZfEvLrHya/eKAO05vMbtPg0l2kYvaCAMhX7/iPGAF+3MKAN0Gbrzoji6FXhM/6ikJeq+/NtVOCkye8dzz/guVIUZeZUgUstBEKt3O5n1NVkr4JTxK/R6YQekFSvor6Pb9CvRIkHR6HPUfTcvRcsE9sGDA4J0kc4gtEWcQthP91Ya/uip+yBuH8EqFNvtmdSTjmVV38RFH5hLW5+KZgj4cw1wbKNTE08pUr/AIUNuoiQvRfOEG77l0ck/IzU/wDbwHtxLB1vZb5VUsi1kaDI3+8RKCvo1mUMs7f5O2WgwJHmsurJlSb5OHfMzHPkXO/3mLgUVRXnhKH0pVnyzEuq8BMe32S1zqK6y/GF03yTulXBMdBNUr4hV1MOId54IZY9AfRX11619FdelelSvobO+SZbJ7Y+LNoy2nQEPqeObZ1RTiL1GzWcffmDt/in9lYlBR7w0KWXXmOGItqWFU+6KVaONQK3XH80aketsnvDL8ek/MWDNNyNskb+LiZLE2e9cD0seTquLPe7WPiKL/bh/FKTBDObjVTNL5egET1v9s1W/wBlxBLlC+zGoFyv8JdxNeJi1KwqVzHDqQ9BXiVAlSpU1x9Ht619VetenOJUqVE7lep5SozviMvpPeeGez0HGJs1B6h1gnQTxxDiYMko1T2xK/lScP7WII0vi49/RKDMwOIy5bBlMGFFg8QXUQt8/ZM4WN4ZUWDzTK3NMtP3YphSWXXxLU3dILgsKWCQId8cy1k9Rv5mIolW5Roni9VJ9sIPCB49K8SpUrqV9XH6FfX7SvSpXpUrHorGJUrM9jPL06uI+MZe8xxnWOHEB4IPRMGp4Yt4IhxLNiUX5KpW8+Fw4J90x/JRcV9yCVC2mVX7gmJ+xDKQHxKuvLmGrZ7zRHvd/BOINvLud8pqiHrUk1hlAqbSpX6Z9HH6ek5+nmVKleqeivRtzPCec9k8T0PSMvpsvjMGoNag3qDPHFwg6nEWV2+2zjj7JUCsDN8wRziDMN/hNwf2p45XxPDCcEPH0SAg6lSoH1V9Xt9HH1cfSw0TX6FetdetSvRXRKlfQ2fL0eZ6HwnhngngjlqI6ngnhluoI1FmYVBiVzr9A8YQSdfQHUr1c4/xuPr1r19vp4+qp8SpXor1V9Z+uD0+R6XxngT2zHie2eyb69BOWFIesqVK6lSuvSv8D2+r29efq9p7fo+31alelYlSpWZUqVKxK6j4fWr7fT4eqeoMPQf5L2/xX6ePT29NSvSvTn0qV6pK9GHqVKlSpUqVKletf5HHr//EACkQAQACAgEDAwQDAQEBAAAAAAEAESExQRBRYXGBkSChscHR4fAw8UD/2gAIAQEAAT8hqv8Ahqa+uulSulTX0a6a+vX1a6amutTXTU10101L6VK6V9OpUr/69fVr6K/7HTX066ag/wDDXTX06/4LXTX/AD19Gumvo1019Ouuvo10v6NfRQpzNQ/666al9dS/q10Oj01019FVK6a+jX16mv8AprpqX9OpqXLmpTUKwYYCVx5x3CArJCzSVwly5fS5dfXrpU1NTUvq9Lhj6j/jf1a666a+vUvprpqampfXXTXQHgEagh1H5GygZsQAiiagrxF5izOcHTkwiHUaWLDtAgdYSBZoyrTRKcP066GJfRfV+k+vXXX/AC101NfRr/jfRly+ly6lwewQ5HcEMohphyDnAnNEtXqpQEa54qGFzV2TQCXjMgI6js38zyg2CGCYqfBIZ2xZcWbgXA4jjBqa9TvhkqjtBxBjSkmQNMDrpfW5cuXLl/VrrrpXWpX1a66/7MupcuX010sGsXY6smS2rMuHG+WPgIjdEaUoZqlbHBFSN74JwyB1q4aRqyuJegb75l4jPfglgKyz9ywRGGqGVLM8XExNC+Jv1yshuUZjjc2Rta9JuQs+JlDKrHjx+83DLgYAcxc3D1nprMIKhqrjQPcBIOAJuawhA1Flmvp1L66+m6+p+vX/AE1010et10dxGGGrpm52zGDVYzNgRwEWAUo4pYAJUuUqbkwAkrItgmipmR4XhIqkcGPSvhy6hk6oK6PM3JAFMMMoh36y5FwWRIoGU6IMAm66KhZGRL5lsJVeI3h7xjuEF14WUBLt6xkA7Vagg86HEfFTAzOJd9JL1RQPiXhjDDLFFPrKJVxHiZkrJcHN5qC47GlPaDs6LImjbSODekGUK6sM1NQ6mPo11JfRx/w1NddfRr/hcBgcROANyyMEmqPJD7QBmQDeyI1tidMMABdSiBjYWl+EUMljiAEqKvSOAZRFRpwB1iVoDTaj1RnRI1HlMQWVGG4rheEDwLFWgDmHiatSswoZQbxDEAAGprJKKiwdklGCmHkidARaAigBYLUMyBdPUsgX3iRAyt8VKERogsRNS7SgMQDEKoGB3zJAUEpFmp3olmBFUm0WiS8Mcw4mgEaOYSJbZBzK+I2BKlQwq1SmFZ+IYGVEVFCsZ5geFqJslKMHpcIvrf16+jXXX1X0empqeOC4dXGyDkJ5wArV+k7SK8kXCip1DDRDEYCFkTA6xXaaiQDWCV0ZtNaR24k5psKOvDL8SjjKZegUxeWdglhW5juIrwrRYXSkh3aKKAqXBGa19aUEhdP3oTdbLJ1HLgAID3ZZoQmKHmd09BpUcwAqNAqa6Croo2muDx4wwjON6alCJZNUMBCVByJDPEKDgmFFOHdBgGDoYAGFL2DcuALU5qKmSw+XEpScflJkiI0bzKQAvNGqbCGWJA1VVsNRRkuZhRtu/BLwQsdgaVsqDM1bibwZjskbvcYXki4lkUdj2lgQLLO8YMzE74iNkG5f0X9Wvpqvp1LlkupcVNWHvBJi1iVC7fMoIZe8qALI7zKIA0FCS2w9ibYTK2bTh5R7jwltvES70UwlqArieY1BKmFal3YNuLGoGyyyoH+bjRFM2Aubg5AAMAcRYzOr14iQC0uYS9MXanqlejTnjUq4Wb0UdEgLTjMEDjfxS2IRRieJo3CSqtrEFHUK+dNHa5YYqI08ZATmc5MlKO1xNSQY4lhKQrLXs8Snq/kWQgMTPYSAmKuVJxNhdDDDK1cJMcTm55mXMeu4yXCbktHDCzKEIoZebphFCVypYKBph0TaEoIKIufWJUAFoNPiY4SA4GWAqjI86WedFBnXZUP7CbnPkgEomrHUoDomU9CKDDoPS/ruvqvo9LqGDuyBGhbJwG61uPnIwHczZli9wMYONKqNgQHdYguUTa9kw+gqqbjwAlDugKlQcVFfIhYFXmVtAS61zJUS5ooqtRS1ol5QXGIKYFZgn8I8EJVZCxIWCahQGFr7VONFYWAAa5msJM1MDF4CEUlqoVvyMAkShWhMID18P8QMDVLXfNQ9wNpVfNwThg5R3O0MhKNnbXe4Q4biacwQzaeQXzFBPr2Gw947S/mxKYpJ1TaHMryMvsZBOGIrp/6QSF2fGL2LlVlMZwWAUWS+qOGBKi7gF45QsEdmRqX4HjGEhFDaq4b1DSoIHid3FRIcAkEMy4RXPY5UQ/Gax95vwV8+I9wbYyiC6A45XMDIyQPqlAAbc2ooYA8UlMzifbPt0yDsHS6l/RVdNdNRempcuul1GmZlbPGIyYrw6JKAeY4XVitwwTGXEwROpaqYmAI5C8RchpViZKzawyyRGqaygliumG5lwNaoO0eCc4NWI3AQtpY3i4oPDqeI9NQPvJK8BYkK+Vx8zUrk9pQGdLWmAMNDnMJMdK+CWAhVzFyzMNqlKBXPMQguIEtZmCEb47vaYRhqv1mXQJkcxSI28aImIeXJoQMDQwZhCO7UUAEb3pjYQFLj5lDAqkFw4NAafVCkC07yzsqByFbT1bnwTiyM6Epg08unymERTI/gShIPBjazOxV7DggyJieLGkqTALeophBG9SNQIYUzXwpu2MxRwvNyoVVfVntCJmK9qmaBAtl4MzTBsuttz2ADFnrKYGusXyQfz1/JbYFWFryeJfJXmDfPB4jLiJd/MmBL2NyxAoMXmEJzmd4M1DEua6j0quuulSqlk0ImPWWUqbJUyAHnmAzE3zctSHsywgYjZU+iHsxFJ9G5TYoLE2DFVR7RzEAqQ+kw4jqW8zKciEsTMqFCnEXupWhNX6vaaWkX5Ho8xeWHeXx4mI1C9Tx7xYzFX2H9xETXashRB25YIHMASiLhMrm3auYuXMczdiX5Gri9EUECJmfFRcRwtI8woB+X9ZNEhhRPWUxHLgveEwaOTCOImwr+aXJyPq9EoUYEFp8REJ8hb7QQTAfrwYcjYYlQcCBwBSOso+GCGWiUSkAlH2TEgRqE8YxDcMOwevjtL44ECL8fFTLMp4u7KwRTHMLdMMt43L3BcMkpJqhhoh/UIQCH5hoTIedozcsKVSODu20HmWANOeLEi0R+SnEetmxrwWZKWSAOCJXErPiO3mOjefdFx6TMFrGU/ucAUZVgk55i3QaCEAJWjiDLly+mumut1Ll1Ll1LcWr2lcZCpK9ih9JnQBAsvSNXvCDEaEI1QTy9CGEUHHI3QTlEO6HYgt89Lit1BVEKQ5i+NrMLQ/En9oEAEX+BCRqtVSIIcQmefSIMJdhFIKgA6b4y2BFBW/NcQkQWvbAwAuI8R+EIGzioSAULkZ4I7sDUxR2RwRYolwKocT4ggWbNb77mEJGG/HMbAaUXuzIs4A+btUdAQK/9YaQEanuloT2rN7cjN4Y9UOdJiBJRCIXyhXCewRwSOZn8QUAdgxBhCAGkf4homPapvM9pSgTYu3EswW+lGWY6gbvzYiQQYAd3EAHEXibmAIjYq+A4hEBB1MXEpwYdEN/MrJPawtFwMWqh/hmKjKXGSiCRCqdAKjgFReURLCDtoGrlnQoFIrP3ixDhwhcpY9Bo+E/mU2fgx8/siBDxnTu/pKQSi6JaGmuedxM7WRcyeUReWC6hWHUa6agxah0uoGWETIaFJqG3KlmYY513ipsb0pBSKDzlsALbXdlPB46vSOEMYA9IlzGlYL7krwKM0qBanYVMbxDxjGu4HeVSzVC2eXMVgoTWfzKCiJa8qgRfij94dmP0IrbX2jiMyuJb9kZMXAMFwQz7VjGQxjQGlby7wey6SvAZBJoCYQnNZ/AQUyp3MqTNTjMkw6wYCgbFWdvBEQiurXtb9QAyoH96MACA/Kl+I2JY8fdmm4aI3E+G6/DGxIrkNdKh7wxWPo9IKRD7oiSmIn2V+OJjyM4Xcd0CgGih8rRKghnZ7lzM+JVK3ymo4QdUS3hMCJxeFPfUuQJSwDjAJE1sxrsgAlCtBRMzMkiVi95S0APjNTP5ihjhPGx95cApSm8yuqd15fEfA4qozj9RQQpZ2/4QBImDlBtmNAB0g/upbASXBouXli6r9mveZkfKp02cOZyJuAu43+YoFlFX0GAg5ArsCaclswZwBXHBMAHNYEsHyTaDyvqQinTUZqMuotdADdBWGBuHp7DAKBUWBEIXGxQSXS5QwZG/YO/rBxCDuX8TWmYAPQgAR79m+svII0nNxBegjZi8esxcpjA7VEiL9+jwmNlTiFNTZMlf/QhMxEgHvABGE8De4sYZe5q+IiYDnnEYCC1bwStIpuNiDiEDCsDiVwuHRFcTLCeQXikMGBR3BEKMbImBHbPQUVjlkDoaEoXYRIJAGJbT5JVmAFiYGBPA8ryuOma9e7xAQNlfs5WIBD0T9n6yhAQk4ex+IAQYNviZYic/gz/ELI/bvHlEwLp/hF57QEC6QvkfxuMoQdVfH6ipiAMIuGZuQCrB/GImAXntPfcDEVYdHfDMsD5rY/MciB74cH9QqKGI5n/s0Q9G/YQgS6/AbjhAXNUHcPdzbD84mbJayja/tMpRowOyube0cPAww2eBcRuUPxhrNmbgIdtJ3Cq09ZfIyA/+ASkRSg8vMAiOseIZ4EmiL6SeIbWJxG2h6+PQYl9NdLi10WKRauoukMu5Wd1I2l8JgiV1gcd0WAPbmNQ8TDoB8Po2wYZ6d0DLuqUAgsqLw2nD0KFxWVxgLqCmfA+YHIRflHJDgLHkg+MQEwlyUdsGidfLnB77jwQBnod/Eq5A1WcLfrGxG5CFXtxi4EI7zP5RlATbdDyhJhHhXvw1KZnYWMPMwJJfwRFDFY1Pr+u8HcgaWuKIcBRQ1sigAtsLw8wkyuVlCXp73zLqMXbCpsZ6zEJfaXhLCxB2vbCggiIydiC8tJmAFdgAIxx1uZk+ZckF/DEzIfQ85EBtI1fvHhCalq+DcC4HGsoSPyJXGFBLaR6kBMq+5Sw2xmZhLkujp83uZ4BGmg3EpiCHBxDMByzuY0Tm1vbXaVFMOWoMthKd5SExH+pPwYhILdJ5w8P4hNiraDkLrvKilL6YWk57CVKBt58B8xEYG9fUwC2GVxFJuGbq3/FNqR42ysYLoMrMb2hcppEeIrnrDV9SqgglS+jKixpieKYLym0BfsxUSNKmHHllhZJ9e39wIGWiSuH3mN6LjHHcztjwA3yuftM8XLX4MQsamIAsCWVF763qYrNZE2isFa3MJJJ3dx02bwhJqmXDH8Y5y8MHmlVed2yWFEMiry7ytIj5PueLiBoyr6KeS5SgBVPse0OkDGjkepTK4zTrNXrG73coQAEaLh81BQPgmLDTAvZ0fgRiiBPzBjFc+zeKtgBgJxA9XxUNIkhY2jqiBhSVYICmL5Z5t+owJgTay2Qnkwr0zd31NtJTdVN0yUi/mYgydbsNnmWgIax22hyD4joD7odue25YiS7ZrxL7wQygX9nUrxIlOXK3iEAh302EyIUoQ28jXMRk2b+rjbcBKKAt7bV75lCCWcZDjPpcYAhTsXJ/MpyJNgkXUGrzINQc22K/2ISwsExa1PkhbGOqqgufsmInDUeh24mUMy6dcLdyuTyDDdVyY8kvgdmIXe3FeZ2cCBAszgmNE6s+gSuUJ5YPEra4plS9H/cIzkPbysT0QOBCJXqfa6FcohAVCKly4tRZ4Vjde0JsEcqZAy7zbE2LZylw+cyOVa7jSfMepCXnktar9oqsDVMH3GcZh5gTqRbO94zKURTnkegCxDwShAH91mJQOKrbfa33uCKI2MreM1ziN2BjV2O0eqZNvsF66JViABpaK+7iUknV2u/7hsF01R/LvPMggXqjN1m4d+gS3Fj9MRFPMr+XEx1bY4MIREVbtTjx6h6llOxSnE1VyU3BTAdaCxzCAqKWSj7mogIHBzJ+yawzgD7rdkIkbKydviGhP11U9kZmHPA9hbzuYsD8Io5McQcShvAntFCDmlbfViyMmaCijarioOCwkhqgBcVP3LczgJOu7MAD78nqSsQM3UAgONSq1zETf/tvcWBPjKaB6YyBO/H172cR8RvXqi9mGWFtVeeIxUWGDOFSrmo0A843/UxJQmDRbxxxFAFEvEH/AFRKxM60PxVwwhfXFq9khEFctY+zjJLEg+rFdPfKBEX2FN57TK1WgQ7Lxp1CxlO/jU8zPB4liWqo7nyvP+JRAQLA8IYi4hpU/exMgm6r0j+Z3yn2mwTS3jO0Ib0ROhi7E45T9As46lPQBUCVLqLFqYMBd9p3Zi7Vw0iQXRyan2xOJTkEFXPNneVwSn3YeA9JSTITvrbTzc4Em2LwrF8bxMuI0VaNEGIl5YDJy4+IVEtiHueVZMVFXFyIPSmRXLjEy9O1YV1cFwuLWBryreQi7TPAViNGdKctyzjeP+xN08TGGETnBasl3dSmFeLythyFveMkS60vg4zCGw0Cp+UrMjhpopznn2l0sayz66smoHBFFHI7PQlcBcBGCg4GY0ad38prky6I4ezbCjU/t1Yz+o5ZOHQVlN4lhQzi3v7Q5EG+QwGHNRQiokqdrfsikUgUm70blgQyeAdc+kvQKa1TwQAS0VUouXFQMzdcwVhm4A1LPpxGwBWtLfZdR4StrDkgsZgzr/Qh3JM8b8c7xUALgvG4NMceuzjHJUfADgXImMBHI258BD8C3VPL8PErDH4z9xxXaZeweCZr8RT524KNGgqZ5mmtFu/vMCDYMmVmACgt5bGVAoNamMdaxJevQhwzQVsgeUBm6t8Hm6YvF6aVeXR8w+I23X5LydnHaGUWX2RvAZ8wo5LK0PPaXIqiaRiuIOHQTcP87/U1iXo+/eO8E2IBhFcGYhHtKorlPRJwgSq6uIsWFmMsIrAdopYsdnM+dQKZgWDnmAhLyVgloCKJSEB9xQ+4+8swSBbeBznxKWoD+xy9Z81ahy/HP3lCVTBbXX7PxPKSWMEyoXdXGGeFvt4061CzEnrb2C90GjCfYLDn5JiAOBoJrdJwgIxwJtCYX7ykEZzVJ5CfZFgC2Wa1BwHhiEBhqN2lJ7yztB1WK/hcco6n9JWUkx1or8QusonMXB0+/qD0B1rM37xHVYqXldzmCCIMU/r3i0kWxPqOcQeJaZcrRDGe83fHvOX97SngKuet37/aC7e6bHYK5ZZIfHuPKnWviNXmoKTy+uIQEIXwHWhwnYi9mGj33ES4pXPn8bRgzXJwYYO8oRau0D55hYDfgM2evibQBDaaGMQR705DWvEzQJSh0+0CtNl3QFSsd4Vk9C4OdzMBweyn7JQQZtv/AArUyAJ58Oz7IKtkMBgHNRsjdlk2+agREMsj+7A0ol8gmrxqNlDRqto1imSfmKnDPX9B1WIMWq2ifKtq+Vw4yZOwJFAFOMV+pWIu22WDc1y+iVb70z9Th3Rv4yiMJt0VOCK/Eo6SiKYFeJUCBUqHRha6FCDxW6lyY9n4bls8TT9yagO/9JiXB5itGZ2yR7gYqWTB+ZngN5veXCoGPB7RcQQqr4OAUtp95XHGisPWpeUQLyKOj4rUpC/CQno38xXJtaW4WxHip6k0q9ueTr5xEjvvhrM44KYHHRZx7gx4i1BL3bd18XiN1plelARK7JRkUUR12Y3mZ02sDWy6TneT0ipDMYEjHKvgXLnjlU8k3BTUv9OKZy78xNrE8A0XxDAHE0DD7v2g1hCoaD1dkOqa1HLeTV2leJoa25PZMJVLapwsrGcS4hZcopWen6m/B/8AOEu4gYNKbovDjcLSI2vDPfVSsWoZDd9ir95yhM56/UQsSGjNKA5EIrg3tG5F8mvPY5gGRG5g96PQLjfu/kgACjL6a0rvVRqHznhStOYMJBTIGv2SzguzzyzSJD5ly5WW5lkQwVK9vGKSs9pGBXY1X5ggQZYeDh7XbUMAo4atd9Upb1dDZ+TLAa5jxhaSro7PxbMKKHxsVlcShANA4hnABSWv6holcq0TGk/zR/MuWXPbEjSQoqxNSKcdA4e3QKwr0KlVPtDoCpmWkWKo6gwE1GI3D2GZpBeTb7QfhC1+8wJHz/cwpDxr9ovDZ6cvvDLov3JkGcFMrhATXhpyrWWzMMBum94lkSndPzK9DdYKe2yUhAhsvrVTFWldF3Nbd5Swkx1BwHkIuOaTGGgvPpMpN2Z2eVwau2FBBVpch37jPeP0V8oocCqwzEBkKoWeGuCrI+L1G0TejReoYg4bMinIL7EtS+tHFGBL1TrMBAMGkmwYzoUlTIBGDISvZgVs9xUsmMvXMhzwQYTHkbVmRLzC+U+vKYEQaHD3a+80SZq2OHtLvhr4Vk9sWytM7nqi3JhC2mezSJQLzBwfdqJWBwl3Lp76lKeThFvcsj0S8A8iXgEFq025d9y4s143/VSkZUt+D4NhK2S0LVjHnDLRBTFoIraGHD9uaOJdqCVRcj5XcFse9KrtFnDHjE27KL9BWLx6xwALhB2LlvF47y8IYVjnyTmURf2j+ZuUaweIDCXZr1H+JmU3Zr7ER6MGDm7QiGQBiUe0KUlMLQU1AqBcCBAqYSqlSo9ph0GCfRDfEBwzPvT4Y+nWDF+GeEuEyx3UfgQRwY/2zHw7zdXyTCWK4q/ER2UYs1ORAOHmZ1KW52ocVXnXMYRdVt+IIAXN/wDSckHVPmte9TsTDTYhQI4Tl+LglGK6fmfVlyI/ZPH3X8xUVihLSqJbAhKLuyeDxpxGRE3J7B7t1s1L21WNEoCFrC3BREWpLccCeh4mRB0MAj4Cy4kJLg4SrRgZuAxa841TqrVbm/aWBgfzW9KZgqBSdx2COjHB8GfpjcSCHbs38v2S7wn4o7fNyvAcnZhyar/yLUDcaH6IUBBUg/TGqRysdYaMxsDA3TQPGSswZQGy6091bqooaje4EdgzuWJg3qTumc6oltJWKTWaxV6iJgmDlbOLZpeYJDtFSzQ84Ypu8QYRBmx8F18ymFmc7bXi74hAAKTV6iAnIwaJsg9Z1MFccu/Vl9KA1xU7gYOGjUq8Qv8ABCJXKvLqBT0Ap4gVAqBAVCVCBKlRgliMfAlEKD0A9s2EH6OYMBP4cRsupDRYeslyn3RkPyFX5KnMH+eZxEeH8YmSSjGeUzYtsq4vUPDdTDpGgSqYqbBZ3n3lYJSxavlC4T41VClgzIzwO3tMuEJle7aMFJyDc+VY+I8BbuzgrisGmXT9hC2LqB5XN8Zr3bkaPSPC9ftHkO7eYkIp9XKxzNEd+6+YWgdiO9AaZbWLZpe1Ris2zaXS8JUXcqLlJLeln5h4ktDT0KKe4H1ghgu0u0hqWNrijtuqsmFF8livL4nAseaP5kPEVaqFflGUEgJop7CaWATwyOFX/pMCQlg1Hl0Nr8T4szuYWv294oAxjCOKUYYqmMDLC37IqEQLy/4lcA72ssgHl5n3QDn6ivcW1crFLbPtDw9B64K4RNeIBqFfE0oVgQKgXCAqEqvaajUuV1aIlR5RIp0KYYZ4gQ7PEaS2hKMc9AJOzmO9NxGOXXEZjoR2RMR0MbSe0PsYufe5oA9d9pi/WfvVND5meVLl0l2LgUDhJemQF9yZVLm60l4Q2UMMskvJmcTYQNi7DP8AEREfzMgAiNE7Zb7MQP60t3gwfMGOxULtPddYlKJ132JMfHvGwYktpRbUS8TXD3Ng1fb7X2gQhbRN9CuIyV33LCgWdqPYinE5zFzXoR23D903khxF1YYgIhYfm+IJDLI2FFNVVdpnAIYPZRQKqVAsFwtLZvANdpQXWdxfI5q4aMl0gpvkaxM+xNhSeO85hVo/jtLtk73iib0TkV/eeZYcf4l3QDsBhzPYfjoheREOxxiFvCoPhPAQpjoBUqoFQpAqBDEsJfQpDHUfEcSqmEa3GETExzEnpM4iNZ7EL0yRgIMGBAfkjACD/aHwP3NhswP/ABqFl9iJ6TpAWIdah7hTDUnstfvPxgLmolYxR/mMATzR8zEgvw3DAZHhpqNNmjBZZDTE5bqFRI04EqSeF6Xf3ghDpu3empkkd7q9B+5mQOFyqTaz/cwAjkFKuOL9ZTEBQ8H8mIwIh2A4MC+hfmBiM1hk5LEv5mHeWKE+FdliQhFl4W0Lw5qsS5E7P6AyV4lgAAR6jdzKALthDI3KKMH9p2k4o4gYmYXw9WWKiaGD/PvE2pKYGfwS0bdq1NrmCRXiAy/+IcOEAQD1hGHQ/oxA5h4gV0X0Iqpg6a6YSpUw1GiVBpGGkpjsnZHi9DH/AGIEYKfHpBP7jFGY9FiIinOjJBYYDg89usANBTWk7IjYWHnUeZe+b7Q7acCs2PqK/wBzmZ9P7TFrKqrt8M7UHcuXQNt0ywazRxU4RWu7+ZisF4pRgIVaW8/eiMARQQe5LY+puHihsI7CCyrxhqFFwIGazED62PqyvIaDAsCG9TlseRDny9X8TCVBwQ5HholXZ0vtSqFMH2QT1lmegBWIU1B24hSHKLEqoUTUqoECNahc10MTXTCOIzU1MRn3dDiYZjSVAMZYalIMuz8SnYjfyjff2iaDL9dFyH4lOeUtw4lUTFH8E+7E9IQsvhKs9GHhBNRnqXMxci5krR/Smy9iv3h3I858k7Smick4O0HDY5puKxla780qrNuqZuSdvOYgDbypTADnqYRFx5f45h5I351CIPoBX6QicvScKeqhSCsICUwJVYlBKqBK6V1YniJ0BNfRVRx4gVKmFjFTw4+Y4m/E1NTsnw6GK6Uf6o8uJSZxrhD8UpFTqD0UowagkSz5yDv+3SEUwgMsGcSdj0dYAH7pJ+pGQ4E6P4ZngDbavzEzQ+MlKRjhlUKNKwf59pbRDS69BO/AaRVHsdB6IlG57HRE9EIwnsQElVKrMqaxCKDHSok1KroOlRqa6V01B0RlViDtxORKIqUEo9pRqVKqVWo0ge0SexKlc6mEw8dCYdkxj9vtH2TDUCPpRBj+okzB+6cHQhcFJywWUIz2QCKYS7JgItDE5rMrGAcGIUUdDTqKJRg+gUd+Jjgh2hCqgVBSVKCAROmujKr6D4+jXS7jXTUupddKIV2lQKgxAGJUSpqGVxP1OZVTKVxHdKEYpE+ZYj0EmDor/EaxExgfbGRpuD5R/wBKiP6RgqxSAQCaxB9K6LYJRCsIKe0tD0IdBVQtklV0riBWpUoOpNY+lKlQFQmpcuVCVNZn2dPEzK4mpVRqDE8TWelVjjpV4iVK4jx017T0jKYaTxGkdkwmEdmoUjSUIwjlgv6xpM/SVlCNYSZKQQV6JWM0weyUZYEqoYlB0JrpVTXSpqV110sMSumprokYOmuuoY1NTG45ly+01DEuoTXSqxKqYSpUC5UoPKcT4Su0rSFJVRgCVAXiM4Sg3KuAZJ4Rn7HRUhzJjAEwmGpSeEKQpAlVDortElQK6alTXTWoQalkXt0Co41NTUuGJqXXV//EACsQAQACAgEDAwMEAwEBAAAAAAERIQAxQVFhcYGRoRCx8EDB0fEgMOFQcP/aAAgBAQABPxD/AOk2O/3337v/ALPj+sr/AHfT93/0fXf+gpPsmDkxzn0fX6YpG/D/ACgI7NyPQYqbzfHsvfY2H9/76P8ANur/AJ2Oz5vj2M/jgzPtoBrXfPRjWm36eLv2cxT/AFCP2JgRgOtORWDc5ZP/AGxX/qw5l/fTt/x/s/2x0bn/AB5KZi+eA/8ABz92C9jPLGS1Z92PTP4QRq858ablqOM9bJDdffP+UavH39B85/OEnUZ8eXj6Mk/TWXH+DDoyeZY/8IB/62J+47k7tA7MueQaJ9z05uf+mdMjqko3+sf9fSC9X9/I9z+Maxc9Rn3RB1nO9Ayp/bP6cgvtnodaDhn2s/JOpzqJN8Me2e6mxE1nwwMgZ+1Co1lmAoyN+macGPsWBxHTO/kAp97z+sJhz5cxijPaWdHUZ/KCS30UR9hSa7/4MVKgc7JnxRav/Yor+Dk5pHxdy7b5Y9ItXH5sxSG2dM5vZgOrfvn/ABZNXs7z2cizM19OfXS5nPdjFde+PhE/Nx2bztdm+xNgfOhqazqxFcwefUzSfQRfZnZuBFwPPpnhzq1o7mmcvLH+Xd6Z0EBLGX4zo4GIajz6ZuxONEa6xn87JkZ6mZnxmvglyqfWM1whvGpz96LhemceTlbUGd8McSX2z+zM2zbkO/UZ2MgnXndiC51+jn78eApdfpQrf84t/oGM3sZbDIyCyIzgLQmDNrNbsD53Yz6P1Pf2f6YnM4xoeXViV8c9ZCO+epBWy9c7khrH4Zcbq7nTE49kbEd869Gzfc941nvl0u/I5wRMNCa9815SeEtzyo6yakRFO6C5FRvzxSpXqZQAM52gOf3yabT00BXq9ImcuyyeU+nXXbmzopjSJ0QznJ/SQA5erh1UjgIm3L05csEH9DvoJcl0JdUKpi4zjJPOCHud8s7fdxb+ufHBBTl0Ax8pL3zoIh/FnVyKSNOeNIHpPvnpYjd68ZvhCMuH6YAXSe4iI+c+1CavqzvhJVfxnjwsYbz+PFrxns5urefOIk1nuAf3bf1UuYjffHFT/wALJTqNUzb+xgb6U1L0E3d+sAFGahd/R+j72NH0cP8A+QU58oKt9CMzJJFP8EnnD+NLxzBGebMLyfHbP3yFHXm45z2KSKQdu2dM06jUE+vTJRC3gzWO2dzAl0UPTWR3HNZ0zuNMYw0aclSm1I3jnKEWL1gzuQkFsf2nOkh3j0a9s2wlrX27Z5ATLUc/DhWmOh2L4zos4Ymt355zn4M2Ip2PQo5ykJm5DBAZPJ653xDpRm298fRTepG7AO7vLZ9Xm05CjjnJoTY5SLFbOub0XwEEnmN5RGiKTnSOq5JrxlhrwKRihJQ79SyxauxcIZnRPGeGAMrjzmzAIwq4qbzmYY7ML6GfkkGh6z25C452MAXAyec4ABLGD3azsZnJlnhNZ2USDt58hZ2kc6fADX3zZCPs8Pc34ysAmehrOpME5Tc7EIfsntrJ8yp0c61U+M+6nE8Z1kQXiT31nz4CKPpBj/mgBGf9p9+l5070f4Or/hBjIyvMDeHNjs+zCtKM/mgY6jWVBHW1bHacj7kXSHnPbNT4pKprU6ic64Arwnsjjmqk7OAPxzzVqKAdX75yE9JEJmpiYnnORs7gx4RGHrkQcKTJRfE852CVgB0pni5wpiWGmfOWmInedvqEYRB7zWVAu77A3l2DgS5X/FhGI8ofG/8AFB8jLxmBhaRyjEbeDaFvdz0MwVKYZ7OM1hBCNF6GJhzSM0crqletuB8q8i2DYdsDypyyUbgnUTdRl0kjBhFcSOs3jF9LZEwfjUZzYjWsfA9WbKI7IFbcu6GanU4J1OUQrQID5JWfXNSQYSSUDJzzjDkACO/jOLkjwBB1XODIVx7986sA+U5nkjPKtpUNaGQzmzAs1Pcz3EFuvfPEUawPzWdfBxbcxuOueKAqCfS95xxmHhB85qzOWi/xedhN8l9NY+zDwfNr752MmcaR7zPpnWoY6g/MZx8lcUCBqmJy4BrdE1y5/HgVxv6KifBB/oPHbHozo/To/XE/7MOOfPnGz14DdnjxHbnPbAJ8R1Y1nMVLgLxzDeeDg4wiQmOuLL7PVEEddW+mVZhukS1xrO+wYhQZxAgYuE9O1GV4iNMrBeZYe2JaGNogHgGzOiPpA6uJiFjLm53wEJsTUVOH0WEBjk+xRkBw+YHIKROuuufFGVgLr6ORuftol9tv1UgmcT/BkTwuE4nIQRu9yxd54gyMvtvpQKR/vyH1dZ/DMek79M/iSHR5+tH8Z+qEf+DJsjxwtPnNCf6hRPl75zFgdRRIh5098LL0jbyQtN1zzkhIjB3O1VEcc5pYeADdUq8BusOCcsY8WY1RTcY9Ohcysw0TisK4AmIIKIZ3z6YCyJ1G2qBCI7rOE4BgQB4Stzm3EKqpPcS86SRm0w97MpjYIR0hf7Z3QCHAvZWM7bY7IiO00986uJBlftnfMJ6JnoTOe+JAIYe5BnoRGeL9jPGMJDD1ajtnMkBiRj3XHtnd0GBj0WIz17zJGZXy5Gaebh6zUjbvjElmvW1HA1KIesma/QFDhan0jjnPXifHPk5+79AxwLD9H1j5c42fbC7592SbWetkWITniAXjWRRnvgkyeYOc2ZnMXTymupnUaV8WPQMHQBfQTTg85QBeYorre3GaEiUeZwsKMBOd9csRcTSOM1hlbLE6T65CXH6WQmJPIZzqdA6YimyFaZcUxuYXISOvGUeqW9ZkLBtIvC1LH5LMCzNWus+SEtRqDt9SI/MffiDpqAzwwbEmG6OgeUz2YyKhJfVz24glSH8ZWCQ/JgPJ742IT8NQ5Ay3EYIbCs0HdjNQgLBud48W5wxhvtNEJ5c+KbZcRvPcjP4Dq+mEDrPsc9J0Yy0Em/LOvXP3EDq551cz/wAtf4QdRfbe+ABPU2Q5tiLiOGyZ75z4gMAJUhmlvvnbuBRgqJJTpPLhFR2hwPYMjC+ucsD1KEM3YIcZ18Tbo1yw3l6Z12VPdRJ7Z1nkMoB3JJ8Z3Ms5MrG7c9s1EBonJ25zyYm6k+LPOeoWxx/Nds6WMvB7xn2zo4HF0O8ldaynEKt6RU1MD1zssjIiEVLDvnFOd3XbuulFmMNx0/nStwhhMzvOlB/BzDRdK/TOuiflFobQeOhn4TIeP8rA5yf0R5j6M9H+d0f8qjBH9iFZ29PovlSsb/grvnrYsFAgec6kQ+VCSdLrNx+bK2ds11jNyZXGJYFrcB65BifYFEjDIF/zixVs9mGIe0+2WAyGgkBWtK2uInOCFw2ywjcxkoPvIkJHlKdMqRiIqLoaelZStcsMQiytc0EZf8C2VAiCZZk6ZbAVgQyWVJPPXF8AOUK2j2WcvyPrbxsJ6GSYHp9xz+XM9Dv0z+7IXdPpYHiTPFLc/wB3Oh8F/kK28SQVgJhJ2rV2OuX4jf8A6dt+mRomamOgoK6RmiJ57upUK9c5YSSRY41N8ZvkQ+iWSoG16YWQZ9LtjX1jPJEGJDlHrlcQDybIInSs8gYNK1D3yhITbU0pXUclAEINdfC87ALc3JDn2NTsRlYS08hACq99Y2ZptBY4jZM/LMyPoS9eAC8A3QS28dM7WCNDIiadayJAv9iYpgB6dYmHCzODhS0mEGtMOc+JMKRW5mjLUXWkyY2wxzG83BHaYDOpGY9s7STOrWeAva8pYAvSWHDnYiZ5CPZz5zw4KRhPi85MTpKZ+af2yKI9coAvMDXpg8j1QiTjlgrlxeFnaWEImRvVbyPk/oCoGxhdwN53x6nAVGW7pNmeM7sMmo4jEtxM5tgBllCiYDQrqufwgmcbXOHIo9nT6e/xjCjj1z8pDZf9td5l1fpp/az5z9rOOdWM9oHt3XXOYEKklVdufugEIHo5qhKktxdq6M9tgh5xpJtjjEDHONBLWEbKzkcBYEKciGYdxnMlXEGSEoJSN55/n4jE7nRzGcuFirnPRxxndW1igFCKI4wM3Hkj2tQEVOlZQQnEZ66BMzmuyYGEupJmG15xKX003QQEkip68ZR5o6lAhEdM1GdvEx8aNxvJ4wQpcq/TwlOI7W5Ba/GeUsxeBgA+eM44jySu6909M0pCGQmOUXcXjZhrAEkJF5YgUUB3Exbz3zWkIlb9euc2Y3ZYzAG15rJEyzoMxMEOOGX4Bd0noI8mWhiAj7JPUGQ4Gn2he4m2cnBId0LcFuUSMuwDTRXJQYbpc6qBgiSIrsWc0Q4JthJMbnLBAi1eKz8EmejoXnKBXSs5gjjj9qsSCOCEWGQhSIQqiuuc0ADLY6PJyCI55CUIqcTRKGduJcjEIW20idORhlvh1MBHVVZhJBljRBFFJctj1qnMzpYxGAUXaFxloBXw9ShIMEJUZw4pCFQIJhddM8+ZvnAjI5+MsCR+gpE+Gc9V3CaoqlvcywEb4t8Y9+bYRXJvww47PXJKjzpMPAoIH7554xVBDVetWQCHGFNtLAWP4wUOr7wjkoKXW9Z0Hi+4ioVS2Q+M1DtoCm+WdwG7yYKNqu8g67VljFwCD8pfsZ/yibR/P0U7/VNc8vpWfismjR/qc+/3P6eedX6n1cSYx++fFFKITPOEOZme7kGQF7BcSQR/WWHHKJo5AHWQvj/SuMyTmCYehOdoI3xjPCSCM4IUFBLqAUgHIECWW6IHRMC986fg0ibyg1JEzzkBpTdFMzcqQ1JpxFHI4xCEhKDby5HgIiQyxDswMzojJuFo4JAsKTDBcTgKJVYKSRiLb4MBmosIFYWs86LyWCJMkvdEQw+kZJmAPQLWBdsTGe9gaR0Li6qEvJUTm9SUIDz9WJyRb5cTn5Eg5cSikTdneM+TBnqecsAOprhwkQyQZ1AljrEhN9en1hhr0gfjwY8kR3Dp1ZzvZH+BgRHnUiOBd8GceQXlLAzB4zpYMNVoKUIWAW5yJAntkJD3lnN2R6UgC7GiMjzNVTiItzagl65UANmurKF1pbghGsaKbkINkh1nJEAV2Dw4uDQIqchzBPtgLWihbL5x4TUoFMv1CyCHpggCFwQrumZymis8oT7FmNsB1eKkBdrUbdGe+pzeABhYzuAk9DLYCspCyRomNSXk+ZiOAE2iYlurzpbV1QliNzZT5yaEgtIhhiSZTxPfNuQmqCK4CQvYzyx5sg9PTc5yZnUlcbCY9LMOMBwJA0yCh0hM0mgMQt6QR642bOObkjzwDrmiqvjKC6aIkz2HJk24p9qVvgSa3u+DgPDIA9qgnEQZQj+HWKDkI2nlM9rQ5wAgXQAzVoZwet5D6aZYfhktXj75+cYnn1/RN/f8yWK4Nhh8qAzp5DdEA6mOec7sTkTMlJFkrCBAE2Ba4J4vOSLR1IQq11Em1zoAGis+CTE1J2zfWwJUA5m2ODG3ca61N9551lsVG7YyII0y4yjkdvafmGs4ohryidiAnFd8viGDPRMLKIqlzS2G1lr8AyciZy4EtrCtwGHmKypJy2QbiZkrE3k2Jr57iR1SVO8lhKVJJ0pF6idSTm5NywpCbMBtvrlsBPCG8KwGBX1y0RSNMkLkER3iLzaEj5NkuEqztnJAGMiqdF6ewzmyIWwiUyzPSs5pnK0kg2SWDZlKRaJTeRS62XnqADOr1e79Aurn7v8AF3U8DoR8eBQb+azjgJOuhceTPQiCG9ghdpnEIwgLQtnby1WTYlJ7dAGnQbJzVmIeWTELqGoOu89sTw1BxnNEzQWAqsJRosyjM7cqAoCuxEMu3JoDP0E6NqofDGUZF7IN6wW3uctTIsUEYxMLFTPGbYkmJalQCFmqygA6A6kG0gXoZ1UytxTLF3LA2Z1uwH2J8APrWdwAfnyMCZnTnI0KBCExSGp05zRKEuEJGDXMRrO6kSACtQQcomNAQNGlwcB3WETaXGmFEAaWSZi8qaIk4UbRJBmathhYhVqFF7kzJMiIZAiKi24DoaQWxBd5XSq5iC5QbVVbVz+YQmePujP+wZKu1z/hD8hv9s/ERavHg9/0WbmIC/8A1b8NjobzwQEqU7EplgZxRiBksGCTlzolm8AIMVYUnbF5DmsRUDJEhIjDxk11IdXMQ5BGWnK+KhpjHEkCoZWMuSFyFIwC6k8ROb0pxMObIpIE5DNkLi28iFyBNQwTmwi8QZPJVJnB5LufHJk68TrCaWY2wYpEZdrBrLYBECouiBnWk5zqtW/aTmIIRHs05AGtQLhG7SHMW7yzECsMqgPDDW4yUMa/AIaLm4vODIp5DzuOo4OImMoJFsLUc5pyL1WjREIURu8myOzoF+RpYsnLsSmkBR7Yhjiu2KiKiIyQQiVlFntnwYE5y7C1nUgMi+CBtTpFZCAe4CAsRXF1xMCn5IJBFhB3myQfSQTqEHLuc6SSRjHTKWRtBzJtiDWmAO6sZp2c1kg0vInp/h8/kY8+u8xDNZ3JG5WDG3hF6jkMQrYQjpO9FarJQTi4lYwhC6QC3fKkCAZjSAJSX0M4UB125OCoqmNGCke+ESk9L2xeHkV1BKkAQ1Kgds2JmhT5LlmF54gAaV2CI8ZGWMCkFyAlE1CxTkeBz4QNHcJzBrOJAjSBIREMpTfTK4RF0srGladM25gpLkRdUBVyZ5djmTDEFNdq3kVB6giDcwcRol51cT/APhfROubYiqID0rMO5nm2P7+oHb4Q44jOXIGaoGTCICsRHOXhXTMBqoEInoSkZzwKsMIRmiFhCRk0A4U7SKOQmaNGdZBz5U58xGf05eDodj6MZ9flgNv7vtn9+hp/QnI27es9J+AzEN5/zTIPA+7nezL9xzw4B0V+MopgG5CDDXL0kJxVWLrG/kGMMGjk4TNTYxQ4iUbtyeFpFE3SoFAIiXNoDNt0Usc6gZkYwjUXjaBA1bC28qJBRiFKyTAC6Tl0MDC0JJK4oMg5ZCXNFWRTolIhJnUA8XRNsyEWDnFYPuw2DpJLh4bN53+UCiyTO4mW0kPqbkC2kSixDlMjT6KKUgJvRiLzjuB4LFgLwtI1nCirkQhAEiRvveFm7DYWQ3FgRfczTkUUMh4BkiaicERcvhqhpjXUjKwpJLA1olLOcrCGHUKQEsKTMms5gQlHgaCRHuZAEOCSopACkAhSKXN0YHteVhQgKq0zrAHVUHspPROudfMyMsmNpd4mYgIpoCyTUzTxObIiTHwpat6lSchwBJKzMbb1WdSI4kiTJRsCcnMaYhv4EYQUQkJz8YZyMIkYrYNMlrIYHNcIz41lgABbfEsZoDMNAaaEh2ZwzGWqAPTIYw1C1KWAHgb3WdNBIjfB1hYOsGdfItSnITy9R0mbQhEidyIO2NeXOvCV5y7P8syMo1IygYQC1c9c88ZbETkiIszedPIJokSkJLdy0ZU0AwzIbEXYCt4DRTikKpoZraHEIKZsojoJj3zcBIoCoLBLM9Cc01nJLFoiNJYR75qwRuYkaIUcywZvQA/gcTgoD98oqmMAEGhyS2EI3ENZqBptCQIqaSJakDz4wUU2SgIiVEK5KiMcWwxgbZnomT4lP2hZ7XqHPvn55j5/WWfh/wD4z8JLs8+D3z8hloaPv3/RGTohCe8U3Xhc28To9L75/JInGFnwkds6eIz5jgEkGpr6OimyS49UcY6FE8JZYeWl0pLZUSRImdmvubSoDEpPXAybTCMCKShSNp3kZZ0kacFNsNoQOsrKVyERDZGSKDgl+XoqBpYECaM2PhMaXOJmdEG852yORKhhNQq0zTyT+2MpRBCsvTIQTH4YcSURFTFGbe6C2bYYLIhWYhzx4g/9xhkZIJvJkUVNcMyAQQm0qVTiWUDYwwRAQkc5pzuhDqhzqhjjNXXXBBgyVTgiU7M1gM8CBhCBaWcXGbSR3zAbCx95ec5oFukeN5Q5XUBlaWL5QZZpLI4i86ghKGCbEjzPUwobmLBkRG0XJbhzU2YmajCxO1u8h5JHKrtTQryLDllNxVQAOpEBM5rzKeSJRmSuEV0rmRePVrAjchY9HKYnn4E4qhEXGUYNLAyAEmZtW+pkKRZQiWIJJGZZIushjDH2HbXPuZx5N2l0ipId5RGeYiMoaQAa6kmfghhmX+2S5hyUAkWHW873nlgPWV4gTQEuy88SJ2NrlN3HnK4R2lIkg1dzpwr0ox24DRoNJKyGcgCh4BCgiTSVDkDCtaMEa3b5G4zghRmEB5EwoWHtFlatbT3V7pe8ouishhDIEzwo9c601zxKowRi4gzTFW5UD8UhLtUvIMr12YsgJRwbxdTIYmT2JLGECU/MZahISsb75FS+wSQcFsiFyhT0mMggwBIsykEYLfjFKAIDgAQ7wuXcHBxBqDwpBhCST+YFsvDa58iZyLZ7hXdz+IgSQz8xkF/c+2euD3u79Vdv0xmCxCtYS/rDIvwH+OXuc/JDnGe2o8eugbLm86qBx3aaOsGBQAgJiRqBVWNjhR2cMZYSQCT1TnZa6msnLO1CtuVMq3LSwIIRpIXZiXu9XNBWNjAWplJtreWkOtI1Kz2das7XKAdJgCYpGQeI/WgQAqSIAoactR3yjpk2NR4Y1lZRPGl4Epyg1ct5anc2DVI0iyGAJmMkxCrGIzoEnJ0OVAlXPIwxAA9ogwq1MVpJQ1JEykhYyYgjAAsIRMF3c53C0aMm3wiJyEOVsABqwMWCAtmXU5sIu1AZUE0GRVByhgwZoowttcGaD6N5JGu0pAPrkCRstt7JpEiJ30chZG5GVkpIqCZcTIkkkQlELrKiM4dhCSt6JAdYz0mFZJju4licsl8oWywqIPwzMPBnNoncdIiQUF3aky7560L1sIRyPXGBJdGK4sYKRWQrOlML2tqYRM4SYmc4cFdFkPUOy+uVggGYcJJEL2ZrSHdhhrCUPIRedGAqxQEQXSWYG84gr6SrABNSYdGepAN9CUTLSem4tCAUW0akEM9snoYRpuiJVl1mmkW6YTHURBPGoy4hU6VMcQRTt84hYHyG0CBAkkGb65MgVSSHUSiiAM0481bUFMmFfRJMlyCPQ1mWCl3TeX5m0JsUQCzzVckWTZ7rwOiG61IphMQhG6RokhBA0ksDCbq51EaAbrCt5F1y2VKgFggBsVAWMQcFC3aNNzN1RxJDUtJLpRS+SM/vGertz8shJLWftn4QZX+yXuZ+S+/fz+leVHNPvW0Gt9vR30HZ6Z5oHfZM/NYq79s9HDfg4d7R75JHzn5TM4+hC/gh8/Qk+fcQcUiwz75z5G9Wknn2M8mZ3eCtnDswG/SliImJ6yy98gfDZBUgRISSUhhTEC9p4CyKOkB01Wc51e7ozKMIMvjJCuwTN15LMgLIFvIG7nmqAggoBNJS1uiFkQaAJagbBrHIOBL2SF6lz4CDJmLcmgxlw2CxNMOQBidTAdxgIKGjUvEuZ0l4EE27DCCCXMVAOAFYnBEhpci+IRpjOUsxc8rsjJe/02p4QKrNAhWtHQRlaK0gkmmAmWSaE6UoGouu7JXkmoaIgUhBckFAeMCuWtpBUlmEQoBOaAiPANNUN9SLw0og2QnFMoXbuoxWugGCUEYgzruw/R58kgldOal6ZSgZQyoyEGiMblmMdgGvYzUUpzAyJzGWTlulcKYEIA+oy35comHStEqgDjFjEEoERAKQkGL3l83G2UlWiOE2VnoQXxsIFxhdbM0tF3lEbYQud8cvTbKmxt0S7ocucqAqtkigSAWu9L3ixeVEQ0AXfnLUB+0nhJDvEmSMDcht1JpEJ4ozsyOGVVhTJ1ABmQuxBcW4ItDNl6F0Q8EIiZ0UnNobZ7RVDYSmYU05WCf74SiAoEjCKsIkfhyndEiWKGGN42AqljLyCLqCIwmacnMEtjozLFUEudiBK0dx9a75qy9/2IHY4z3gy+N6/vPxGTpr5gds/KYycHYg/wAa7ZfjPj/WByG+8f8AYP5rt8p/np6MHPYh/tCfnPm0/wBpnpIb8yfjPx0OQDPyxnXPykvrOjA82z+HZ99L9s6cX3ui2pI7znUkPeSU+c9MRXSbCPCJzk8JV/FlJ5ywoyxCFibJZIssGbC8Owa52mQG2FzTHIc9pgApAjyObOokAjChyiLWpcc7Og5giEI5EEDSvYe99VZZEEYURx8a3Z+CMSEtVkWc3hr3o7RcoCAyUSGED90WGJGBDq5x60LbvbwrFKgtTjhFOwtdEAABSpTORgRtisuqdsq5WSGaOuhSMCBEyzmwIVoGGLFYgGH3nyJZVA0iI2FTreSTTLE2LSEmyB0jLsTUsiFHF1JIu2RDojhEyWOgmECjLjAAE4oFlELQm4zt5joJSJkaNw5OsddOEcUKDGuMqbIzgOqCWsoSu3RICSO+O4QuHpnRm5BhOQXApshMuLFCXLsQkQxOzU5pxDe1d66MIbLzsdBamiQqaXjviPQatYCBBSEySczk7jl1i24iiQ5nNojNEI9AFBrQRnUJB6JNbMIRaZ3UmhYLoYYcwkImlhJk+zQpBFkTpIlzcgzYYlh0UAjtFIgedEgIBppRgk5yIksJYmAhG1TWfOoHz34dPsM/Hn1ds/47fJ0+JOf85mjr6sv6NmGabLfTx5IH6uejPR/trzSu7e2G/AnuueeT/wBiHxn2Y/yp+c+dN+AT5z8oHL37Z+eHF4c/Mf8AnWfgn6M4IHT1G87kLPZMNZ/zy7Vs+c9OAwqEqyOxHfedVjRHcah11HmsnGeSwM0hDyAMYdQ7/tQQB2muuP0W6DVVXaypTIiLW5QII3OEryYFICG95J9NgKQsiTDaXY0VzCQCT9YEEd4aYG1LleQlNDZIbvVPlaNQSF2jkOINe8UVyFFLgtM2dL365UwxWG4bM6yYN/RkCmGI2Rmhu0/mciRNLQK+rAHNhro8HvxGWVnmKJkyglq2YAjNW2PjYNFopAi3OuCNnBj0FHUWW6B6NKKNyT1leXPLkfsgIhGS2KQOOfokQB5BBCSxbziJAtwK9KCdTUnOc9YTwoE7KTDtzr5CaMfARsMVWK2sKYclW2FDrTVyJCWQWBBOgFTrLQR3ahTQJgSxpXEon1AxhDtkBGSCXAiOU1yirNLGADBkfKtpqfLCihRQSckTPk088iWkEk1nXCRg0ptToFUJOakDtiYR3TYczn2gyNIj19c/tpYTg5lrPJj39++CDz+jQe43H5D9tSZ9kXoz9n6Y/qbahai6W/AlejfmBukp8Z8Sl8kz8w3gntOe4jvlLHZk993Pis/PBc5z8570zqQO9U3qzcZ4QG04LMdTx0y9N7+xJWqzp5C/IG877DSMtmAakGbZOWxCztaJNiiI4wDZ6njg3dvOKCEJGNLCOsYpIMSlkn4heDqAs6G8+FCxlBSAVIGtBxl7LnXuKIAXBMZBCNzNWwFFmhZiFS2+b+CsiXgpbN5YxZJuVFuWJSBkvL4GwDQHMRsi5LFyxnl5gIKAygS8lSLYMriAKDLSIxUBGZOb2JCKnIWGzUW2RQCSDL2541UPJwgAwylxcsZu2QUhAScBITuRJxQjstFQLhot2xvJozXWdsGydNBOXlbQ5UCxCBJKScLgyRvLCKAhFkCTkg5mbysHPKTlEQNHbxNju1SDiGZIvtYj6oie3OPIt32dGYv2zu7F+St+mtZ/UMvItZ0HTPyWTBr5vYz/AKR3Ktufhhuflj/j9GVR67PZJc49H6oyntg0+UlwSKrzgPVFvxp+d58iF7EGe9DfcZ9s9iSfCTPyHurCezGejBvwXGflTueM/I8az84GyIfOaVnPZyDYeudaBtIKrMJPMSbLziI7QmRGRmbM/ZwHgVnHQCA1tUoooIoNOeJPZ2nsGIQhuHFSlX/M6QDfKmYm8oTAF6Y1QGgSbOCWVWUZO2PCKgCluCi85hadtCZrYFkM3Jn6fQkiCghEEst8XMIlIgDiLC1GTJEedkySBiSgVCVBKKUoAEFGhFAreMkOnPaeyShISMlYiCYgJnkyBRQLZOWpk18tM0umRBEmEZwkCPS6TpdHlS8n7QKB1mihCMkFZcmKlIyFSoFgJAtc44KeTcbEz0jOlh99yQfd3z+zG1LX45/VpsDfnqi8/JR0DQ7Hz9SJ+CT+c/ql95c9MsQzdn9dfq/qY9s9b+Dyl2Nf2O7rJ/uM/MD5JDn44fUH75+WPdFJ9M/GG7UeiM/HIbRPvn54M6/n6Knj0Z38mdQAf8OTzn3Ix89fnOII9kiOykPJ3Gc1JlLjRQYHM7jO2svFBE174GrzeGRrTYFBYMQqjhYwW6hVhCKZBGlz14DiPIILrTou2WAxVOc41QwI7DK+g/zxHBkSJFKW5snibXDIlgGY6hZJmTMtnKwXGEFIU57sIBp2U2KR6ZRkZw9Tq2wVQQVScsxGuSzKPvN508GdiJipF21vPyzfg/bPzwaXjwS9s/pCfP3egP0B1jnh/eaUct//AOJ9/wDzcl373H7ok3Df+i+bKcb2IZ1dYd8jN8gz2ef8wPzn48u0w+2fHh+stfjP6hNlTOfjHt1n5i/2z8U10kMZxSBNOiQpqkc4rHLkjOhCY8RUz1sm3eb0Rzwqm2b6lOcoZty6gEx88EW2J1EUsSW2cu6bcREkBZSSocjkmJT5W+xOu3TP3gz3t+DOjMf6l585/wAoakGzuwZ/Royv293/ALQL9nnIb1vTFr8mnvPfadNfPFKar4rXhb/L/H+FYifxn3/yYgY1tO90DfAY+M9PPvkSz56L2Anzn4Rh18/MT+G5z89/Ws9LH8dPE7yjbnlNri4hgf2JHpn7ujpl/YrPwidefmc/skpTXn0Gf9oJCv2K6H/jcMSvtP09TefZpP8AF/j1/Sts9cOVDmHj/umvu+hHFlmWpPgo8++B9hk+M8WH/vD7Z/xE/GPoGeeDvuEmeNB/95+5Gdz0dPcZ+BD70ebe/wD4lXFVtbuv3cNCwx+79M98u+q327/w+P03Kr/jxweB1Siy5DbO2E/8v9/D6wNfOb1p0f8Axd/M36bvi5J+76n9/wDrcXvv8f8AA1/z/t+pcHF9BUkXO7ruMtvdH/4A2tvG+WluFaPHNmvXvNFl/wAntVIsRvrXcNhJYVneZ/bm/wDcuy6Zpda/TdP9BN7r/tqx+l9H+uDxj/2d9Z//xAAtEQACAgIBAgUDBAMBAQAAAAACAwEEAAURBhITFCAhMRAVIjAyQEEjQlEkNf/aAAgBAgEBCAD9OZyZ/g8fxZnJn1c4/YLUEnnnF+NCsCyoxIo7o4ifXzkz/F59RFAxzJ31ixYRe3/ZUl83LbbNmxTXG9teWr3sR1AIbF6CR1UZaYHSPUao2iRin1B3otRkb+vKa7xC6s3kmF3EsVLY5j5/jTPpIxGPytbGAW/ss7tY3K5Sy/bdrZICqJLZSMyNiddDMCqJ7CQE6dhlCZx6VjdF+Dr2eVNMExqXrvLibc1m60R6ktTYr7Sam/8ADfbqGPVxHp1PyOpVDtERFPfSybacX1DXOku0E3lQ8EYuwthkAAYmPcP6s5M+gpiImZbtVCSJjY7JpU7YQ29Ldkl0BXYWsYEFKJ2S7MKqvKiyviKHibFdoqurKKi1TNJcXCbBaMColVmzqQbar3YnpsiKxUm5RadZN/C1hLeVcrNRrK/BNWgbAuwqDC76WBsLAuG+FZ9gBZq8PqGyxKOaPV3ZtCtnU6h4pWaLG9Vd1VVmPvwDeWtlTag6w5BI29dlGLkx7x+oRiMxBXdpMVrJJdtAHZ1ixzbLtQ5YgSR3CrOShx6x1XFkB7GtfFWoOaD6ZJQHmfMQqtALhcwuJ95AZIeD7Iku6ZrjISEtT7gySpCUmsm0fESPc3Wom75iS6bXNZ9Sdh0+RVFPTd6eJWw8AYqTXZNawPMeG8SUsA7DivECJHCP8plNc3KUopqbC8lw3M19Zw1raCX+2M5yZzn0TH1sWF11y1p34G8NWbe1Z9pC0RnJ7o14Is+yQwe9MboHCuu49U6rI1+dqq3FPV9tOKsikZZ4mCqIjjHWpGe0QuD2ckbpKOcmw3jiItzA+8Wx7OSiwEh3SMiQ8jKhke3CVElE4QoCSTN7c1vK07EbJ5m2zCjNS7ENhKZBJViJxworC11pmzC00tZY8rL2I0Ch8evCkiByyLO0UmJEdbYsPsyZ+mYwmDHOP3AwurYW05Y7Y0DfsWHT12zkKQTtL2vk7TmaatfgRWO8MIo0WN1awaFMIum7EVIBULns94mXWOwu0VWe4ZmWkxhZIyM8ZJT8YXH+3EyOD7xxEjEZI8L4IbSkJJjbu0OWWqa9l1KDDpbNUgbhs6/PMGQReGaweN4OSjx1wGVddFh4xmt0ZeFi6KQNhRYuqrj+br9iyXaNXXjHuwJ4jiILOfRYcCVkwztAvdKOCU09RaqY6yH3GjswGkbF7LVFYvS2vr9xiq4/eLmvLzDXaNb8bsK6NtVsRrtoR7C5QKp1NBaRewl2xSmymvPjoa40QtIiUEELGJmcJcTxh1wLDqDM8wyt8yJRMc811izNhs6woVaRsbf/ANHWle3rmlV2+DUFNxurgYKxXE57ghkWio6iw8TozqtMuZpWJp6oEIFJOapI9zLO2Yz8UpoEU9zFJgR4EV8ZEZEfWZzmP7vKltVgQ9BfbqL5mtA75kTNQ2aJqpslI7KjsZTQmfP6krN0ma6nso8EE711WfITY0jajH2yRtqO4xVW3XO9oYbtXN0FOwud+tXUVd+abYsEdnq4T1YRdP1tgDN6A3Kqor7QHXnU4q7Srark9SUrmRYrY30TNkVN34V2a/YjaebS2GnYy6xi0bOfBWiwddgVzisdUgGTau4FLpnsm5UOproA1WJWpaFdkWdvAx2oXWdYnvYioK/YRX75C8geMgciM4j6bSwyujxFp2UeJDTDboL90MQ0ZHDrgRCeRr1wbcs6eSoLRDqkjtlW4Tp/a9Sm/Wn7LVsw+lCOoYyvQbOut64nuOAo7YE00J2b6mLrnY0ZKm3KCu09sFLV9lq5qB8467plFj90atzT286u54Wx2WocnqA7HS8qnYb6Y29bYRWpmKLWmabGMpVr6YFCL5DiKDSSdV1DVmbKWwZR6fFdd9TAUMH4uWNopH4gU2bhcyigC55kV4Ie2QGQMR6p4n5bVSUYeuV/qVEo+Biwr4+4WVzxIbk4/eOzrHHbINQyYIDoJJJJyzr/ABZUWBQhWwKyKtMQ0LNPL1I5oU7cM10J6gEhr6ZrKtzWzbW12uq3oMVV9pBmmkwq9jUtsNNtStsUEmvX2vdiKbHUH61rnsNaNqpSFJ2RLVU1DLVCwqaOuiLaLoVKCUKhMWbqa/73XrFou0Ua2I/JgriI4wQyA/72xHqmfpMZxnZGSoZya0YVWfiWa8C+T1sf0WuZHx221fAbOwE+4biJj8x2NY55nsQ4ZDG0xZIERURG15jA0wjXfUm9qWt0qgnY0YXt614K+iEdjZowvUMuatgS+XyNbbDX1f8A7zqDR0pHrwHAoKiybpMlV1/na2xsntSjXkc9zEpFY9oCuMFeQMZxkenn6RPr4jO2MlIzhV4/o6sF7SeuXOHrY/oqDY+IO2nA21gfle3Hnk136pz7ylLQiIbUEmi6RoAuyxklpxmkymdCiZV6pshYLieLO3EYkEAixZLuOtTBX7RXgryAiM4yZ+sz6Jj6c5M5zkTnOROc5M5znP0mfp2RkpHJrx/R0xL5PWrn4PXcfE03L94mzaXHGBtnDHEhuFRPJM3VcY/xsdZulxNfXgHEkITkB/zsjIjIj685M+jn+JxGSuJyUjOTWj+mUhL5ZrQKMVpwg+SBEDHAwvICM4yI9HPqmf4U5z9In0TEZ2xkDGcRnHpmfTM5P15/Sj6T+jOR6Yyf1v/EADwRAAEDAgMGAwUFCAIDAAAAAAEAAhEDIRIxQSJRYXGRoQSBsRMywdHwECMwUuEgQEJQcoKS8TOiU2Bi/9oACAECAQk/AP50bAweCNyJRsLFa/yQ+/MHRe9SqQ7lPyXu1m4mk2HlzTSTQdhfoNPhCJ9nWbLSbDLTmjNSi8B2lsvROmnWbIM2BHzX/JRJn1HZEYKlpyi3zss2gHqnbIm/KyP72YQ2qYm/KUfu6zI4T+uSG14Z+fDTsjipeKbIcTADo+oQLq3hHwZyw6QNbIYqXim6yGh0XICBNXwrszEYRw1ylNBp+IEEkQGu1I5K9WgcQM2wg6A7804llYYXk2Acc+idiFM42k2EN3c9E2Q0YHnISfkLonBVDiw6DM91erScMQyEXA7J006zbGbAiZ+SvUpEnhGYRBa4taY0JgHoVm4EjdAj5oyWmDwOaMj90u2pkfKR1RmpQdI5SCOytS8TTwybCY9ZyQmt4R8icsM5DeLIA0fFNwkmzQ4ax5RdS6r4V0tJyw6ADkEMTazNrdigackJdRdYnKJ+SEtqNg7pGXNXNMy06Dl3UEEAOnLd81dubdwNtOybidTIBkWgZDimyysJGYaHHUckCatAxlbAOh/RDEyoNoCQA4z6Zolz2HYjKLk37hOlxkPaJA3CeefNGW1ILQMsRIOfKys/w5yEiWjDn6FSKVRoJaL7UAdk/CWzgiZN3E38kYwvIc0GThAcO5EowyoxpbvxOMR6KA5hgCbkQDMeasw9c4/FMTlxQh1LfyB6XR2KzCAdJsR1mEIf4WpIJ3AkjoFtUvFMwkmwnz3xkgXVfCPxNJFoFwBvsEA5viG4HaCY3eRF1c0X4mbgMxHlKEh7QDusr4clmmxw+wSNyEuFuqEtdpoCgHPp5bvqE2cYgjTIoS8bTRoCZj1V3tlpAtAk58boHBWgkDIbhPA3XvUzsgWJJLZv6IWkNe0GSRDJP93qiGseMTbGfd2ct+R4oYSxpFiCST7SJHAiDOiJY1xiCDNi6eiddpkXvmwj1kK74Ek3nEGeoTSHYWmPM5Ld+EYaMyh7zSQeIIt0ujL6FSHE8DB7FH7vxNOxPAaDeZyQmr4SprlAOnACOivS8UyJmBIG45yItmtqp4V8tJywi4jyBz4IYm1WQ7QSBa3ZCTTdLZyAn5IXNju+wXWe5WC6oSVmjA+zL7CBImJueMdk/BRc7M5jCDGW8iCtl9J8i8k4nyM/ygdEMNKphY4kXEezLiOWazu5rpvhDQQADocxxQlwMOJH8TvaDTeDfiEZa8gNcZ/Mb/AoTgcGuJzAmmRA4R0XuODYJzECF70AE8Arle7Hl+3p1X/HUcAZzAcDHeApuMQ82xA5Ed0RsOwPJtE7Lj2MIS2swPaTlPAczM8FtVfCvhxIgATERrAIvwW1S8WyQZ2Zi8DWRHFbT/D1Mz+UO9IhCW1Gid0i3pCvhyWaF0Lqw73Q+V1nkjmrfXZD6HqrnT60RgbuKfDQczaJgBDDUZTDmmc5DshwIQBPuPkEXmmXbspkHJSWnFUZe2EB1gP/AKBBCGKow7cjUl4HkWi/EI4qdXCGmbBxLJMcIwlTjZhiR/C1okW3HzITbVnXIkNBmoCOOhGqE1aVUkHSJBPkfVCccEjSQAPgjJ3Kw3D4lX4LL9r3WiTyC92syJ4gyOoKMPoOlpP+TemS92oMJJsBP6oTBxtnIDOAPLuoc+mcDybC9j0uVLmeIbib+UGM+NzpuW1W8G+9oAANhxthlOxM8SC0gHZB2YO45RvXvs2miLBpa2Od0A52yHAWAcS0HpMqcVTFEZbIk39ERjaASNQDMdYPROtfr9oW9GeCsPmd60lEOY54pkzEXwnoRdEk4cbNRDWsJA5kyEA59MFrxkJ2wAebTKdibUIDDpilt/MCDHJXqUoED/xtAg9bfBNmlVDnOaDk7bgf25jVDEaYxNA4ubivxAlNxBzSHDT3cInpB4q4a4ubbKST2lEDlr80IHf7BA/AzLSOoTYdTcyeAyPeENmrT7ggHtCu6g8kToBH6oT7QBp0EuH69lce+zcP9yEMT6BwuAsN4B7Zb0Zp+KaSAPdxRMnlBvxR+98M4kAaMkYud5+UKwrAB4beDhAg8iQYN7IiH7TRqTZxjyAzgW3qWv8ADPDTGeEACTwdEaahbNLxFJkyNTOAeRMGN98kcJpmoWGYJxF7rcrRGiJaGvYx83MA4XHzznOFHs6zS4ONrjDhHni5ppBphpJ0OIE25QnbAJBJtBaSDnuITtk3zzkK9WizFEHUEjrGidiZUBa9oNg5wbn/AEk3m8I5uL2CNznOfcbxlPkvepkNe0W2W4AJ12wIM2lH7muwPAjJzhsdCYMc1arQJDYzMlxf/joRomw1xFNw34QwO/yz3qxEOaBebOA7FbJDA0ga5fEKGtHL/SHmj1z6f6Q/AzkJl4ixPpkpCIIOiu5uRQkVM92UIyaRBHkfkhZzS0+o9ELOIc3QSRI7gSpDqRi26YM9O6MU/ENIcBrskX8xNkIdSIe3fJJnt3ViyGOOZhphx/uE9UMNLxTQQT/1A4kk2PDVAir4VwMni7LeMPwCALX7NSRbFk8nyJIOUiU44KzQ5hOUNJcCP6haRulEmp4NwJ4NLgGRvgt5wrsqta1wBtiIgj+0nI7k44avtPZiLXDy7qPSyOGpQLLCRsscwAm+uW5Syj4im3GBfMPABtoSMvOygPa7EwalxgEA2B2QD3Rh9P7pxtcRdx5hxBnchh8N4m8nRoJw8todEIfSJfPDYED1tZWxnC46lxLgT5jVWaXSCc4EfLNDa1O9bTu313WXYK5/DYFIRU9ZR6hM6FWTggMDtPOfVWLDI+uSENe2DznPp6LIuJac7WPwhN26WAEnOAR8UJbWDpnKSL/DqrmnBZNgLnERzCEuonCY/KwjDPx3yh914luJwG904Qf6XXm29DapnEyMy7+KMpsJWy+jFM3uQG5+YJC2PDeJb0aSCORxNHlzQh1ImoCc8mjD0M26K9SmQHnOXHEQeNrHkr0PEDADukiTzBtkhJoEEE6NhxIHnfchOJm0TvgQhIaZHCfRGXbkLbh8Srndohb8Yfa1EjuoKkd/miCmIxzRBB00WbDbgv4m4SBzH6/QVmPJIjyMdkIfS03xb9eiENJgnWSDnbdqhhp1GWJ5i479Fd1F0gnRsG3Im6bLgTj3S0wP+oQxMqtJG6S2QcosSeKb95SqGBpmCd0q/tAARpZGG7vr0Qgd1b1Qgfuo+wShHJO+uyg8rIkd1BTIPVO6qDFx5XQl4t5HS29C1QCRyEeisJJaBxv6nzC2XUxBHGI4qzVfj9Zo+Z+AQvvQ/fRKEckeqHREjn+qAKbB6racrjsFc9v5K0KQnSNyFv8A2P8A/8QAKxEAAwACAgECBQMFAQAAAAAAAQIDAAQREhMFFCAhIjAxECMkFTJAQVEz/9oACAEDAQEIAPsDAP04OAZxhGAf4AOAffA+wTgP6JrszBc8TdC+NNlIB4PP2wPvgYB9gAk8BYMVY5HSHk6ZKapNKsNOfleOPpkwm4f01RtlcPp7e1fmugFpLj2D+SiY0WWYoWi6sEPB/wAADCMI+yAT+Ja/LJ2npnxOMWM02ACHYa/OAzF+MNCIdiKzWwxHJkUw2UUV8VVZGieJii3PsZeOmtlNPlZVH9MUbTJh9NY6r810AvifD6fQWaREH8ZfGmyqGJBB4PxgfbAJPAXVY9+YQRayOLHrBkJZRsKxAoNdplqoLK+PfrrtMU2B5WbBZvCEz3pFhTJbRWTyweoqBOuS2EFXjg2QyBxOqrTkIWMymCigC2GCdDE0RCV2MXTRXc5b0vtrCQpo9rTuqel8VeeewJgzLXVKTRw+nRbmIIwD9AfshSeSJav7kw41z7egKqi7aMSr+0aWBprsJTGBXXpEvtgXSgd28fjx68nthpx8h3AP0h/lwBXhgQrj5rguR1YJYK56rsOIdMHqDCiVzX3wtWRob/aHciwoPIh5PKHszHkdgTwvb6VAoqszZSMWUxzYunki+PsS7EEMD+APsTm1GCquvzE1ycEG2ZYob2SseqrukHqw1CpNEXZSmeX+K0srsc18mFiF6lq/PnJ65ZQzNosX+lIKh657aYPJOovbnPasX+Ri4frjdlP1ChB5wUIHGA0ID5HUp5KzOuqhZ9gGZOpZ/qFAqDuJs1AJ8vbaQVCB99z46ZXYCJw6QvtfPBqQ159ZgfEFJ4yeme1JsGWc9ewTX/e2NXDQjVhfBJV26QJLHSU5eyrtMVNT4lTKV5YsDQD5ZLXNFDNTV4YBZKk0AwEEclfxyACP7TwG+ZP45Dc/heO/IvF3qFTX1QBKza/p5Vba7KQhnYiagmJDnp3wU8Z7ZXY8aE5s7o7fJ9hgg5nW2yf4+v6dORD0ejH5Bl5OcZwPgRGdgobn2T4HI3ZWyOv01ramGyq2ttCcetL6mNQ+0lceNU3WTFg761JnY1wsJXWvpp962viatHk9MU1nMOa7RKEM13K8YtmUYm2yjjE3iBw0r88AqV/I2KNMZrzqWMqRnydfYEdFEFNXPL2kuyewRyAQepmLbSTK3G1uMPMgtsl37htssxlDX9OYnvsdgo4XsP8AZONnPwV3JzPXNa2w10d4dF2roop/BU4LBd1WEwDr21w1gvg2hOIXYrr53ZtJKDyie4tVnEPq21MZ50WO7iaqpu2Rv6cX9OeebmspfW2cp6QB6hSLL6aTCrGumyQS2V1axoEauyxUo+mtFSZdtNrC2uZIqiO0Fiql4YGLTDqaDyLUH+1pNX1E8Sotblg082N1Eccp6fsbPz2ZpKChJEk/nsMLYWGE4TnP6LBb8o39KrGRlD22/PPeMnzpP1CLcoPOSq5Pb4uXxK86rSx9r/xqI0/mVnk7F9HGunnlfEUE21i1XfXSmM4nuBsn2Eq6ptfmUto+FI7bYmmG1K6mbMQ8NfaRvTwnqXfNfR/ivDKU5ee2oVRV4v8AW8QcewDCiW2FVaxFt4tRK5fYSSfuJHa2/wC3X09fUUhCxbCwGF8JwnOfiWjD8CrDBX/tIwqPqb0rXb5ofTtlB+3xvzP1HeCfKkPUZ0ZWnO5XsMNi0BMttA2nbI1HmrPFuW0Ty+2FpLYyLIuxSRUs+uVDVXvPZVECVeDq1H1uMeqrZLqkwGfWZi7QBau0s7TfLXJk0ctckmhFr7DdNXW9LlA+SjUP+uwwt/wthOc/YBznjAxwUIwUGCpwVwUGV1dSw/cPpMQOJnR3EP0Ft1Pkw9TRODSO5NgegsTPx4dol0qI7KptschbnWpFn3Cdedi2yI7CsE6Bn1S+z+yKG+2BYnDZvGq5Xe7UM4Q9LZyH2i6qOFLf9LYWOds5zn7ZGH9exzyHBU4KjFsc82B1P5t6fpWPLn0hBx4/Z7ic8eTaQc0T1BR9TT2FKlV8xaajF2+LLYWqBSijZ3UkQGno7G1wbylHXTxzZyfz3GdjhbCfgI+6RnGcfoDgOdjgcjBX/oqP9CxwVGdlP5roa1iCx9K4PKHW30BA9vv2YJmroa+oPpahI4BOdjhbCfi5wj4OP8PscFDnk5/IqMFSD8jc8fIvhY4ThPxgfED8ZP2QM4wjOM4PwdjnbCfj4+PjAPsj9Dgw/wCUP1//xAA2EQABAwICCAUDBAICAwAAAAABABEhAjEDUUFhcYGRobHBEiIy0fAQMOFAQlLxUHIgI3CCsv/aAAgBAwEJPwD/ADWTqwQk/wCF/bdWqphXoLFGKw4XqoLFBqawWQ81BlempkJp0KxQn9bapDzUF1bEpUVYRtcsooxRvdFqsI7SyinEHNFjQXiSQvTWGbWhNEjNkGeDtKh5GaiqlnzUUViEGqoO8oNTUw36VDAka1YFihBt+lvSvTWG7FerDqdlFOKN7qK8MuNJZRTiBjm6g0VRmygViWRmkwrVBioayvY5qAZG1FjQZzI/KYU18XKg02NyyDA3QjQeag0u+xWr6yvVSYJyd0H/AJcgpemDrLIPVSS+wBWI4SzKT90WVqv6Qmg/hWxKWUVYZdrllFOKGLXdFjhlxmygVhjtsv2mFp+hf62UEItTVdR4bKBY8lYyNsL1Uw5VqhL5ToV7gmzz0UkFjleeClyNED0/ApIGjc3FC/sVbQBqdZnsqm+0JK0FmVsSlwB8zCirCqkKKcanR83KK8KreyinFE7f7UGkxmyjxCVYfQwrZqShuUBWQdD6i0Og9YFhaSPd1IqDWsw7qaqXIbey2Ea3k7tKgaAMh4e/JCQJG74Qizhxt8zq4dwiwCHhpzIk7B7oSeP2PVSHjV+Fm0DI6UGFQelr5hXoLHP4w5qKcSlw3zaoqwqraboMMSnmR7osaSVD3+hhGCpKPwKBdCylFQPnFBzmqZUg1MRsb3RYeoN/7MrxSdpa+xlFJENqZ+aiqlydYluN1Y9Se/VH0Df+0+4UU1UjbZFhTp1KmP5GBu0noj4qsz2Fh9i5Qc0VWEnX0XorDEC+RUeEuBdRoOeSimoeIZ5qDhljmooxRz090GOGQdbTCtVB2ueygSQcwLcValn3wh5TA7oMf+IbWi5+gYgeIaXhwgBPhO8lRTVNOmPL3QY0u+bMY4r01f8A0UfNSwBOUdbIs8HgWUMQQd7rSAD81qk11DgNpsOqq8RyHpHvvQ+xNWQk/jevKARFzfP2UCvxbzdXoqVq6Z3r9pJGcKNBz+QiwrDjv3UVYRvpb4UPLiAOdejky/ZIJ2u6fywTqt1KkYlJOp37XU1YdR/PTkg7+EGIjwjmg5IJpbMyE/joIDDe/BkYqfcyHmLHO9kJtsXorLPvD9UGNMgkaA/VCwAqO4AK1TkHWX6IeegtuBniymmsTkLNxUs9QO0luCm4PJZuE9VZ0CT85I+Gn+I7nsEAAMvskgaoKxGGukHmGKppq2FuvusOqltT9HVYnQj6bIRVfetBBCuAx4q1Xzuh5sMwd/wIxVBy0KXkZTYbj0U14Z0c+S9OIGYbO6g0zS2VwOyHmpLVDTMNuUU4obe09VBpJIe7A92QmlvEeACmmsG+ZBOX5TGuiotynepBDHIC45qRV5hxtyU4mH1h+RVqo6l+y0BwNUdFcBtSLUr/AK6Mz6jsGjfKEm5uTtJ+4foFSDtCJpOo9rcljP8A7B+jLDFWsHsQOqoqp2gtxDhVgkZFWKM0mFkxRip23osaW23UeK/CFAqDjabr14ZYHYZO8K1UHUNHspFfm4m3J1OJhnn/AESrVBjzL9l6apGyHUV0SdztxUePrH9KGMcVGapj+Rtuz3I+KvM9hYblH6I/QKgHaEaqdh93WKCNY7g9lhP/AKkHkWT0EZg/0qgX1o6XCuAxVqkXI7Mr0mW3qPEOfyEY0Zz+VBpLc2PEMj5aqf6UeFU+OvVYbTYddSq8RyHpHvvX4Rn9Qfrhg8AeN1iVUtrccC6rFQ1gjmH6LCt/Eg+yenaCEfKVemyvY9OikVFF6tAElHwU5C+86NgVIAGgf4AofSkPmIPJYlQ5jnPNVU18afdAUU6S7nc3UoeY3Jkneo/8F//Z;" vertex="1" parent="1">
          <mxGeometry x="-800" y="-321.79" width="751.55" height="322.59" as="geometry" />
        </mxCell>
      </root>
    </mxGraphModel>
  </diagram>
</mxfile>
